<svg width="118" height="118" viewBox="0 0 118 118" fill="none" xmlns="http://www.w3.org/2000/svg">
<path fill-rule="evenodd" clip-rule="evenodd" d="M4.91675 59C4.91675 29.1306 29.1307 4.91667 59.0001 4.91667C88.8695 4.91667 113.083 29.1306 113.083 59C113.083 88.8694 88.8695 113.083 59.0001 113.083C29.1307 113.083 4.91675 88.8694 4.91675 59ZM50.3959 54.0833C50.3959 51.3679 52.5972 49.1667 55.3126 49.1667H62.6876C65.403 49.1667 67.6043 51.3679 67.6043 54.0833V88.5C67.6043 91.2154 65.403 93.4167 62.6876 93.4167H55.3126C52.5972 93.4167 50.3959 91.2154 50.3959 88.5V54.0833ZM68.8334 34.4167C68.8334 28.9859 64.4309 24.5833 59.0001 24.5833C53.5693 24.5833 49.1668 28.9859 49.1668 34.4167C49.1668 39.8475 53.5693 44.25 59.0001 44.25C64.4309 44.25 68.8334 39.8475 68.8334 34.4167Z" fill="#FAF6F0"/>
</svg>
