<svg width="324" height="103" viewBox="0 0 324 103" fill="none" xmlns="http://www.w3.org/2000/svg">
<path d="M26.724 46.5891C25.1119 46.5891 23.8276 47.2449 22.9258 48.5565C22.0241 49.8681 21.5869 51.7808 21.5869 54.2947C21.5869 56.8086 22.0514 58.6668 22.9532 59.9237C23.8549 61.1807 25.1665 61.8091 26.8607 61.8091C28.7188 61.8091 30.085 61.29 30.9594 60.2516C31.8338 59.2133 32.2984 57.4645 32.3803 55.0052V54.2674C32.3803 51.5349 31.9431 49.5675 31.0414 48.3925C30.167 47.1902 28.7188 46.5891 26.724 46.5891Z" fill="white"/>
<path d="M99.1082 40.2226C95.0094 25.3304 87.577 18.3078 80.4725 11.7498C67.7116 0 53.4752 0 45.1411 0C32.8721 0 22.8438 3.77087 14.2364 12.7335C6.06617 21.2316 0 38.2278 0 50.9887C0 63.039 1.01103 77.6306 12.269 87.2764C29.5384 102.087 40.7144 102.005 52.9834 102.005C65.2524 102.005 75.5539 97.578 89.7903 82.8771C97.9332 74.4609 101.704 65.8262 102.032 57.3827C102.196 53.0654 100.037 43.6109 99.1082 40.2226ZM88.3148 66.7006H80.8823V51.8357C80.8823 50.005 80.5544 48.6114 79.8986 47.7097C79.2428 46.7806 78.2045 46.3434 76.8109 46.3434C75.0074 46.3434 73.6412 46.9445 72.7394 48.1742C71.8377 49.3765 71.4005 51.3166 71.4005 53.9671V66.7553H63.9954V51.8904C63.9954 50.0596 63.6675 48.666 63.0117 47.7643C62.3559 46.8352 61.3175 46.398 59.924 46.398C58.0385 46.398 56.645 47.0538 55.7979 48.3655C54.9508 49.6771 54.5136 51.8084 54.5136 54.8142V66.8099H47.1085V53.0654L40.2499 66.8099H39.2662H33.3913L31.9431 63.5036H31.6152C29.921 66.0175 27.571 67.2744 24.1007 67.2744C20.8764 67.2744 18.3625 66.0994 16.5044 63.7768C14.6736 61.4542 13.7445 58.2298 13.7445 54.1037C13.7445 49.923 14.6736 46.6713 16.559 44.3487C18.4171 42.026 21.013 40.851 24.292 40.851C27.735 40.851 29.921 42.108 31.7245 44.5946H31.9704C31.5878 42.7092 31.3966 41.015 31.3966 39.5121V31.4785H39.2389V56.9729L47.0812 41.2882H52.9561L52.9287 41.3156H52.9561L53.7212 44.5673H54.131C54.8688 43.3923 55.9072 42.4906 57.2734 41.8348C58.6397 41.1789 60.2245 40.851 62.0007 40.851C66.0721 40.851 68.8046 42.108 70.2529 44.5946H70.9087C71.6464 43.4196 72.7121 42.4906 74.133 41.8348C75.5539 41.1789 77.1388 40.851 78.9149 40.851C81.9753 40.851 84.3253 41.5888 85.8828 43.0644C87.4677 44.5399 88.2601 46.9172 88.2601 50.1962V66.7006H88.3148Z" fill="white"/>
<path d="M164.415 62.602C162.83 61.1264 160.508 60.3886 157.447 60.3886C155.671 60.3886 154.059 60.7165 152.665 61.3723C151.244 62.0281 150.179 62.9572 149.441 64.1322H148.785C147.337 61.6456 144.604 60.3886 140.533 60.3886C138.757 60.3886 137.172 60.7165 135.806 61.3723C134.439 62.0281 133.374 62.9572 132.663 64.1048H132.253L131.488 60.8531L125.613 60.8258L121.679 68.6681L125.613 70.6355V86.3202H133.019V74.3244C133.019 71.346 133.456 69.1873 134.303 67.8757C135.15 66.5641 136.543 65.9083 138.429 65.9083C139.85 65.9083 140.861 66.3728 141.517 67.2746C142.172 68.2036 142.5 69.5699 142.5 71.4006V86.2655H149.905V73.4773C149.905 70.8268 150.343 68.9141 151.244 67.6844C152.146 66.4821 153.485 65.8536 155.316 65.8536C156.709 65.8536 157.748 66.3182 158.404 67.2199C159.059 68.149 159.387 69.5152 159.387 71.346V86.2109H166.82V69.5972C166.792 66.4548 166 64.0775 164.415 62.602ZM189.745 86.3202L188.407 82.8499H188.215C187.04 84.3254 185.838 85.3364 184.608 85.9103C183.379 86.4841 181.767 86.7574 179.772 86.7574C177.313 86.7574 175.4 86.0469 173.979 84.6533C172.585 83.2597 171.875 81.265 171.875 78.6691C171.875 75.9639 172.831 73.9692 174.717 72.6849C176.602 71.4006 179.471 70.6902 183.269 70.5536L187.696 70.4169V69.2966C187.696 66.7007 186.384 65.4164 183.734 65.4164C181.685 65.4164 179.307 66.0449 176.547 67.2746L174.252 62.5746C177.176 61.0444 180.428 60.2793 184.007 60.2793C187.423 60.2793 190.046 61.0171 191.877 62.52C193.708 64.0229 194.609 66.2635 194.609 69.3239V86.3202H189.745ZM187.696 74.4884L185.018 74.5704C182.996 74.625 181.493 75.0076 180.51 75.6634C179.526 76.3192 179.034 77.3575 179.034 78.7238C179.034 80.6912 180.154 81.6749 182.422 81.6749C184.035 81.6749 185.319 81.2104 186.275 80.2813C187.232 79.3522 187.723 78.1226 187.723 76.5924V74.4884H187.696ZM212.343 86.7847C204.419 86.7847 200.43 82.44 200.43 73.7233C200.43 69.3786 201.523 66.0722 203.681 63.7769C205.84 61.4816 208.928 60.334 212.972 60.334C215.923 60.334 218.573 60.9078 220.896 62.0555L218.847 67.4385C217.754 67.0013 216.743 66.6461 215.786 66.3455C214.83 66.0722 213.901 65.9356 212.972 65.9356C209.365 65.9356 207.534 68.5042 207.534 73.6413C207.534 78.6418 209.338 81.1284 212.972 81.1284C214.311 81.1284 215.54 80.9371 216.688 80.5819C217.836 80.2267 218.956 79.6528 220.104 78.915V84.8719C218.983 85.5824 217.836 86.0742 216.688 86.3475C215.54 86.6481 214.092 86.7847 212.343 86.7847ZM249.888 86.3202H242.92V71.428C242.92 67.7391 241.554 65.9083 238.821 65.9083C236.881 65.9083 235.46 66.5641 234.613 67.903C233.739 69.2146 233.302 71.3733 233.302 74.3244V86.3202H226.334V50.8248H233.302V58.066C233.302 58.6398 233.247 59.9514 233.138 62.0281L232.974 64.0775H233.329C234.887 61.5909 237.346 60.334 240.707 60.334C243.713 60.334 245.981 61.1537 247.538 62.7386C249.096 64.3508 249.861 66.6734 249.861 69.6792V86.3202H249.888ZM256.965 54.2132C256.965 51.9452 258.222 50.8248 260.763 50.8248C263.277 50.8248 264.562 51.9452 264.562 54.2132C264.562 55.3062 264.234 56.1259 263.605 56.7271C262.977 57.3282 262.02 57.6288 260.763 57.6288C258.25 57.6288 256.965 56.5085 256.965 54.2132ZM264.234 86.3202H257.266V60.8258H264.234V86.3202ZM295.302 86.3202H288.334V71.428C288.334 69.5972 288.007 68.2036 287.351 67.2746C286.695 66.3455 285.657 65.881 284.236 65.881C282.296 65.881 280.875 66.5368 280.028 67.8211C279.153 69.1327 278.716 71.264 278.716 74.2971V86.2928H271.775V60.7985H277.077L278.006 64.0502H278.388C279.153 62.8206 280.219 61.8915 281.585 61.263C282.951 60.6345 284.482 60.3066 286.23 60.3066C289.209 60.3066 291.45 61.0991 292.98 62.7113C294.51 64.3234 295.275 66.6187 295.275 69.6518V86.3202H295.302ZM318.884 86.3202L317.545 82.8499H317.354C316.179 84.3254 314.976 85.3364 313.747 85.9103C312.517 86.4841 310.905 86.7574 308.91 86.7574C306.451 86.7574 304.538 86.0469 303.117 84.6533C301.724 83.2597 301.013 81.265 301.013 78.6691C301.013 75.9639 301.97 73.9692 303.855 72.6849C305.741 71.4006 308.61 70.6902 312.408 70.5536L316.835 70.4169V69.2966C316.835 66.7007 315.523 65.4164 312.872 65.4164C310.823 65.4164 308.446 66.0449 305.686 67.2746L303.391 62.5746C306.314 61.0444 309.566 60.2793 313.146 60.2793C316.561 60.2793 319.185 61.0171 321.015 62.52C322.846 64.0229 323.748 66.2635 323.748 69.3239V86.3202H318.884ZM316.835 74.4884L314.157 74.5704C312.135 74.625 310.632 75.0076 309.648 75.6634C308.664 76.3192 308.173 77.3575 308.173 78.7238C308.173 80.6912 309.293 81.6749 311.561 81.6749C313.173 81.6749 314.457 81.2104 315.414 80.2813C316.37 79.3522 316.862 78.1226 316.862 76.5924V74.4884H316.835ZM168.951 47.0813L167.612 43.611H167.421C166.246 45.0866 165.044 46.0976 163.814 46.6714C162.584 47.2452 160.972 47.5185 158.977 47.5185C156.518 47.5185 154.605 46.808 153.184 45.4145C151.791 44.0209 151.08 42.0262 151.08 39.4303C151.08 36.7251 152.037 34.7303 153.922 33.4461C155.808 32.1618 158.677 31.4513 162.475 31.3147L166.902 31.1781V30.0578C166.902 27.4619 165.59 26.1776 162.94 26.1776C160.89 26.1776 158.513 26.8061 155.753 28.0357L153.458 23.3358C156.382 21.8056 159.633 21.0405 163.213 21.0405C166.628 21.0405 169.252 21.7782 171.082 23.2811C172.913 24.784 173.815 27.0247 173.815 30.0851V47.0813H168.951ZM166.902 35.2495L164.224 35.3315C162.202 35.3862 160.699 35.7687 159.715 36.4245C158.731 37.0803 158.24 38.1187 158.24 39.4849C158.24 41.4523 159.36 42.436 161.601 42.436C163.213 42.436 164.497 41.9715 165.453 41.0424C166.41 40.1134 166.902 38.8838 166.902 37.3536V35.2495ZM190.866 41.9988C192.068 41.9988 193.544 41.7256 195.238 41.2064V46.3982C193.516 47.1633 191.385 47.5732 188.844 47.5732C186.057 47.5732 184.035 46.8627 182.778 45.4691C181.521 44.0755 180.865 41.9442 180.865 39.1297V26.8334H177.531V23.855L181.357 21.5323L183.351 16.1493H187.805V21.587H194.937V26.8061H187.805V39.1024C187.805 40.0861 188.079 40.8238 188.625 41.2884C189.226 41.7529 189.964 41.9988 190.866 41.9988ZM216.77 47.0813L215.431 43.611H215.24C214.065 45.0866 212.863 46.0976 211.633 46.6714C210.403 47.2452 208.791 47.5185 206.796 47.5185C204.337 47.5185 202.424 46.808 201.003 45.4145C199.61 44.0209 198.899 42.0262 198.899 39.4303C198.899 36.7251 199.856 34.7303 201.741 33.4461C203.627 32.1618 206.496 31.4513 210.294 31.3147L214.721 31.1781V30.0578C214.721 27.4619 213.409 26.1776 210.758 26.1776C208.709 26.1776 206.332 26.8061 203.572 28.0357L201.277 23.3631C204.2 21.8329 207.452 21.0678 211.032 21.0678C214.447 21.0678 217.071 21.8056 218.901 23.3085C220.732 24.8113 221.634 27.052 221.634 30.1124V47.1086H216.77V47.0813ZM214.721 35.2495L212.043 35.3315C210.021 35.3862 208.518 35.7687 207.534 36.4245C206.55 37.0803 206.059 38.1187 206.059 39.4849C206.059 41.4523 207.179 42.436 209.447 42.436C211.059 42.436 212.343 41.9715 213.3 41.0424C214.256 40.1134 214.748 38.8838 214.748 37.3536V35.2495H214.721ZM132.008 47.5458C128.783 47.5458 126.269 46.3708 124.411 44.0482C122.58 41.7256 121.651 38.5012 121.651 34.3751C121.651 30.1944 122.58 26.9427 124.466 24.6201C126.324 22.2974 128.92 21.1224 132.199 21.1224C135.642 21.1224 137.828 22.3794 139.631 24.866H139.877C139.495 22.9806 139.303 21.2864 139.303 19.7835V11.7499H147.173V47.0813H141.298L139.85 43.775H139.522C137.828 46.2889 135.478 47.5458 132.008 47.5458ZM134.767 42.1628C136.625 42.1628 137.992 41.6436 138.866 40.6052C139.741 39.5669 140.205 37.8181 140.287 35.3588V34.621C140.287 31.8885 139.85 29.9211 138.948 28.7461C138.074 27.5712 136.625 26.97 134.631 26.97C133.019 26.97 131.734 27.6258 130.833 28.9374C129.931 30.249 129.494 32.1618 129.494 34.6757C129.494 37.1896 129.958 39.0477 130.86 40.3047C131.789 41.5343 133.073 42.1628 134.767 42.1628Z" fill="white"/>
</svg>
