<svg width="280" height="68" viewBox="0 0 280 68" fill="none" xmlns="http://www.w3.org/2000/svg">
<path d="M186.14 40.4196C171.572 44.9036 163.53 43.1242 157.361 34.2748C151.667 26.1133 151.999 16.5521 158.357 8.27201C161.608 4.04893 165.831 1.32054 171.145 0.347809C176.412 -0.601197 181.323 0.418984 186.092 3.0762C186.282 2.19837 186.424 1.55779 186.638 0.63251C189.746 0.63251 192.878 0.585061 196.009 0.703686C196.365 0.727411 196.958 1.79504 196.958 2.38817C197.006 6.32655 196.935 10.2649 196.935 14.2033C196.911 23.7645 196.982 33.3495 196.816 42.9107C196.768 46.1136 196.674 49.4826 195.701 52.472C193.115 60.2775 187.468 65.2361 179.449 66.8494C170.671 68.6288 163.387 65.592 157.93 58.4744C156.626 56.7899 155.629 54.8919 154.324 52.8516C157.575 51.4755 160.303 50.2181 163.126 49.1979C163.601 49.0318 164.74 49.6724 165.024 50.2181C166.566 53.3023 169.105 55.1766 172.189 56.4103C175.368 57.6915 180.279 56.2205 183.15 53.2549C185.096 51.2382 186.211 48.9369 186.14 46.0899C186.116 44.2631 186.14 42.4599 186.14 40.4196ZM186.234 22.0563C186.306 15.2709 181.323 10.5259 175.06 10.5733C168.654 10.6208 164.075 15.4845 164.051 21.5818C164.028 28.9129 168.702 32.6852 175.273 32.8987C181.205 33.0648 186.306 27.7741 186.234 22.0563Z" fill="white"/>
<path d="M96.34 5.33029C105.545 -3.16332 115.415 -0.601004 120.563 8.12985C123.339 3.7407 127.278 1.20211 132.307 0.276827C141.062 -1.36021 149.722 4.59481 150.742 13.3968C151.335 18.6164 151.169 23.9071 151.264 29.1741C151.335 33.326 151.216 37.4779 151.311 41.6298C151.359 43.338 150.742 43.8599 149.105 43.7888C146.709 43.6701 144.312 43.6701 141.94 43.7888C140.184 43.8837 139.615 43.2668 139.615 41.5111C139.686 34.1326 139.71 26.7304 139.567 19.3518C139.544 17.6436 139.14 15.8405 138.452 14.2509C136.934 10.6922 131.501 9.57709 127.823 11.9259C125.237 13.5866 123.719 15.9592 123.695 19.0909C123.648 26.4694 123.6 33.8716 123.695 41.2502C123.719 43.2905 123.055 43.9548 121.038 43.7888C118.879 43.599 116.673 43.6464 114.49 43.765C112.853 43.8599 112.473 43.2194 112.497 41.7009C112.568 34.7257 112.544 27.7743 112.497 20.7991C112.497 19.3993 112.331 17.9758 111.999 16.6472C111.026 12.5902 108.725 10.7633 104.905 10.8108C100.753 10.882 97.5026 13.3019 96.7434 17.0742C96.435 18.5689 96.34 20.1348 96.34 21.6769C96.2926 28.2962 96.2689 34.9155 96.34 41.5349C96.3638 43.3142 95.7707 43.9074 94.0387 43.7888C92.0695 43.6701 90.1003 43.7413 88.1311 43.765C85.1655 43.765 85.1418 43.7413 85.1418 40.6808C85.1418 31.3093 85.1418 21.9616 85.1418 12.5902C85.1418 9.36356 85.1892 6.11321 85.1181 2.88659C85.0943 1.36818 85.5688 0.727604 87.1821 0.79878C89.436 0.917405 91.6899 0.988581 93.9438 0.79878C96.0316 0.608979 96.5773 1.48681 96.34 3.33737C96.2689 3.90678 96.34 4.45245 96.34 5.33029Z" fill="white"/>
<path d="M231.384 0.513855C234.966 0.513855 238.549 0.561305 242.155 0.49013C243.65 0.466405 244.243 0.822282 244.219 2.50677C244.124 8.77021 244.077 15.0336 244.219 21.2971C244.527 36.9794 228.608 46.944 214.634 42.0803C200.968 37.3353 195.559 22.8629 203.032 10.6445C207.018 4.12008 213.305 1.01208 220.826 0.561304C224.337 0.347778 227.872 0.513855 231.384 0.513855ZM233.709 10.7394C229.011 10.7394 224.788 10.5259 220.589 10.7868C214.562 11.1902 210.648 15.3895 210.268 21.3445C209.936 26.7539 213.661 31.4514 219.402 32.8987C224.503 34.1798 230.838 31.1905 232.641 26.3268C234.515 21.3208 233.519 16.0776 233.709 10.7394Z" fill="white"/>
<path d="M60.9895 0.490854C72.6623 0.538304 82.5082 9.55386 82.6743 21.7486C82.8404 34.2043 73.3266 43.4096 61.5115 43.7418C49.7201 44.0739 39.5895 34.3229 39.4708 22.7925C39.3522 10.408 48.7948 0.609479 60.9895 0.490854ZM61.037 33.0418C67.2767 33.5163 72.2827 27.5375 72.0929 22.0096C71.8794 15.9359 67.2767 11.1672 61.2505 11.1672C54.7973 11.1909 50.1709 15.7224 50.1471 22.1045C50.1234 28.3442 54.821 33.0418 61.037 33.0418Z" fill="white"/>
<path d="M275.679 12.3527C272.238 11.5935 269.059 10.7157 265.833 10.2175C264.077 9.95647 262.179 10.17 260.423 10.4784C259.688 10.5971 258.691 11.4512 258.573 12.1155C258.454 12.756 259.118 13.9423 259.759 14.2745C263.009 15.8878 266.378 17.2875 269.723 18.7348C272.76 20.0397 275.939 21.0598 277.98 23.9306C282.227 29.8856 279.522 38.3555 272.262 41.6295C266.307 44.3342 260.186 43.9546 254.136 42.1515C250.886 41.1788 247.801 39.6604 244.361 38.2843C246.141 34.8916 247.659 32.0209 249.106 29.245C252.191 30.4076 255.014 31.7362 257.98 32.4716C260.376 33.0648 262.938 33.0173 265.453 33.0648C266.853 33.0885 268.419 32.4479 268.253 30.8821C268.158 29.933 266.971 28.7231 265.999 28.2723C263.057 26.9437 259.878 26.1845 257.007 24.761C254.468 23.4798 251.93 21.9139 249.937 19.9448C245.927 15.9589 246.283 9.24472 250.316 5.33007C253.923 1.81875 258.43 0.77484 263.247 0.561313C268.395 0.347787 273.259 1.6764 277.98 3.62186C278.407 3.81166 278.953 4.78439 278.81 5.14027C277.814 7.63141 276.675 10.0988 275.679 12.3527Z" fill="white"/>
<path d="M40.8706 10.7394C38.0473 12.5662 35.5087 14.2982 32.8515 15.864C32.5194 16.0538 31.4755 15.5556 31.0721 15.1048C27.11 10.6445 21.2499 9.79038 16.2439 13.017C12.4479 15.4607 10.6211 20.6802 11.9497 25.2592C13.2546 29.7195 17.3827 32.8275 21.8905 33.0173C25.6865 33.1596 28.7945 31.9259 31.1196 28.9366C31.8551 27.9876 32.4245 27.9401 33.3735 28.6044C35.2715 29.933 37.217 31.1905 39.2336 32.353C40.5859 33.1359 40.7283 33.7765 39.7555 35.1051C31.2382 46.6593 13.3257 46.5406 4.9982 34.6781C-0.0552533 27.5131 -0.577208 19.7312 3.50352 11.9731C7.60797 4.28614 14.3934 0.371493 23.1479 0.561294C30.6451 0.72737 36.5289 4.19124 40.8706 10.7394Z" fill="white"/>
</svg>
