<svg width="3046" height="845" viewBox="0 0 3046 845" fill="none" xmlns="http://www.w3.org/2000/svg">
<g clip-path="url(#clip0_29_1735)">
<path d="M102.296 671.492V692.362H33.63V728.139H96.3252V749.008H33.63V784.785H105.282V805.655H9.74609V671.492H102.296Z" fill="white"/>
<path d="M272.49 671.492H296.374V805.655H272.49L194.867 707.269V805.655H173.969V671.492H194.867L272.49 772.859V671.492Z" fill="white"/>
<path d="M463.546 671.492V692.362H394.88V728.139H457.575V749.008H394.88V784.785H466.532V805.655H370.996V671.492H463.546Z" fill="white"/>
<path d="M639.701 716.213C639.701 737.083 630.745 751.99 609.846 757.952L645.672 805.655H615.817L582.977 760.934H553.122V805.655H529.238V671.492H579.992C600.89 671.492 615.817 674.474 624.774 680.436C636.716 689.38 639.701 701.306 639.701 716.213ZM609.846 734.101C615.817 731.12 615.817 725.157 615.817 716.213C615.817 707.269 612.832 701.306 609.846 698.325C603.875 695.343 597.904 692.362 585.962 692.362H556.108V740.064H582.977C597.904 740.064 606.861 737.083 609.846 734.101Z" fill="white"/>
<path d="M803.905 740.067H827.789V784.788C815.847 799.695 797.934 805.657 774.05 805.657C753.152 805.657 738.224 799.695 723.297 784.788C708.369 769.881 702.398 754.974 702.398 734.104C702.398 713.234 708.369 698.327 723.297 683.42C738.224 671.495 753.152 662.551 771.065 662.551C788.978 662.551 806.89 668.514 818.832 680.439L806.89 698.327C800.919 695.346 794.948 689.383 791.963 689.383C785.992 686.402 780.021 686.402 774.05 686.402C759.123 686.402 750.166 689.383 741.21 698.327C732.253 707.272 726.282 719.197 726.282 734.104C726.282 749.011 732.253 760.937 738.224 766.899C747.181 775.843 759.123 778.825 771.065 778.825C783.007 778.825 794.948 775.843 803.905 769.881V740.067Z" fill="white"/>
<path d="M917.364 671.492H893.48V805.655H917.364V671.492Z" fill="white"/>
<path d="M1009.88 775.841L997.943 805.655H974.059L1033.77 671.492H1057.65L1117.36 805.655H1093.48L1081.54 775.841H1009.88ZM1069.59 754.971L1045.71 698.325L1021.83 751.99H1069.59V754.971Z" fill="white"/>
<path d="M1365.18 689.381C1377.12 701.306 1383.1 716.213 1383.1 737.083C1383.1 757.952 1377.12 772.859 1365.18 787.766C1353.24 799.692 1332.34 805.655 1308.46 805.655H1263.68V671.492H1308.46C1332.34 671.492 1350.25 677.455 1365.18 689.381ZM1359.21 737.083C1359.21 707.269 1341.3 692.362 1305.47 692.362H1284.57V784.785H1308.46C1323.39 784.785 1338.31 781.803 1344.28 772.859C1356.23 763.915 1359.21 754.971 1359.21 737.083Z" fill="white"/>
<path d="M1469.67 775.841L1457.73 805.655H1433.85L1493.56 671.492H1517.44L1577.15 805.655H1553.27L1541.33 775.841H1469.67ZM1526.4 754.971L1502.51 701.306L1478.63 754.971H1526.4Z" fill="white"/>
<path d="M1744.32 671.492H1720.43V805.655H1744.32V671.492Z" fill="white"/>
<path d="M1920.47 671.492H1941.37V805.655H1917.49L1842.85 707.269V805.655H1818.96V671.492H1842.85L1920.47 772.859V671.492Z" fill="white"/>
<path d="M2129.46 787.762C2114.53 799.688 2099.6 808.632 2078.71 808.632C2057.81 808.632 2042.88 802.669 2027.95 787.762C2013.03 775.837 2007.05 757.948 2007.05 737.079C2007.05 716.209 2013.03 701.302 2027.95 686.395C2042.88 674.47 2057.81 665.525 2078.71 665.525C2099.6 665.525 2114.53 671.488 2129.46 686.395C2144.39 698.321 2150.36 716.209 2150.36 737.079C2150.36 757.948 2141.4 772.855 2129.46 787.762ZM2111.55 704.283C2102.59 695.339 2090.65 689.377 2078.71 689.377C2066.76 689.377 2054.82 695.339 2045.87 704.283C2036.91 713.228 2030.94 725.153 2030.94 737.079C2030.94 749.004 2036.91 760.93 2045.87 769.874C2054.82 778.818 2066.76 784.781 2078.71 784.781C2090.65 784.781 2102.59 778.818 2111.55 769.874C2120.5 760.93 2126.47 749.004 2126.47 737.079C2126.47 725.153 2120.5 713.228 2111.55 704.283Z" fill="white"/>
<path d="M2275.75 805.655H2248.88L2195.14 671.492H2222.01L2260.83 772.859L2302.62 671.492H2329.49L2275.75 805.655Z" fill="white"/>
<path d="M2398.14 775.841L2386.2 805.655H2359.33L2419.04 671.492H2442.93L2502.64 805.655H2478.75L2466.81 775.841H2398.14ZM2454.87 754.971L2430.98 701.306L2407.1 754.971H2454.87Z" fill="white"/>
<path d="M2619.08 784.774C2628.04 784.774 2634.01 784.774 2639.98 781.793C2645.95 778.811 2651.92 775.83 2657.89 769.867L2672.82 784.774C2660.88 799.681 2642.96 808.625 2625.05 808.625L2622.07 814.588C2631.02 814.588 2634.01 820.551 2634.01 829.495C2634.01 835.458 2631.02 838.439 2628.04 841.42C2625.05 844.402 2619.08 847.383 2613.11 847.383C2607.14 847.383 2601.17 847.383 2598.18 844.402L2604.15 832.476C2607.14 832.476 2610.12 835.458 2610.12 835.458C2610.12 835.458 2613.11 835.458 2616.09 832.476C2616.09 832.476 2619.08 829.495 2619.08 826.514C2619.08 823.532 2619.08 823.532 2616.09 820.551C2616.09 817.569 2613.11 817.569 2610.12 817.569C2607.14 817.569 2607.14 817.569 2604.15 817.569L2610.12 805.644C2592.21 802.662 2577.28 796.7 2568.33 784.774C2556.38 772.849 2550.41 754.96 2550.41 737.072C2550.41 719.184 2556.38 701.295 2571.31 689.37C2586.24 677.444 2601.17 668.5 2622.07 668.5C2642.96 668.5 2660.88 677.444 2672.82 692.351L2657.89 707.258C2651.92 701.295 2645.95 698.314 2639.98 695.332C2634.01 692.351 2628.04 692.351 2619.08 692.351C2604.15 692.351 2595.2 695.333 2586.24 704.277C2577.28 713.221 2571.31 725.146 2571.31 737.072C2571.31 751.979 2577.28 760.923 2586.24 769.867C2595.2 778.811 2607.14 784.774 2619.08 784.774Z" fill="white"/>
<path d="M2798.2 671.488L2857.91 805.65H2834.03L2819.1 775.836H2756.41L2744.46 805.65H2717.59L2777.3 671.488H2798.2ZM2801.19 662.543C2798.2 662.543 2792.23 662.543 2786.26 656.581C2780.29 653.599 2777.3 653.599 2774.32 653.599C2771.33 653.599 2768.35 656.581 2768.35 662.543H2753.42C2753.42 656.581 2756.41 650.618 2756.41 644.655C2759.39 638.692 2762.38 638.692 2768.35 638.692C2771.33 638.692 2777.3 638.692 2783.27 641.674C2789.25 644.655 2792.23 644.655 2795.22 644.655C2798.2 644.655 2801.19 641.674 2801.19 635.711H2816.11C2819.1 653.599 2813.13 662.543 2801.19 662.543ZM2810.14 754.966L2786.26 704.283L2762.38 754.966H2810.14Z" fill="white"/>
<path d="M3025.09 787.762C3010.17 799.688 2995.24 808.632 2974.34 808.632C2953.44 808.632 2938.51 802.669 2923.59 787.762C2908.66 775.837 2902.69 757.948 2902.69 737.079C2902.69 716.209 2908.66 701.302 2923.59 686.395C2938.51 674.47 2953.44 665.525 2974.34 665.525C2995.24 665.525 3010.17 671.488 3025.09 686.395C3040.02 698.321 3045.99 716.209 3045.99 737.079C3045.99 757.948 3040.02 772.855 3025.09 787.762ZM3010.17 704.283C3001.21 695.339 2989.27 689.377 2977.32 689.377C2965.38 689.377 2953.44 695.339 2944.48 704.283C2935.53 713.228 2929.56 725.153 2929.56 737.079C2929.56 749.004 2935.53 760.93 2944.48 769.874C2953.44 778.818 2965.38 784.781 2977.32 784.781C2989.27 784.781 3001.21 778.818 3010.17 769.874C3019.12 760.93 3025.09 749.004 3025.09 737.079C3025.09 725.153 3019.12 713.228 3010.17 704.283Z" fill="white"/>
<path d="M1347.25 6.64453C1329.34 6.64453 1314.41 21.5515 1314.41 39.4398V295.839C1314.41 409.132 1260.68 459.815 1168.13 459.815C1075.58 459.815 1021.84 409.132 1021.84 295.839V39.4398C1021.84 21.5515 1006.91 6.64453 988.996 6.64453H980.04C962.127 6.64453 947.199 21.5515 947.199 39.4398V298.82C947.199 447.89 1030.79 525.406 1165.14 525.406C1302.47 525.406 1383.08 447.89 1383.08 298.82V39.4398C1383.08 21.5515 1368.15 6.64453 1350.24 6.64453H1347.25Z" fill="white"/>
<path d="M1496.54 266.019C1496.54 418.07 1612.98 528.381 1771.21 528.381C1836.89 528.381 1902.57 510.493 1953.32 474.716C1962.28 468.754 1965.26 459.809 1965.26 447.884V292.852C1965.26 274.963 1950.34 260.056 1932.42 260.056H1926.45C1908.54 260.056 1893.61 274.963 1893.61 292.852V409.126C1893.61 421.051 1887.64 432.977 1875.7 435.958C1842.86 453.847 1810.02 459.809 1771.21 459.809C1651.79 459.809 1565.21 376.331 1565.21 263.038C1565.21 149.745 1651.79 66.2663 1771.21 66.2663C1818.98 66.2663 1860.77 78.1918 1899.58 108.006C1911.53 116.95 1929.44 116.95 1941.38 105.024L1944.37 102.043C1956.31 90.1174 1956.31 66.2663 1941.38 54.3407C1899.58 21.5455 1839.87 0.675781 1771.21 0.675781C1612.98 0.675781 1496.54 113.968 1496.54 266.019Z" fill="white"/>
<path d="M2496.66 6.64453C2478.75 6.64453 2463.82 21.5515 2463.82 39.4398V295.839C2463.82 409.132 2410.09 459.815 2317.54 459.815C2224.99 459.815 2171.25 409.132 2171.25 295.839V39.4398C2171.25 21.5515 2156.32 6.64453 2138.41 6.64453H2129.45C2111.54 6.64453 2096.61 21.5515 2096.61 39.4398V298.82C2096.61 447.89 2180.2 525.406 2314.55 525.406C2451.88 525.406 2532.49 447.89 2532.49 298.82V39.4398C2532.49 21.5515 2517.56 6.64453 2499.65 6.64453H2496.66Z" fill="white"/>
<path d="M0.804688 185.529C0.804688 209.38 18.7176 227.268 39.616 227.268C60.5144 227.268 78.4273 209.38 78.4273 188.51C78.4273 167.64 60.5144 149.752 39.616 149.752C18.7176 146.771 0.804688 164.659 0.804688 185.529Z" fill="white"/>
<path d="M2959.43 266.017C2959.43 286.886 2977.35 304.775 2998.24 304.775C3019.14 304.775 3037.06 286.886 3037.06 266.017C3037.06 245.147 3019.14 227.259 2998.24 227.259C2977.35 224.277 2959.43 242.166 2959.43 266.017Z" fill="white"/>
<path d="M1729.41 266.017C1729.41 286.886 1747.32 304.775 1768.22 304.775C1789.12 304.775 1807.03 286.886 1807.03 266.017C1807.03 245.147 1789.12 227.259 1768.22 227.259C1747.32 224.277 1729.41 242.166 1729.41 266.017Z" fill="white"/>
<path d="M2708.64 3.65039C2687.74 3.65039 2672.81 21.5387 2672.81 39.427C2672.81 57.3154 2690.73 75.2037 2708.64 75.2037H3007.19C3028.09 75.2037 3043.01 57.3154 3043.01 39.427C3043.01 21.5387 3025.1 3.65039 3007.19 3.65039H2708.64Z" fill="white"/>
<path d="M2708.64 453.852C2687.74 453.852 2672.81 471.74 2672.81 489.628C2672.81 507.517 2690.73 525.405 2708.64 525.405H3007.19C3028.09 525.405 3043.01 507.517 3043.01 489.628C3043.01 471.74 3025.1 453.852 3007.19 453.852H2708.64Z" fill="white"/>
<path d="M511.316 36.4524V486.642C511.316 507.512 529.229 522.418 547.142 522.418H845.691C866.589 522.418 881.517 504.53 881.517 486.642C881.517 465.772 866.589 450.865 845.691 450.865H582.968V33.471C585.954 18.5641 568.041 0.675781 550.128 0.675781C532.215 0.675781 511.316 18.5641 511.316 36.4524Z" fill="white"/>
<path d="M2708.64 227.256C2687.74 227.256 2672.81 245.144 2672.81 263.033C2672.81 280.921 2690.73 298.809 2708.64 298.809H2860.9C2881.8 298.809 2896.72 280.921 2896.72 263.033C2896.72 245.144 2878.81 227.256 2860.9 227.256H2708.64Z" fill="white"/>
<path d="M6.78906 340.562V489.631C6.78906 510.501 24.702 525.408 42.6149 525.408C60.5278 525.408 78.4407 507.519 78.4407 489.631V340.562C78.4407 319.692 60.5278 304.785 42.6149 304.785C24.702 304.785 6.78906 319.692 6.78906 340.562Z" fill="white"/>
<path d="M39.6294 6.64453C21.7165 6.64453 6.78906 21.5515 6.78906 39.4398C6.78906 57.3281 21.7165 72.235 39.6294 72.235H236.671C299.367 72.235 350.12 122.919 350.12 185.528C350.12 248.137 299.367 298.82 236.671 298.82H39.6294C21.7165 298.82 6.78906 313.727 6.78906 331.616C6.78906 349.504 21.7165 364.411 39.6294 364.411H236.671C335.192 364.411 415.801 283.914 415.801 185.528C415.801 87.142 335.192 6.64453 236.671 6.64453H39.6294Z" fill="white"/>
</g>
<defs>
<clipPath id="clip0_29_1735">
<rect width="3045.2" height="843.732" fill="white" transform="translate(0.804688 0.675781)"/>
</clipPath>
</defs>
</svg>
