<svg width="1199" height="1074" viewBox="0 0 1199 1074" fill="none" xmlns="http://www.w3.org/2000/svg">
<g clip-path="url(#clip0_91_215)">
<path d="M1055.6 2.55157L32.1502 350.591C5.10312 359.776 -7.65491 390.396 4.84796 416.167L264.091 953.791C268.939 963.997 277.615 971.907 288.076 975.99L540.941 1073.46C548.34 1076.27 553.954 1066.57 547.575 1061.72L425.608 965.783C412.084 955.321 416.167 933.888 432.497 928.785L982.624 759.868C999.975 754.51 1012.73 739.711 1015.54 721.849L1117.6 54.6043C1122.96 19.3922 1089.28 -8.93065 1055.6 2.55157Z" fill="#007AB6"/>
<path d="M677.451 823.914H474.343C452.144 823.914 434.283 805.797 434.283 783.854V749.407C434.283 727.463 423.566 707.305 405.195 695.313C315.123 636.116 262.305 536.348 264.601 428.67C266.132 347.784 298.793 271.746 356.714 214.335C414.636 156.924 490.929 124.518 571.815 123.498C655.763 122.222 735.117 154.117 794.825 213.314C854.533 272.256 887.704 351.101 887.704 435.049C887.704 540.175 835.396 637.391 747.62 695.313C728.994 707.561 718.022 727.973 718.022 749.917V784.364C717.511 806.053 699.65 823.914 677.451 823.914ZM575.897 145.697C574.366 145.697 573.09 145.697 571.815 145.697C417.698 147.738 289.862 274.808 287.055 428.925C285.014 528.948 334.005 621.571 417.698 676.431C442.193 692.506 456.992 719.808 456.992 749.407V783.854C456.992 793.55 464.902 801.46 474.598 801.46H677.706C687.402 801.46 695.312 793.55 695.312 783.854V749.407C695.312 719.808 710.112 692.506 734.862 676.176C816.259 622.337 864.994 532.265 864.994 434.794C864.994 356.715 834.375 283.739 779.005 228.879C724.146 175.04 652.445 145.697 575.897 145.697Z" fill="#BBCF07"/>
<path d="M575.898 950.729C507.26 950.729 448.318 899.441 439.132 831.569C438.111 823.914 440.408 816.259 445.511 810.645C450.614 805.032 457.759 801.715 465.158 801.715H686.383C694.037 801.715 701.182 805.032 706.03 810.645C711.133 816.514 713.43 824.169 712.409 831.569C703.223 899.441 644.536 950.729 575.898 950.729ZM465.158 823.914C463.627 823.914 462.862 824.679 462.352 825.19C461.841 825.7 461.076 826.721 461.331 828.252C468.986 885.152 518.232 928.019 575.643 928.019C633.054 928.019 682.3 885.152 690.21 828.252C690.465 826.721 689.7 825.7 689.189 825.19C688.679 824.679 687.658 823.914 686.383 823.914H465.158Z" fill="#BBCF07"/>
<path d="M698.375 678.983C696.589 678.983 694.803 678.217 693.782 676.686C691.996 674.135 692.506 670.562 695.058 668.776C809.115 588.145 827.741 489.653 827.997 488.633C828.507 485.571 831.314 483.529 834.376 484.04C837.438 484.55 839.479 487.612 838.968 490.674C838.203 494.757 819.321 594.78 701.437 677.962C700.671 678.727 699.396 678.983 698.375 678.983Z" fill="#BBCF07"/>
<path d="M836.928 474.344C836.417 474.344 836.162 474.344 835.652 474.089C832.59 473.323 830.804 470.261 831.569 467.454C833.1 460.82 836.673 441.428 833.866 431.732C833.1 428.67 834.631 425.608 837.693 424.843C840.755 424.077 843.817 425.608 844.583 428.67C848.665 442.704 843.052 467.199 842.286 470.006C841.776 472.558 839.479 474.344 836.928 474.344Z" fill="#BBCF07"/>
<path d="M239.085 342.681C238.574 342.681 238.064 342.681 237.554 342.426C234.492 341.405 232.961 338.343 233.726 335.536C241.381 309.765 252.098 284.249 266.132 260.009C267.663 257.202 270.98 256.436 273.787 257.967C276.338 259.498 277.359 262.816 275.828 265.622C262.304 289.352 251.843 313.848 244.443 338.853C243.933 341.15 241.636 342.681 239.085 342.681Z" fill="#BBCF07"/>
<path d="M283.994 247.251C282.973 247.251 281.953 246.996 280.932 246.23C278.381 244.444 277.615 241.127 279.401 238.32C294.711 215.1 306.959 202.087 307.469 201.577C309.51 199.28 313.082 199.28 315.379 201.322C317.675 203.363 317.675 206.935 315.634 209.232C315.634 209.232 303.386 221.99 288.842 244.444C287.566 246.23 285.78 247.251 283.994 247.251Z" fill="#BBCF07"/>
<path d="M190.604 770.585C188.563 770.585 186.522 769.309 185.501 767.268L156.668 706.285C155.392 703.478 156.413 700.161 159.22 698.885C162.026 697.609 165.344 698.63 166.619 701.437L195.452 762.42C196.728 765.227 195.452 768.544 192.646 769.82C192.135 770.33 191.37 770.585 190.604 770.585Z" fill="white"/>
<path d="M145.441 675.155C143.4 675.155 141.359 673.879 140.338 671.838L128.09 645.812C126.815 643.005 128.09 639.688 130.642 638.412C133.449 637.136 136.766 638.412 138.042 641.219L150.289 667.245C151.565 670.052 150.544 673.369 147.483 674.645C146.972 674.9 146.207 675.155 145.441 675.155Z" fill="white"/>
<path d="M125.029 632.033C122.987 632.033 120.946 630.757 119.925 628.716L20.4126 418.463C15.8197 409.023 15.5646 398.306 19.392 388.61C23.2194 378.914 30.6191 371.259 40.5703 367.431L133.194 330.178C136 328.902 139.317 330.433 140.593 333.24C141.869 336.047 140.338 339.364 137.531 340.639L44.6529 377.638C37.7636 380.445 32.6603 385.803 29.8536 392.692C27.0468 399.582 27.302 406.981 30.6191 413.615L130.132 624.123C131.408 626.93 130.387 630.247 127.325 631.523C126.559 631.778 125.794 632.033 125.029 632.033Z" fill="white"/>
<path d="M1060.7 681.279C1060.45 681.279 1060.19 681.279 1059.68 681.279C1056.36 680.769 1054.07 677.707 1054.58 674.39L1058.15 650.66C1058.66 647.343 1061.72 645.046 1065.04 645.557C1068.36 646.067 1070.65 649.129 1070.14 652.446L1066.57 676.176C1066.32 678.983 1063.76 681.279 1060.7 681.279ZM1068.87 627.695C1068.61 627.695 1068.36 627.695 1067.85 627.695C1064.53 627.185 1062.23 624.123 1062.74 620.806L1068.1 584.828C1068.61 581.511 1071.67 579.215 1074.99 579.725C1078.31 580.235 1080.61 583.297 1080.09 586.614L1074.74 622.592C1074.23 625.399 1071.67 627.695 1068.87 627.695ZM1078.56 561.609C1078.31 561.609 1078.05 561.609 1077.54 561.609C1074.23 561.098 1071.93 558.036 1072.44 554.719L1077.8 518.742C1078.31 515.425 1081.37 513.128 1084.69 513.638C1088 514.149 1090.3 517.211 1089.79 520.528L1084.43 556.505C1084.18 559.567 1081.63 561.609 1078.56 561.609ZM1088.52 495.777C1088.26 495.777 1088 495.777 1087.49 495.777C1084.18 495.267 1081.88 492.205 1082.39 488.888L1087.75 452.91C1088.26 449.593 1091.32 447.297 1094.64 447.807C1097.96 448.317 1100.25 451.379 1099.74 454.696L1094.38 490.674C1094.13 493.481 1091.32 495.777 1088.52 495.777ZM1098.21 429.691C1097.96 429.691 1097.7 429.691 1097.45 429.691C1094.13 429.18 1091.83 426.118 1092.34 422.801L1097.7 386.824C1098.21 383.507 1101.27 381.21 1104.59 381.72C1107.91 382.231 1110.2 385.293 1109.69 388.61L1104.34 424.587C1103.82 427.394 1101.27 429.691 1098.21 429.691ZM1108.16 363.604C1107.91 363.604 1107.65 363.604 1107.14 363.604C1103.82 363.094 1101.53 360.032 1102.04 356.715L1107.4 320.737C1107.91 317.42 1110.97 315.123 1114.29 315.634C1117.6 316.144 1119.9 319.206 1119.39 322.523L1114.03 358.501C1113.78 361.563 1111.22 363.604 1108.16 363.604ZM1118.11 297.773C1117.86 297.773 1117.6 297.773 1117.09 297.773C1113.78 297.262 1111.48 294.2 1111.99 290.883L1117.35 254.906C1117.86 251.588 1120.92 249.292 1124.24 249.802C1127.55 250.313 1129.85 253.375 1129.34 256.692L1123.98 292.669C1123.47 295.476 1120.92 297.773 1118.11 297.773Z" fill="#007AB6"/>
<path d="M203.873 875.967C181.93 875.967 164.068 858.105 164.068 836.162C164.068 814.218 181.93 796.357 203.873 796.357C225.817 796.357 243.678 814.218 243.678 836.162C243.678 858.105 225.817 875.967 203.873 875.967ZM203.873 812.942C191.115 812.942 180.654 823.404 180.654 836.162C180.654 848.92 191.115 859.381 203.873 859.381C216.631 859.381 227.093 848.92 227.093 836.162C227.093 823.404 216.631 812.942 203.873 812.942Z" fill="#BBCF07"/>
<path d="M826.466 193.667C824.425 193.667 822.128 192.901 820.597 191.37C817.28 188.053 817.28 182.95 820.597 179.633L849.175 151.055C853.513 146.717 860.657 146.717 865.25 151.055L887.194 172.744L912.455 147.483C916.793 143.145 924.192 143.145 928.53 147.483L953.791 172.744L979.817 146.462C984.155 142.124 991.555 142.124 995.893 146.462L1021.15 171.723L1045.65 147.228C1048.97 143.911 1054.07 143.911 1057.39 147.228C1060.7 150.545 1060.7 155.648 1057.39 158.965L1029.06 187.288C1024.73 191.626 1017.33 191.626 1012.99 187.288L987.727 162.027L961.191 188.564C956.853 192.901 949.708 192.901 945.116 188.564L919.855 163.303L894.594 188.564C890.256 192.901 883.112 192.901 878.519 188.564L856.83 166.62L832.079 191.37C830.548 192.901 828.507 193.667 826.466 193.667Z" fill="white"/>
<path d="M107.422 194.943C102.829 194.943 99.002 191.115 99.002 186.522V152.076C99.002 147.483 102.829 143.655 107.422 143.655C112.015 143.655 115.843 147.483 115.843 152.076V186.778C115.587 191.37 112.015 194.943 107.422 194.943Z" fill="#007AB6"/>
<path d="M107.422 256.947C102.829 256.947 99.002 253.119 99.002 248.526V214.08C99.002 209.487 102.829 205.659 107.422 205.659C112.015 205.659 115.843 209.487 115.843 214.08V248.782C115.587 253.375 112.015 256.947 107.422 256.947Z" fill="#007AB6"/>
<path d="M155.648 208.721H120.946C116.353 208.721 112.525 204.894 112.525 200.301C112.525 195.708 116.353 191.881 120.946 191.881H155.648C160.24 191.881 164.068 195.708 164.068 200.301C164.068 204.894 160.24 208.721 155.648 208.721Z" fill="#007AB6"/>
<path d="M93.6436 208.721H58.9418C54.3489 208.721 50.5215 204.894 50.5215 200.301C50.5215 195.708 54.3489 191.881 58.9418 191.881H93.6436C98.2365 191.881 102.064 195.708 102.064 200.301C102.064 204.894 98.2365 208.721 93.6436 208.721Z" fill="#007AB6"/>
<path d="M205.404 501.391C192.136 498.329 181.164 493.991 172.488 488.633L190.86 446.786C199.025 451.379 207.956 455.207 218.162 458.013C228.113 460.82 237.809 462.351 246.995 462.351C254.905 462.351 260.519 461.586 264.091 460.055C267.408 458.524 269.194 456.227 269.194 453.165C269.194 449.593 266.898 447.041 262.56 445.255C258.222 443.469 250.823 441.428 240.616 439.387C227.603 436.58 216.631 433.773 207.7 430.456C199.025 427.394 191.37 422.036 184.736 414.891C178.357 407.747 175.04 397.795 175.04 385.548C175.04 374.831 178.102 365.135 183.971 356.459C189.839 347.784 199.025 340.895 210.762 335.791C222.755 330.688 237.044 328.137 254.14 328.137C265.877 328.137 277.359 329.412 288.586 331.964C299.813 334.516 309.765 338.088 318.44 342.936L301.089 384.527C284.504 376.107 268.684 371.769 253.629 371.769C238.83 371.769 231.43 375.341 231.43 382.486C231.43 385.803 233.727 388.354 238.065 390.141C242.402 391.927 249.547 393.713 259.753 395.499C272.766 398.051 283.738 400.602 292.669 403.919C301.6 406.981 309.254 412.34 315.889 419.229C322.523 426.373 325.84 436.07 325.84 448.317C325.84 459.034 322.778 468.73 316.909 477.406C310.785 486.081 301.855 492.97 290.117 498.074C278.38 503.177 263.836 505.728 246.74 505.728C232.451 506.239 218.672 504.708 205.404 501.391Z" fill="white"/>
<path d="M458.778 472.813H394.223L382.74 502.411H324.309L398.816 332.219H455.206L529.713 502.411H470.516L458.778 472.813ZM442.958 431.477L426.373 388.61L409.787 431.477H442.958Z" fill="white"/>
<path d="M698.12 429.691C703.733 436.835 706.285 445.511 706.285 455.462C706.285 470.261 700.161 481.999 687.914 490.164C675.666 498.329 657.805 502.411 634.33 502.411H538.645V332.219H629.482C652.191 332.219 669.287 336.302 680.769 344.467C692.251 352.632 698.12 363.349 698.12 376.872C698.12 384.782 696.079 391.927 692.251 398.306C688.169 404.685 682.3 409.788 674.645 413.615C684.852 417.188 692.506 422.546 698.12 429.691ZM595.035 372.279V397.54H621.827C634.33 397.54 640.454 393.203 640.454 384.782C640.454 376.362 634.33 372.024 621.827 372.024H595.035V372.279ZM648.619 448.828C648.619 439.897 642.24 435.559 629.737 435.559H595.29V462.351H629.737C642.24 462.351 648.619 457.758 648.619 448.828Z" fill="white"/>
<path d="M868.056 459.034V502.411H726.697V332.219H864.994V375.596H783.088V395.499H854.788V436.835H782.833V459.289H868.056V459.034Z" fill="white"/>
<path d="M217.141 596.31H170.191V554.464H318.185V596.31H271.235V714.705H217.141V596.31Z" fill="white"/>
<path d="M349.059 698.63C335.28 685.361 328.391 666.735 328.391 642.75V554.464H382.485V641.219C382.485 652.956 384.526 661.632 388.864 666.99C392.946 672.348 399.07 674.9 406.98 674.9C414.89 674.9 421.014 672.348 425.097 666.99C429.179 661.632 431.476 653.211 431.476 641.219V554.464H484.804V642.75C484.804 666.735 477.915 685.361 464.136 698.63C450.357 711.898 431.22 718.532 406.725 718.532C381.974 718.532 362.837 711.898 349.059 698.63Z" fill="white"/>
<path d="M509.555 554.464H588.654C606.516 554.464 622.336 557.781 636.114 564.16C649.893 570.539 660.355 579.98 668.009 591.973C675.664 603.965 679.237 618.254 679.237 634.585C679.237 650.915 675.409 665.204 668.009 677.196C660.355 689.189 649.893 698.63 636.114 705.009C622.336 711.388 606.771 714.705 588.654 714.705H509.555V554.464ZM586.358 672.604C598.095 672.604 607.281 669.286 614.171 662.652C621.06 656.018 624.632 646.577 624.632 634.585C624.632 622.592 621.06 613.151 614.171 606.517C607.281 599.883 597.84 596.566 586.358 596.566H563.649V672.604H586.358Z" fill="white"/>
<path d="M736.649 707.816C722.87 700.671 712.153 690.72 704.243 677.962C696.333 665.204 692.506 650.915 692.506 634.84C692.506 618.765 696.333 604.476 704.243 591.718C712.153 578.96 722.87 569.008 736.649 561.864C750.427 554.719 765.992 551.147 783.088 551.147C800.439 551.147 815.748 554.719 829.527 561.864C843.306 569.008 854.023 578.96 861.933 591.718C869.842 604.476 873.67 618.765 873.67 634.84C873.67 650.915 869.842 665.204 861.933 677.962C854.023 690.72 843.306 700.671 829.527 707.816C815.748 714.96 800.184 718.532 783.088 718.532C765.737 718.532 750.172 714.96 736.649 707.816ZM801.204 669.797C806.563 666.48 810.9 661.887 814.218 655.763C817.535 649.639 819.066 642.75 819.066 634.585C819.066 626.419 817.535 619.53 814.218 613.406C810.9 607.282 806.563 602.689 801.204 599.372C795.846 596.055 789.722 594.524 783.088 594.524C776.454 594.524 770.33 596.055 764.971 599.372C759.613 602.689 755.275 607.282 751.958 613.406C748.641 619.53 747.11 626.419 747.11 634.585C747.11 642.75 748.641 649.639 751.958 655.763C755.275 661.887 759.358 666.48 764.971 669.797C770.33 673.114 776.454 674.645 783.088 674.645C789.722 674.645 795.846 673.114 801.204 669.797Z" fill="white"/>
<path d="M938.226 441.938C948.688 426.118 963.998 408.767 983.645 390.141C996.148 378.148 1005.33 368.197 1011.2 360.542C1017.07 352.887 1019.88 344.977 1019.88 336.302C1019.88 325.33 1015.03 316.654 1005.59 310.275C995.893 303.896 983.9 300.834 969.356 300.834C953.281 300.834 938.226 305.427 923.937 314.868C909.904 324.309 898.677 336.557 890.767 352.377L756.297 285.014C776.455 246.74 806.308 216.631 845.858 195.198C885.408 173.509 934.144 162.792 992.065 162.792C1053.56 162.792 1103.32 175.295 1141.59 200.556C1179.86 225.817 1199 261.285 1199 307.213C1199 328.392 1195.43 346.763 1188.03 362.838C1180.63 378.658 1171.95 392.182 1162 402.899C1151.8 413.615 1139.04 425.608 1123.47 438.876C1107.4 452.91 1095.66 464.392 1088.77 472.813C1081.63 481.488 1078.31 490.929 1078.31 501.646H922.662C922.406 477.661 927.51 457.758 938.226 441.938ZM928.275 684.851C909.648 667.245 900.207 645.812 900.207 620.551C900.207 594.779 909.648 573.601 928.275 556.761C946.902 539.92 970.887 531.5 999.975 531.5C1029.06 531.5 1053.05 539.92 1071.68 556.761C1090.3 573.601 1099.74 595.035 1099.74 620.551C1099.74 645.812 1090.3 667.245 1071.68 684.851C1053.05 702.457 1029.06 711.388 999.975 711.388C970.887 711.388 946.902 702.457 928.275 684.851Z" fill="#BBCF07"/>
</g>
<defs>
<clipPath id="clip0_91_215">
<rect width="1199" height="1073.72" fill="white"/>
</clipPath>
</defs>
</svg>
