<svg width="617" height="196" viewBox="0 0 617 196" fill="none" xmlns="http://www.w3.org/2000/svg">
<path d="M534.917 195.37H0L1.04476 97.5806L0 0H534.917L616.408 97.5806L534.917 195.37Z" fill="#BBCF07"/>
<path d="M110.027 79.0833H95.9851V70.8088H134.223V79.0833H120.182V114.689H110.027V79.0833ZM147.603 85.4145C148.773 83.7847 150.341 82.5519 152.305 81.7161C154.311 80.8803 156.609 80.4624 159.2 80.4624V89.4891C158.114 89.4055 157.382 89.3637 157.006 89.3637C154.206 89.3637 152.012 90.1578 150.424 91.7458C148.836 93.292 148.042 95.6323 148.042 98.7666V114.689H138.263V80.9639H147.603V85.4145ZM197.744 97.9517C197.744 98.077 197.681 98.9546 197.556 100.584H172.043C172.503 102.674 173.589 104.325 175.302 105.537C177.016 106.749 179.147 107.355 181.696 107.355C183.452 107.355 184.998 107.104 186.335 106.602C187.714 106.059 188.989 105.223 190.159 104.095L195.362 109.737C192.186 113.372 187.547 115.19 181.446 115.19C177.643 115.19 174.279 114.459 171.353 112.996C168.428 111.492 166.171 109.423 164.583 106.79C162.995 104.158 162.201 101.17 162.201 97.8263C162.201 94.5249 162.974 91.5577 164.521 88.9249C166.109 86.2504 168.261 84.1817 170.977 82.7191C173.735 81.2146 176.807 80.4624 180.192 80.4624C183.493 80.4624 186.481 81.1728 189.156 82.5937C191.831 84.0146 193.92 86.0623 195.425 88.7369C196.971 91.3697 197.744 94.4413 197.744 97.9517ZM180.255 87.8593C178.04 87.8593 176.18 88.4861 174.676 89.7399C173.171 90.9936 172.252 92.707 171.917 94.8801H188.529C188.195 92.7488 187.275 91.0562 185.771 89.8025C184.267 88.507 182.428 87.8593 180.255 87.8593ZM204.254 80.9639H214.033V114.689H204.254V80.9639ZM209.144 76.2624C207.347 76.2624 205.884 75.7401 204.756 74.6953C203.628 73.6505 203.063 72.355 203.063 70.8088C203.063 69.2626 203.628 67.9671 204.756 66.9223C205.884 65.8775 207.347 65.3552 209.144 65.3552C210.941 65.3552 212.404 65.8566 213.532 66.8596C214.66 67.8626 215.224 69.1163 215.224 70.6207C215.224 72.2506 214.66 73.6088 213.532 74.6953C212.404 75.7401 210.941 76.2624 209.144 76.2624ZM243.607 80.4624C247.786 80.4624 251.15 81.7161 253.7 84.2235C256.291 86.7309 257.586 90.4503 257.586 95.3816V114.689H247.807V96.886C247.807 94.2114 247.222 92.2264 246.052 90.9309C244.882 89.5936 243.189 88.9249 240.974 88.9249C238.509 88.9249 236.545 89.6981 235.082 91.2443C233.619 92.7488 232.888 95.0054 232.888 98.0144V114.689H223.109V80.9639H232.449V84.9131C233.745 83.4922 235.354 82.4056 237.276 81.6534C239.198 80.8594 241.309 80.4624 243.607 80.4624ZM280.053 80.4624C285.277 80.4624 289.289 81.7161 292.089 84.2235C294.889 86.6892 296.289 90.4294 296.289 95.4442V114.689H287.137V110.489C285.298 113.623 281.871 115.19 276.856 115.19C274.265 115.19 272.008 114.751 270.086 113.874C268.205 112.996 266.764 111.784 265.761 110.238C264.758 108.692 264.256 106.937 264.256 104.972C264.256 101.838 265.426 99.3725 267.767 97.5756C270.149 95.7786 273.805 94.8801 278.737 94.8801H286.51C286.51 92.7488 285.862 91.1189 284.566 89.9906C283.271 88.8205 281.328 88.2354 278.737 88.2354C276.94 88.2354 275.164 88.5279 273.408 89.113C271.695 89.6563 270.232 90.4085 269.02 91.3697L265.51 84.5369C267.349 83.2414 269.543 82.2385 272.092 81.528C274.683 80.8176 277.337 80.4624 280.053 80.4624ZM279.301 108.608C280.972 108.608 282.456 108.232 283.751 107.48C285.047 106.686 285.966 105.537 286.51 104.032V100.584H279.802C275.79 100.584 273.784 101.901 273.784 104.534C273.784 105.787 274.265 106.79 275.226 107.543C276.229 108.253 277.587 108.608 279.301 108.608ZM348.329 80.4624C352.55 80.4624 355.893 81.7161 358.359 84.2235C360.867 86.6892 362.12 90.4085 362.12 95.3816V114.689H352.341V96.886C352.341 94.2114 351.777 92.2264 350.649 90.9309C349.562 89.5936 347.995 88.9249 345.947 88.9249C343.649 88.9249 341.831 89.6772 340.494 91.1816C339.156 92.6443 338.488 94.8383 338.488 97.7636V114.689H328.709V96.886C328.709 91.5786 326.578 88.9249 322.315 88.9249C320.058 88.9249 318.261 89.6772 316.924 91.1816C315.587 92.6443 314.918 94.8383 314.918 97.7636V114.689H305.139V80.9639H314.479V84.8504C315.733 83.4295 317.258 82.343 319.055 81.5907C320.894 80.8385 322.9 80.4624 325.073 80.4624C327.455 80.4624 329.607 80.943 331.53 81.9042C333.452 82.8235 334.998 84.1817 336.168 85.9787C337.547 84.2235 339.282 82.8653 341.371 81.9042C343.503 80.943 345.822 80.4624 348.329 80.4624ZM404.288 97.9517C404.288 98.077 404.225 98.9546 404.1 100.584H378.587C379.047 102.674 380.133 104.325 381.847 105.537C383.56 106.749 385.691 107.355 388.241 107.355C389.996 107.355 391.542 107.104 392.879 106.602C394.258 106.059 395.533 105.223 396.703 104.095L401.906 109.737C398.73 113.372 394.091 115.19 387.99 115.19C384.187 115.19 380.823 114.459 377.897 112.996C374.972 111.492 372.715 109.423 371.127 106.79C369.539 104.158 368.745 101.17 368.745 97.8263C368.745 94.5249 369.518 91.5577 371.065 88.9249C372.653 86.2504 374.805 84.1817 377.521 82.7191C380.279 81.2146 383.351 80.4624 386.736 80.4624C390.038 80.4624 393.026 81.1728 395.7 82.5937C398.375 84.0146 400.464 86.0623 401.969 88.7369C403.515 91.3697 404.288 94.4413 404.288 97.9517ZM386.799 87.8593C384.584 87.8593 382.724 88.4861 381.22 89.7399C379.715 90.9936 378.796 92.707 378.462 94.8801H395.073C394.739 92.7488 393.82 91.0562 392.315 89.8025C390.811 88.507 388.972 87.8593 386.799 87.8593ZM431.297 80.4624C435.476 80.4624 438.84 81.7161 441.389 84.2235C443.98 86.7309 445.276 90.4503 445.276 95.3816V114.689H435.497V96.886C435.497 94.2114 434.912 92.2264 433.741 90.9309C432.571 89.5936 430.879 88.9249 428.664 88.9249C426.198 88.9249 424.234 89.6981 422.771 91.2443C421.309 92.7488 420.578 95.0054 420.578 98.0144V114.689H410.799V80.9639H420.139V84.9131C421.434 83.4922 423.043 82.4056 424.965 81.6534C426.888 80.8594 428.998 80.4624 431.297 80.4624ZM475.892 113.059C474.93 113.769 473.739 114.313 472.319 114.689C470.94 115.023 469.477 115.19 467.931 115.19C463.919 115.19 460.805 114.166 458.59 112.119C456.417 110.071 455.331 107.062 455.331 103.092V89.2384H450.128V81.7161H455.331V73.5043H465.11V81.7161H473.51V89.2384H465.11V102.967C465.11 104.387 465.465 105.495 466.175 106.289C466.928 107.041 467.972 107.417 469.31 107.417C470.856 107.417 472.172 106.999 473.259 106.163L475.892 113.059ZM496.388 115.19C492.836 115.19 489.639 114.459 486.797 112.996C483.997 111.492 481.803 109.423 480.215 106.79C478.627 104.158 477.833 101.17 477.833 97.8263C477.833 94.4831 478.627 91.495 480.215 88.8623C481.803 86.2295 483.997 84.1817 486.797 82.7191C489.639 81.2146 492.836 80.4624 496.388 80.4624C499.94 80.4624 503.116 81.2146 505.916 82.7191C508.716 84.1817 510.91 86.2295 512.498 88.8623C514.086 91.495 514.88 94.4831 514.88 97.8263C514.88 101.17 514.086 104.158 512.498 106.79C510.91 109.423 508.716 111.492 505.916 112.996C503.116 114.459 499.94 115.19 496.388 115.19ZM496.388 107.166C498.895 107.166 500.943 106.331 502.531 104.659C504.161 102.946 504.976 100.668 504.976 97.8263C504.976 94.9845 504.161 92.7279 502.531 91.0563C500.943 89.3428 498.895 88.4861 496.388 88.4861C493.88 88.4861 491.812 89.3428 490.182 91.0563C488.552 92.7279 487.737 94.9845 487.737 97.8263C487.737 100.668 488.552 102.946 490.182 104.659C491.812 106.331 493.88 107.166 496.388 107.166Z" fill="#2C2C2C"/>
</svg>
