<svg width="618" height="196" viewBox="0 0 618 196" fill="none" xmlns="http://www.w3.org/2000/svg">
<path d="M535.597 195.415H0.679688L82.171 97.8344L0.679688 0.0449219H535.597L617.088 97.8344L535.597 195.415Z" fill="#BBCF07"/>
<path d="M153.042 36.3769C158.642 36.3769 163.03 37.7142 166.206 40.3888C169.382 43.0634 170.971 46.7409 170.971 51.4215C170.971 56.102 169.382 59.7795 166.206 62.4541C163.03 65.0869 158.642 66.4033 153.042 66.4033H141.258V80.2568H136.619V36.3769H153.042ZM152.917 62.3288C157.263 62.3288 160.586 61.3885 162.884 59.5079C165.183 57.5855 166.332 54.8901 166.332 51.4215C166.332 47.8693 165.183 45.1529 162.884 43.2723C160.586 41.35 157.263 40.3888 152.917 40.3888H141.258V62.3288H152.917ZM183.466 53.7408C184.511 51.5259 186.057 49.8543 188.105 48.726C190.194 47.5976 192.764 47.0335 195.815 47.0335V51.3588L194.749 51.2961C191.281 51.2961 188.564 52.3617 186.6 54.4931C184.636 56.6244 183.654 59.6124 183.654 63.4571V80.2568H179.203V47.2842H183.466V53.7408ZM232.278 65.1496H204.696C204.947 68.5764 206.263 71.3555 208.645 73.4868C211.027 75.5763 214.036 76.6211 217.672 76.6211C219.72 76.6211 221.6 76.2659 223.313 75.5554C225.027 74.8032 226.51 73.7166 227.764 72.2958L230.272 75.1793C228.809 76.9345 226.97 78.2718 224.755 79.1912C222.582 80.1106 220.179 80.5703 217.546 80.5703C214.161 80.5703 211.152 79.8598 208.52 78.439C205.929 76.9763 203.902 74.9704 202.439 72.4211C200.977 69.8719 200.245 66.9884 200.245 63.7705C200.245 60.5527 200.935 57.6691 202.314 55.1199C203.735 52.5707 205.657 50.5857 208.081 49.1648C210.547 47.7439 213.305 47.0335 216.355 47.0335C219.406 47.0335 222.143 47.7439 224.567 49.1648C226.991 50.5857 228.893 52.5707 230.272 55.1199C231.651 57.6273 232.34 60.5109 232.34 63.7705L232.278 65.1496ZM216.355 50.8573C213.179 50.8573 210.505 51.8812 208.332 53.9289C206.2 55.9348 204.988 58.5676 204.696 61.8273H228.078C227.785 58.5676 226.552 55.9348 224.379 53.9289C222.248 51.8812 219.573 50.8573 216.355 50.8573ZM258.387 47.0335C261.48 47.0335 264.28 47.7439 266.787 49.1648C269.294 50.5439 271.259 52.508 272.679 55.0572C274.1 57.6064 274.811 60.5109 274.811 63.7705C274.811 67.072 274.1 69.9973 272.679 72.5465C271.259 75.0957 269.294 77.0808 266.787 78.5016C264.321 79.8807 261.521 80.5703 258.387 80.5703C255.712 80.5703 253.289 80.027 251.116 78.9404C248.984 77.8121 247.229 76.1823 245.85 74.051V92.4178H241.399V47.2842H245.662V53.8035C246.999 51.6304 248.754 49.9588 250.927 48.7887C253.142 47.6185 255.629 47.0335 258.387 47.0335ZM258.074 76.6211C260.372 76.6211 262.462 76.0987 264.342 75.0539C266.223 73.9674 267.685 72.442 268.73 70.4779C269.817 68.5137 270.36 66.2779 270.36 63.7705C270.36 61.2631 269.817 59.0482 268.73 57.1258C267.685 55.1617 266.223 53.6364 264.342 52.5498C262.462 51.4633 260.372 50.92 258.074 50.92C255.733 50.92 253.623 51.4633 251.742 52.5498C249.904 53.6364 248.441 55.1617 247.354 57.1258C246.31 59.0482 245.787 61.2631 245.787 63.7705C245.787 66.2779 246.31 68.5137 247.354 70.4779C248.441 72.442 249.904 73.9674 251.742 75.0539C253.623 76.0987 255.733 76.6211 258.074 76.6211ZM295.234 47.0335C299.538 47.0335 302.84 48.12 305.138 50.2931C307.437 52.4244 308.586 55.6005 308.586 59.8213V80.2568H304.323V75.1166C303.32 76.83 301.837 78.1673 299.873 79.1285C297.95 80.0897 295.652 80.5703 292.977 80.5703C289.3 80.5703 286.374 79.6927 284.201 77.9375C282.028 76.1823 280.942 73.8629 280.942 70.9794C280.942 68.1794 281.945 65.9227 283.951 64.2093C285.998 62.4959 289.237 61.6392 293.667 61.6392H304.135V59.6333C304.135 56.7915 303.341 54.6393 301.753 53.1767C300.165 51.6722 297.846 50.92 294.795 50.92C292.706 50.92 290.7 51.2752 288.777 51.9856C286.855 52.6543 285.204 53.5946 283.825 54.8065L281.819 51.4841C283.491 50.0633 285.497 48.9767 287.837 48.2245C290.177 47.4305 292.643 47.0335 295.234 47.0335ZM293.667 77.0599C296.174 77.0599 298.326 76.4957 300.123 75.3674C301.92 74.1972 303.258 72.5256 304.135 70.3525V64.9615H293.792C288.15 64.9615 285.33 66.9257 285.33 70.854C285.33 72.7764 286.061 74.3017 287.524 75.43C288.986 76.5166 291.034 77.0599 293.667 77.0599ZM324.937 53.7408C325.982 51.5259 327.528 49.8543 329.576 48.726C331.665 47.5976 334.235 47.0335 337.286 47.0335V51.3588L336.221 51.2961C332.752 51.2961 330.036 52.3617 328.071 54.4931C326.107 56.6244 325.125 59.6124 325.125 63.4571V80.2568H320.675V47.2842H324.937V53.7408ZM356.818 47.0335C361.122 47.0335 364.423 48.12 366.722 50.2931C369.02 52.4244 370.17 55.6005 370.17 59.8213V80.2568H365.907V75.1166C364.904 76.83 363.421 78.1673 361.456 79.1285C359.534 80.0897 357.236 80.5703 354.561 80.5703C350.883 80.5703 347.958 79.6927 345.785 77.9375C343.612 76.1823 342.525 73.8629 342.525 70.9794C342.525 68.1794 343.528 65.9227 345.534 64.2093C347.582 62.4959 350.821 61.6392 355.251 61.6392H365.719V59.6333C365.719 56.7915 364.925 54.6393 363.337 53.1767C361.749 51.6722 359.43 50.92 356.379 50.92C354.289 50.92 352.283 51.2752 350.361 51.9856C348.439 52.6543 346.788 53.5946 345.409 54.8065L343.403 51.4841C345.075 50.0633 347.08 48.9767 349.421 48.2245C351.761 47.4305 354.227 47.0335 356.818 47.0335ZM355.251 77.0599C357.758 77.0599 359.91 76.4957 361.707 75.3674C363.504 74.1972 364.841 72.5256 365.719 70.3525V64.9615H355.376C349.734 64.9615 346.913 66.9257 346.913 70.854C346.913 72.7764 347.645 74.3017 349.107 75.43C350.57 76.5166 352.618 77.0599 355.251 77.0599ZM396.046 80.5703C392.786 80.5703 389.861 79.8598 387.27 78.439C384.721 77.0181 382.715 75.033 381.252 72.4838C379.79 69.8928 379.058 66.9884 379.058 63.7705C379.058 60.5527 379.79 57.6691 381.252 55.1199C382.715 52.5707 384.721 50.5857 387.27 49.1648C389.861 47.7439 392.786 47.0335 396.046 47.0335C398.888 47.0335 401.416 47.5976 403.631 48.726C405.888 49.8125 407.664 51.4215 408.959 53.5528L405.637 55.8095C404.55 54.1796 403.171 52.9677 401.5 52.1737C399.828 51.3379 398.01 50.92 396.046 50.92C393.664 50.92 391.512 51.4633 389.589 52.5498C387.709 53.5946 386.225 55.099 385.139 57.0632C384.094 59.0273 383.572 61.2631 383.572 63.7705C383.572 66.3197 384.094 68.5764 385.139 70.5406C386.225 72.4629 387.709 73.9674 389.589 75.0539C391.512 76.0987 393.664 76.6211 396.046 76.6211C398.01 76.6211 399.828 76.2241 401.5 75.43C403.171 74.636 404.55 73.4241 405.637 71.7943L408.959 74.051C407.664 76.1823 405.888 77.8121 403.631 78.9404C401.374 80.027 398.846 80.5703 396.046 80.5703ZM393.413 94.0477C391.366 94.0477 389.61 93.5671 388.148 92.6059L389.213 90.2238C390.425 91.0179 391.804 91.4149 393.351 91.4149C394.604 91.4149 395.566 91.1641 396.234 90.6626C396.903 90.1612 397.237 89.4298 397.237 88.4686C397.237 87.5911 396.903 86.8806 396.234 86.3373C395.607 85.8359 394.646 85.5851 393.351 85.5851H391.909L393.413 79.8807H396.109L395.168 83.5165C396.882 83.6836 398.198 84.206 399.118 85.0836C400.037 86.003 400.497 87.1731 400.497 88.594C400.497 90.2656 399.849 91.582 398.554 92.5432C397.258 93.5462 395.545 94.0477 393.413 94.0477ZM429.237 47.0335C433.541 47.0335 436.843 48.12 439.141 50.2931C441.439 52.4244 442.589 55.6005 442.589 59.8213V80.2568H438.326V75.1166C437.323 76.83 435.84 78.1673 433.875 79.1285C431.953 80.0897 429.655 80.5703 426.98 80.5703C423.302 80.5703 420.377 79.6927 418.204 77.9375C416.031 76.1823 414.944 73.8629 414.944 70.9794C414.944 68.1794 415.947 65.9227 417.953 64.2093C420.001 62.4959 423.24 61.6392 427.67 61.6392H438.138V59.6333C438.138 56.7915 437.344 54.6393 435.756 53.1767C434.168 51.6722 431.849 50.92 428.798 50.92C426.708 50.92 424.702 51.2752 422.78 51.9856C420.858 52.6543 419.207 53.5946 417.828 54.8065L415.822 51.4841C417.494 50.0633 419.5 48.9767 421.84 48.2245C424.18 47.4305 426.646 47.0335 429.237 47.0335ZM427.67 77.0599C430.177 77.0599 432.329 76.4957 434.126 75.3674C435.923 74.1972 437.26 72.5256 438.138 70.3525V64.9615H427.795C422.153 64.9615 419.332 66.9257 419.332 70.854C419.332 72.7764 420.064 74.3017 421.526 75.43C422.989 76.5166 425.037 77.0599 427.67 77.0599ZM433.625 41.7679C432.663 41.7679 431.807 41.5589 431.055 41.141C430.302 40.6813 429.487 40.0545 428.61 39.2605C427.858 38.6336 427.252 38.1948 426.792 37.9441C426.374 37.6515 425.914 37.5053 425.413 37.5053C424.452 37.5053 423.679 37.8605 423.093 38.5709C422.508 39.2814 422.195 40.2634 422.153 41.5171H419.458C419.541 39.4276 420.085 37.756 421.088 36.5023C422.091 35.2486 423.428 34.6217 425.099 34.6217C426.061 34.6217 426.896 34.8307 427.607 35.2486C428.359 35.6665 429.216 36.2933 430.177 37.1291C430.846 37.7142 431.41 38.153 431.869 38.4455C432.329 38.7381 432.81 38.8843 433.311 38.8843C434.231 38.8843 434.983 38.55 435.568 37.8814C436.153 37.1709 436.487 36.2098 436.571 34.9978H439.266C439.183 37.0456 438.64 38.6963 437.637 39.95C436.634 41.1619 435.296 41.7679 433.625 41.7679ZM468.277 80.5703C465.101 80.5703 462.238 79.8598 459.689 78.439C457.14 76.9763 455.134 74.9704 453.671 72.4211C452.209 69.8719 451.477 66.9884 451.477 63.7705C451.477 60.5527 452.209 57.6691 453.671 55.1199C455.134 52.5707 457.14 50.5857 459.689 49.1648C462.238 47.7439 465.101 47.0335 468.277 47.0335C471.453 47.0335 474.316 47.7439 476.865 49.1648C479.414 50.5857 481.399 52.5707 482.82 55.1199C484.283 57.6691 485.014 60.5527 485.014 63.7705C485.014 66.9884 484.283 69.8719 482.82 72.4211C481.399 74.9704 479.414 76.9763 476.865 78.439C474.316 79.8598 471.453 80.5703 468.277 80.5703ZM468.277 76.6211C470.617 76.6211 472.707 76.0987 474.546 75.0539C476.426 73.9674 477.889 72.442 478.934 70.4779C479.978 68.5137 480.501 66.2779 480.501 63.7705C480.501 61.2631 479.978 59.0273 478.934 57.0632C477.889 55.099 476.426 53.5946 474.546 52.5498C472.707 51.4633 470.617 50.92 468.277 50.92C465.937 50.92 463.826 51.4633 461.946 52.5498C460.107 53.5946 458.644 55.099 457.558 57.0632C456.513 59.0273 455.991 61.2631 455.991 63.7705C455.991 66.2779 456.513 68.5137 457.558 70.4779C458.644 72.442 460.107 73.9674 461.946 75.0539C463.826 76.0987 465.937 76.6211 468.277 76.6211ZM155.926 157.009C151.371 157.009 147.254 156.027 143.577 154.063C139.941 152.099 137.079 149.403 134.989 145.976C132.941 142.508 131.917 138.621 131.917 134.317C131.917 130.012 132.941 126.147 134.989 122.72C137.079 119.251 139.941 116.535 143.577 114.571C147.254 112.607 151.371 111.625 155.926 111.625C160.481 111.625 164.577 112.607 168.212 114.571C171.848 116.535 174.711 119.251 176.8 122.72C178.89 126.147 179.935 130.012 179.935 134.317C179.935 138.621 178.89 142.508 176.8 145.976C174.711 149.403 171.848 152.099 168.212 154.063C164.577 156.027 160.481 157.009 155.926 157.009ZM155.926 148.358C158.517 148.358 160.857 147.773 162.947 146.603C165.036 145.391 166.666 143.72 167.836 141.588C169.048 139.457 169.654 137.033 169.654 134.317C169.654 131.6 169.048 129.177 167.836 127.045C166.666 124.914 165.036 123.263 162.947 122.093C160.857 120.881 158.517 120.275 155.926 120.275C153.335 120.275 150.995 120.881 148.905 122.093C146.816 123.263 145.165 124.914 143.953 127.045C142.783 129.177 142.198 131.6 142.198 134.317C142.198 137.033 142.783 139.457 143.953 141.588C145.165 143.72 146.816 145.391 148.905 146.603C150.995 147.773 153.335 148.358 155.926 148.358ZM206.811 122.031C209.945 122.031 212.787 122.762 215.336 124.224C217.927 125.645 219.954 127.672 221.417 130.305C222.879 132.896 223.611 135.926 223.611 139.394C223.611 142.863 222.879 145.914 221.417 148.547C219.954 151.138 217.927 153.164 215.336 154.627C212.787 156.048 209.945 156.758 206.811 156.758C202.507 156.758 199.122 155.4 196.656 152.684V168.418H186.877V122.532H196.217V126.418C198.641 123.493 202.172 122.031 206.811 122.031ZM205.119 148.735C207.626 148.735 209.674 147.899 211.262 146.227C212.892 144.514 213.706 142.236 213.706 139.394C213.706 136.553 212.892 134.296 211.262 132.624C209.674 130.911 207.626 130.054 205.119 130.054C202.611 130.054 200.542 130.911 198.913 132.624C197.325 134.296 196.531 136.553 196.531 139.394C196.531 142.236 197.325 144.514 198.913 146.227C200.542 147.899 202.611 148.735 205.119 148.735ZM263.192 139.52C263.192 139.645 263.13 140.523 263.004 142.153H237.491C237.951 144.242 239.037 145.893 240.751 147.105C242.464 148.317 244.596 148.923 247.145 148.923C248.9 148.923 250.446 148.672 251.784 148.17C253.163 147.627 254.437 146.791 255.607 145.663L260.81 151.305C257.634 154.94 252.995 156.758 246.894 156.758C243.091 156.758 239.727 156.027 236.802 154.564C233.876 153.06 231.62 150.991 230.032 148.358C228.444 145.726 227.65 142.738 227.65 139.394C227.65 136.093 228.423 133.126 229.969 130.493C231.557 127.818 233.709 125.75 236.426 124.287C239.184 122.783 242.255 122.031 245.64 122.031C248.942 122.031 251.93 122.741 254.604 124.162C257.279 125.583 259.368 127.63 260.873 130.305C262.419 132.938 263.192 136.009 263.192 139.52ZM245.703 129.427C243.488 129.427 241.628 130.054 240.124 131.308C238.62 132.562 237.7 134.275 237.366 136.448H253.978C253.643 134.317 252.724 132.624 251.219 131.371C249.715 130.075 247.876 129.427 245.703 129.427ZM279.043 126.983C280.213 125.353 281.78 124.12 283.744 123.284C285.75 122.448 288.049 122.031 290.64 122.031V131.057C289.553 130.974 288.822 130.932 288.446 130.932C285.646 130.932 283.452 131.726 281.864 133.314C280.276 134.86 279.482 137.2 279.482 140.335V156.257H269.703V122.532H279.043V126.983ZM309.873 122.031C315.097 122.031 319.109 123.284 321.909 125.792C324.709 128.257 326.109 131.998 326.109 137.012V156.257H316.957V152.057C315.118 155.191 311.691 156.758 306.677 156.758C304.086 156.758 301.829 156.32 299.906 155.442C298.026 154.564 296.584 153.352 295.581 151.806C294.578 150.26 294.077 148.505 294.077 146.541C294.077 143.406 295.247 140.941 297.587 139.144C299.969 137.347 303.626 136.448 308.557 136.448H316.33C316.33 134.317 315.682 132.687 314.387 131.559C313.091 130.389 311.148 129.804 308.557 129.804C306.76 129.804 304.984 130.096 303.229 130.681C301.515 131.224 300.053 131.977 298.841 132.938L295.33 126.105C297.169 124.81 299.363 123.807 301.912 123.096C304.503 122.386 307.157 122.031 309.873 122.031ZM309.121 150.176C310.793 150.176 312.276 149.8 313.572 149.048C314.867 148.254 315.787 147.105 316.33 145.6V142.153H309.623C305.611 142.153 303.605 143.469 303.605 146.102C303.605 147.355 304.086 148.358 305.047 149.111C306.05 149.821 307.408 150.176 309.121 150.176ZM351.625 156.758C348.031 156.758 344.792 156.027 341.909 154.564C339.067 153.06 336.831 150.991 335.201 148.358C333.613 145.726 332.819 142.738 332.819 139.394C332.819 136.051 333.613 133.063 335.201 130.43C336.831 127.798 339.067 125.75 341.909 124.287C344.792 122.783 348.031 122.031 351.625 122.031C355.177 122.031 358.27 122.783 360.902 124.287C363.577 125.75 365.52 127.86 366.732 130.618L359.147 134.693C357.392 131.601 354.864 130.054 351.562 130.054C349.013 130.054 346.903 130.89 345.231 132.562C343.559 134.233 342.724 136.511 342.724 139.394C342.724 142.278 343.559 144.556 345.231 146.227C346.903 147.899 349.013 148.735 351.562 148.735C354.906 148.735 357.434 147.188 359.147 144.096L366.732 148.233C365.52 150.908 363.577 152.997 360.902 154.502C358.27 156.006 355.177 156.758 351.625 156.758ZM372.363 122.532H382.142V156.257H372.363V122.532ZM377.252 117.831C375.455 117.831 373.993 117.308 372.864 116.263C371.736 115.219 371.172 113.923 371.172 112.377C371.172 110.831 371.736 109.535 372.864 108.49C373.993 107.446 375.455 106.923 377.252 106.923C379.049 106.923 380.512 107.425 381.64 108.428C382.768 109.431 383.333 110.684 383.333 112.189C383.333 113.819 382.768 115.177 381.64 116.263C380.512 117.308 379.049 117.831 377.252 117.831ZM407.265 156.758C403.713 156.758 400.516 156.027 397.674 154.564C394.874 153.06 392.68 150.991 391.092 148.358C389.504 145.726 388.71 142.738 388.71 139.394C388.71 136.051 389.504 133.063 391.092 130.43C392.68 127.798 394.874 125.75 397.674 124.287C400.516 122.783 403.713 122.031 407.265 122.031C410.817 122.031 413.993 122.783 416.793 124.287C419.593 125.75 421.787 127.798 423.375 130.43C424.963 133.063 425.757 136.051 425.757 139.394C425.757 142.738 424.963 145.726 423.375 148.358C421.787 150.991 419.593 153.06 416.793 154.564C413.993 156.027 410.817 156.758 407.265 156.758ZM407.265 148.735C409.772 148.735 411.82 147.899 413.408 146.227C415.038 144.514 415.853 142.236 415.853 139.394C415.853 136.553 415.038 134.296 413.408 132.624C411.82 130.911 409.772 130.054 407.265 130.054C404.757 130.054 402.689 130.911 401.059 132.624C399.429 134.296 398.614 136.553 398.614 139.394C398.614 142.236 399.429 144.514 401.059 146.227C402.689 147.899 404.757 148.735 407.265 148.735ZM452.792 122.031C456.971 122.031 460.335 123.284 462.884 125.792C465.475 128.299 466.771 132.018 466.771 136.95V156.257H456.992V138.454C456.992 135.78 456.407 133.794 455.236 132.499C454.066 131.162 452.374 130.493 450.159 130.493C447.693 130.493 445.729 131.266 444.266 132.812C442.804 134.317 442.072 136.574 442.072 139.582V156.257H432.294V122.532H441.634V126.481C442.929 125.06 444.538 123.974 446.46 123.222C448.383 122.428 450.493 122.031 452.792 122.031ZM489.238 122.031C494.461 122.031 498.473 123.284 501.273 125.792C504.073 128.257 505.473 131.998 505.473 137.012V156.257H496.321V152.057C494.482 155.191 491.055 156.758 486.041 156.758C483.45 156.758 481.193 156.32 479.271 155.442C477.39 154.564 475.948 153.352 474.945 151.806C473.942 150.26 473.441 148.505 473.441 146.541C473.441 143.406 474.611 140.941 476.951 139.144C479.333 137.347 482.99 136.448 487.921 136.448H495.694C495.694 134.317 495.046 132.687 493.751 131.559C492.455 130.389 490.512 129.804 487.921 129.804C486.124 129.804 484.348 130.096 482.593 130.681C480.879 131.224 479.417 131.977 478.205 132.938L474.694 126.105C476.533 124.81 478.727 123.807 481.276 123.096C483.867 122.386 486.521 122.031 489.238 122.031ZM488.485 150.176C490.157 150.176 491.64 149.8 492.936 149.048C494.231 148.254 495.151 147.105 495.694 145.6V142.153H488.987C484.975 142.153 482.969 143.469 482.969 146.102C482.969 147.355 483.45 148.358 484.411 149.111C485.414 149.821 486.772 150.176 488.485 150.176ZM514.324 109.744H524.102V156.257H514.324V109.744Z" fill="#2C2C2C"/>
</svg>
