<svg width="617" height="196" viewBox="0 0 617 196" fill="none" xmlns="http://www.w3.org/2000/svg">
<path d="M534.917 195.415H0L81.4913 97.8344L0 0.0449219H534.917L616.408 97.8344L534.917 195.415Z" fill="#BBCF07"/>
<path d="M125.21 113.689L116.747 101.465H116.245H107.407V113.689H97.2517V69.809H116.245C120.132 69.809 123.496 70.4568 126.338 71.7523C129.221 73.0478 131.436 74.8866 132.983 77.2686C134.529 79.6507 135.302 82.4715 135.302 85.7312C135.302 88.9908 134.508 91.8117 132.92 94.1937C131.374 96.534 129.159 98.331 126.275 99.5847L136.117 113.689H125.21ZM125.021 85.7312C125.021 83.2656 124.227 81.385 122.639 80.0895C121.051 78.7522 118.732 78.0835 115.681 78.0835H107.407V93.3788H115.681C118.732 93.3788 121.051 92.7102 122.639 91.3729C124.227 90.0356 125.021 88.155 125.021 85.7312ZM175.693 96.9519C175.693 97.0773 175.631 97.9549 175.505 99.5847H149.992C150.452 101.674 151.539 103.325 153.252 104.537C154.965 105.749 157.097 106.355 159.646 106.355C161.401 106.355 162.947 106.104 164.285 105.603C165.664 105.059 166.938 104.223 168.108 103.095L173.311 108.737C170.135 112.373 165.497 114.19 159.395 114.19C155.592 114.19 152.228 113.459 149.303 111.996C146.377 110.492 144.121 108.423 142.533 105.791C140.945 103.158 140.151 100.17 140.151 96.8265C140.151 93.5251 140.924 90.558 142.47 87.9252C144.058 85.2506 146.21 83.182 148.927 81.7193C151.685 80.2149 154.756 79.4626 158.141 79.4626C161.443 79.4626 164.431 80.1731 167.106 81.5939C169.78 83.0148 171.87 85.0625 173.374 87.7371C174.92 90.3699 175.693 93.4415 175.693 96.9519ZM158.204 86.8595C155.989 86.8595 154.13 87.4864 152.625 88.7401C151.121 89.9938 150.201 91.7072 149.867 93.8803H166.479C166.144 91.749 165.225 90.0565 163.721 88.8028C162.216 87.5073 160.377 86.8595 158.204 86.8595ZM216.43 79.9641V125.85H206.651V110.116C204.227 112.832 200.863 114.19 196.559 114.19C193.383 114.19 190.499 113.48 187.908 112.059C185.359 110.638 183.353 108.611 181.891 105.979C180.428 103.346 179.697 100.295 179.697 96.8265C179.697 93.3579 180.428 90.3072 181.891 87.6744C183.353 85.0416 185.359 83.0148 187.908 81.5939C190.499 80.1731 193.383 79.4626 196.559 79.4626C201.156 79.4626 204.666 80.9253 207.09 83.8506V79.9641H216.43ZM198.251 106.167C200.717 106.167 202.765 105.331 204.395 103.659C206.024 101.946 206.839 99.6683 206.839 96.8265C206.839 93.9848 206.024 91.7281 204.395 90.0565C202.765 88.3431 200.717 87.4864 198.251 87.4864C195.744 87.4864 193.675 88.3431 192.046 90.0565C190.416 91.7281 189.601 93.9848 189.601 96.8265C189.601 99.6683 190.416 101.946 192.046 103.659C193.675 105.331 195.744 106.167 198.251 106.167ZM259.46 79.9641V113.689H250.182V109.677C248.887 111.14 247.34 112.268 245.543 113.062C243.746 113.814 241.803 114.19 239.714 114.19C235.284 114.19 231.773 112.916 229.182 110.367C226.591 107.817 225.296 104.035 225.296 99.0205V79.9641H235.075V97.5788C235.075 103.012 237.352 105.728 241.908 105.728C244.248 105.728 246.128 104.976 247.549 103.471C248.97 101.925 249.681 99.6474 249.681 96.6385V79.9641H259.46ZM282.122 79.4626C287.346 79.4626 291.358 80.7163 294.157 83.2238C296.957 85.6894 298.357 89.4296 298.357 94.4445V113.689H289.205V109.489C287.367 112.623 283.94 114.19 278.925 114.19C276.334 114.19 274.077 113.752 272.155 112.874C270.274 111.996 268.832 110.785 267.83 109.238C266.827 107.692 266.325 105.937 266.325 103.973C266.325 100.838 267.495 98.3728 269.835 96.5758C272.218 94.7788 275.874 93.8803 280.805 93.8803H288.578C288.578 91.749 287.931 90.1192 286.635 88.9908C285.34 87.8207 283.396 87.2356 280.805 87.2356C279.008 87.2356 277.232 87.5282 275.477 88.1132C273.764 88.6565 272.301 89.4087 271.089 90.3699L267.579 83.5372C269.418 82.2417 271.612 81.2387 274.161 80.5283C276.752 79.8178 279.405 79.4626 282.122 79.4626ZM281.37 107.608C283.041 107.608 284.525 107.232 285.82 106.48C287.116 105.686 288.035 104.537 288.578 103.032V99.5847H281.871C277.859 99.5847 275.853 100.901 275.853 103.534C275.853 104.788 276.334 105.791 277.295 106.543C278.298 107.253 279.656 107.608 281.37 107.608ZM307.208 67.1762H316.987V113.689H307.208V67.1762ZM326.062 79.9641H335.841V113.689H326.062V79.9641ZM330.952 75.2627C329.155 75.2627 327.692 74.7403 326.564 73.6956C325.436 72.6508 324.871 71.3553 324.871 69.809C324.871 68.2628 325.436 66.9673 326.564 65.9225C327.692 64.8778 329.155 64.3554 330.952 64.3554C332.749 64.3554 334.212 64.8569 335.34 65.8599C336.468 66.8628 337.032 68.1165 337.032 69.621C337.032 71.2508 336.468 72.609 335.34 73.6956C334.212 74.7403 332.749 75.2627 330.952 75.2627ZM355.636 80.7163H364.287V88.2386H355.887V113.689H346.108V88.2386H340.905V80.7163H346.108V79.2119C346.108 75.3672 347.237 72.3165 349.493 70.0598C351.792 67.8031 355.01 66.6748 359.147 66.6748C360.609 66.6748 361.989 66.8419 363.284 67.1762C364.621 67.4688 365.729 67.9076 366.606 68.4926L364.036 75.5761C362.908 74.7821 361.592 74.3851 360.087 74.3851C357.12 74.3851 355.636 76.0149 355.636 79.2746V80.7163ZM374.191 79.9641H383.97V113.689H374.191V79.9641ZM379.081 75.2627C377.284 75.2627 375.821 74.7403 374.693 73.6956C373.564 72.6508 373 71.3553 373 69.809C373 68.2628 373.564 66.9673 374.693 65.9225C375.821 64.8778 377.284 64.3554 379.081 64.3554C380.878 64.3554 382.34 64.8569 383.469 65.8599C384.597 66.8628 385.161 68.1165 385.161 69.621C385.161 71.2508 384.597 72.609 383.469 73.6956C382.34 74.7403 380.878 75.2627 379.081 75.2627ZM409.331 114.19C405.738 114.19 402.499 113.459 399.615 111.996C396.773 110.492 394.538 108.423 392.908 105.791C391.32 103.158 390.526 100.17 390.526 96.8265C390.526 93.4833 391.32 90.4953 392.908 87.8625C394.538 85.2297 396.773 83.182 399.615 81.7193C402.499 80.2149 405.738 79.4626 409.331 79.4626C412.884 79.4626 415.976 80.2149 418.609 81.7193C421.284 83.182 423.227 85.2924 424.439 88.0506L416.854 92.1251C415.099 89.0326 412.57 87.4864 409.269 87.4864C406.72 87.4864 404.609 88.3222 402.938 89.9938C401.266 91.6654 400.43 93.943 400.43 96.8265C400.43 99.7101 401.266 101.988 402.938 103.659C404.609 105.331 406.72 106.167 409.269 106.167C412.612 106.167 415.14 104.62 416.854 101.528L424.439 105.665C423.227 108.34 421.284 110.429 418.609 111.934C415.976 113.438 412.884 114.19 409.331 114.19ZM443.672 79.4626C448.896 79.4626 452.908 80.7163 455.708 83.2238C458.508 85.6894 459.907 89.4296 459.907 94.4445V113.689H450.755V109.489C448.917 112.623 445.49 114.19 440.475 114.19C437.884 114.19 435.627 113.752 433.705 112.874C431.824 111.996 430.383 110.785 429.38 109.238C428.377 107.692 427.875 105.937 427.875 103.973C427.875 100.838 429.045 98.3728 431.386 96.5758C433.768 94.7788 437.424 93.8803 442.356 93.8803H450.129C450.129 91.749 449.481 90.1192 448.185 88.9908C446.89 87.8207 444.947 87.2356 442.356 87.2356C440.559 87.2356 438.782 87.5282 437.027 88.1132C435.314 88.6565 433.851 89.4087 432.639 90.3699L429.129 83.5372C430.968 82.2417 433.162 81.2387 435.711 80.5283C438.302 79.8178 440.956 79.4626 443.672 79.4626ZM442.92 107.608C444.591 107.608 446.075 107.232 447.37 106.48C448.666 105.686 449.585 104.537 450.129 103.032V99.5847H443.421C439.409 99.5847 437.403 100.901 437.403 103.534C437.403 104.788 437.884 105.791 438.845 106.543C439.848 107.253 441.206 107.608 442.92 107.608ZM485.423 114.19C481.829 114.19 478.591 113.459 475.707 111.996C472.865 110.492 470.63 108.423 469 105.791C467.412 103.158 466.618 100.17 466.618 96.8265C466.618 93.4833 467.412 90.4953 469 87.8625C470.63 85.2297 472.865 83.182 475.707 81.7193C478.591 80.2149 481.829 79.4626 485.423 79.4626C488.976 79.4626 492.068 80.2149 494.701 81.7193C497.376 83.182 499.319 85.2924 500.531 88.0506L492.946 92.1251C491.191 89.0326 488.662 87.4864 485.361 87.4864C482.812 87.4864 480.701 88.3222 479.03 89.9938C477.358 91.6654 476.522 93.943 476.522 96.8265C476.522 99.7101 477.358 101.988 479.03 103.659C480.701 105.331 482.812 106.167 485.361 106.167C488.704 106.167 491.232 104.62 492.946 101.528L500.531 105.665C499.319 108.34 497.376 110.429 494.701 111.934C492.068 113.438 488.976 114.19 485.423 114.19ZM481.85 128.232C480.764 128.232 479.698 128.107 478.653 127.856C477.609 127.647 476.731 127.334 476.021 126.916L477.525 122.716C478.862 123.343 480.221 123.656 481.6 123.656C483.773 123.656 484.859 122.987 484.859 121.65C484.859 120.438 483.835 119.832 481.788 119.832H479.656L481.286 113.187H486.489L485.612 116.823C487.45 117.032 488.808 117.596 489.686 118.516C490.605 119.477 491.065 120.647 491.065 122.026C491.065 123.949 490.229 125.453 488.558 126.54C486.886 127.668 484.65 128.232 481.85 128.232ZM519.764 79.4626C524.988 79.4626 529 80.7163 531.8 83.2238C534.599 85.6894 535.999 89.4296 535.999 94.4445V113.689H526.847V109.489C525.009 112.623 521.582 114.19 516.567 114.19C513.976 114.19 511.719 113.752 509.797 112.874C507.916 111.996 506.475 110.785 505.472 109.238C504.469 107.692 503.967 105.937 503.967 103.973C503.967 100.838 505.137 98.3728 507.478 96.5758C509.86 94.7788 513.516 93.8803 518.448 93.8803H526.221C526.221 91.749 525.573 90.1192 524.277 88.9908C522.982 87.8207 521.039 87.2356 518.448 87.2356C516.651 87.2356 514.874 87.5282 513.119 88.1132C511.406 88.6565 509.943 89.4087 508.731 90.3699L505.221 83.5372C507.06 82.2417 509.254 81.2387 511.803 80.5283C514.394 79.8178 517.048 79.4626 519.764 79.4626ZM519.012 107.608C520.683 107.608 522.167 107.232 523.462 106.48C524.758 105.686 525.677 104.537 526.221 103.032V99.5847H519.513C515.501 99.5847 513.495 100.901 513.495 103.534C513.495 104.788 513.976 105.791 514.937 106.543C515.94 107.253 517.298 107.608 519.012 107.608ZM525.468 75.8269C524.34 75.8269 523.337 75.6179 522.459 75.2C521.624 74.7403 520.683 74.1344 519.639 73.3821C518.97 72.8806 518.406 72.5045 517.946 72.2538C517.528 72.003 517.11 71.8777 516.692 71.8777C515.815 71.8777 515.104 72.1911 514.561 72.818C514.018 73.403 513.725 74.2597 513.683 75.3881H508.731C508.815 72.5881 509.504 70.3732 510.8 68.7434C512.137 67.0718 513.892 66.236 516.065 66.236C517.152 66.236 518.113 66.4658 518.949 66.9255C519.827 67.3434 520.809 67.9494 521.895 68.7434C522.564 69.2449 523.107 69.621 523.525 69.8717C523.985 70.1225 524.424 70.2478 524.841 70.2478C525.677 70.2478 526.367 69.9553 526.91 69.3702C527.495 68.7434 527.809 67.9076 527.85 66.8628H532.803C532.719 69.5792 532.008 71.7523 530.671 73.3821C529.376 75.012 527.641 75.8269 525.468 75.8269ZM561.265 114.19C557.713 114.19 554.516 113.459 551.674 111.996C548.874 110.492 546.68 108.423 545.092 105.791C543.504 103.158 542.71 100.17 542.71 96.8265C542.71 93.4833 543.504 90.4953 545.092 87.8625C546.68 85.2297 548.874 83.182 551.674 81.7193C554.516 80.2149 557.713 79.4626 561.265 79.4626C564.817 79.4626 567.993 80.2149 570.793 81.7193C573.593 83.182 575.787 85.2297 577.375 87.8625C578.963 90.4953 579.757 93.4833 579.757 96.8265C579.757 100.17 578.963 103.158 577.375 105.791C575.787 108.423 573.593 110.492 570.793 111.996C567.993 113.459 564.817 114.19 561.265 114.19ZM561.265 106.167C563.772 106.167 565.82 105.331 567.408 103.659C569.038 101.946 569.853 99.6683 569.853 96.8265C569.853 93.9848 569.038 91.7281 567.408 90.0565C565.82 88.3431 563.772 87.4864 561.265 87.4864C558.757 87.4864 556.689 88.3431 555.059 90.0565C553.429 91.7281 552.614 93.9848 552.614 96.8265C552.614 99.6683 553.429 101.946 555.059 103.659C556.689 105.331 558.757 106.167 561.265 106.167Z" fill="#2C2C2C"/>
</svg>
