<svg width="618" height="196" viewBox="0 0 618 196" fill="none" xmlns="http://www.w3.org/2000/svg">
<path d="M535.741 195.415H0.824219L82.3155 97.8344L0.824219 0.0449219H535.741L617.233 97.8344L535.741 195.415Z" fill="#BBCF07"/>
<path d="M181.71 105.54V113.689H147.734V69.809H180.895V77.9582H157.827V87.4864H178.199V95.3848H157.827V105.54H181.71ZM210.11 113.689L202.713 103.346L195.066 113.689H184.409L197.385 96.7012L184.848 79.9641H195.818L202.964 89.8058L210.298 79.9641H220.704L208.167 96.4504L221.206 113.689H210.11ZM245.887 79.4626C249.021 79.4626 251.863 80.194 254.412 81.6566C257.003 83.0775 259.03 85.1043 260.492 87.7371C261.955 90.3281 262.686 93.3579 262.686 96.8265C262.686 100.295 261.955 103.346 260.492 105.979C259.03 108.57 257.003 110.596 254.412 112.059C251.863 113.48 249.021 114.19 245.887 114.19C241.582 114.19 238.197 112.832 235.732 110.116V125.85H225.953V79.9641H235.293V83.8506C237.717 80.9253 241.248 79.4626 245.887 79.4626ZM244.194 106.167C246.701 106.167 248.749 105.331 250.337 103.659C251.967 101.946 252.782 99.6683 252.782 96.8265C252.782 93.9848 251.967 91.7281 250.337 90.0565C248.749 88.3431 246.701 87.4864 244.194 87.4864C241.687 87.4864 239.618 88.3431 237.988 90.0565C236.4 91.7281 235.606 93.9848 235.606 96.8265C235.606 99.6683 236.4 101.946 237.988 103.659C239.618 105.331 241.687 106.167 244.194 106.167ZM302.268 96.9519C302.268 97.0773 302.205 97.9549 302.08 99.5847H276.567C277.026 101.674 278.113 103.325 279.826 104.537C281.54 105.749 283.671 106.355 286.22 106.355C287.976 106.355 289.522 106.104 290.859 105.603C292.238 105.059 293.513 104.223 294.683 103.095L299.886 108.737C296.71 112.373 292.071 114.19 285.97 114.19C282.167 114.19 278.803 113.459 275.877 111.996C272.952 110.492 270.695 108.423 269.107 105.791C267.519 103.158 266.725 100.17 266.725 96.8265C266.725 93.5251 267.498 90.558 269.044 87.9252C270.633 85.2506 272.785 83.182 275.501 81.7193C278.259 80.2149 281.331 79.4626 284.716 79.4626C288.017 79.4626 291.005 80.1731 293.68 81.5939C296.355 83.0148 298.444 85.0625 299.948 87.7371C301.495 90.3699 302.268 93.4415 302.268 96.9519ZM284.779 86.8595C282.564 86.8595 280.704 87.4864 279.2 88.7401C277.695 89.9938 276.776 91.7072 276.441 93.8803H293.053C292.719 91.749 291.799 90.0565 290.295 88.8028C288.79 87.5073 286.952 86.8595 284.779 86.8595ZM318.119 84.4148C319.289 82.785 320.856 81.5521 322.82 80.7163C324.826 79.8805 327.124 79.4626 329.715 79.4626V88.4894C328.629 88.4058 327.897 88.364 327.521 88.364C324.721 88.364 322.527 89.158 320.939 90.746C319.351 92.2923 318.557 94.6325 318.557 97.7668V113.689H308.778V79.9641H318.119V84.4148ZM335.53 79.9641H345.309V113.689H335.53V79.9641ZM340.419 75.2627C338.622 75.2627 337.16 74.7403 336.031 73.6956C334.903 72.6508 334.339 71.3553 334.339 69.809C334.339 68.2628 334.903 66.9673 336.031 65.9225C337.16 64.8778 338.622 64.3554 340.419 64.3554C342.216 64.3554 343.679 64.8569 344.807 65.8599C345.936 66.8628 346.5 68.1165 346.5 69.621C346.5 71.2508 345.936 72.609 344.807 73.6956C343.679 74.7403 342.216 75.2627 340.419 75.2627ZM387.42 96.9519C387.42 97.0773 387.357 97.9549 387.232 99.5847H361.719C362.178 101.674 363.265 103.325 364.978 104.537C366.692 105.749 368.823 106.355 371.372 106.355C373.128 106.355 374.674 106.104 376.011 105.603C377.39 105.059 378.665 104.223 379.835 103.095L385.038 108.737C381.862 112.373 377.223 114.19 371.122 114.19C367.319 114.19 363.955 113.459 361.029 111.996C358.104 110.492 355.847 108.423 354.259 105.791C352.671 103.158 351.877 100.17 351.877 96.8265C351.877 93.5251 352.65 90.558 354.197 87.9252C355.785 85.2506 357.937 83.182 360.653 81.7193C363.411 80.2149 366.483 79.4626 369.868 79.4626C373.169 79.4626 376.157 80.1731 378.832 81.5939C381.507 83.0148 383.596 85.0625 385.101 87.7371C386.647 90.3699 387.42 93.4415 387.42 96.9519ZM369.931 86.8595C367.716 86.8595 365.856 87.4864 364.352 88.7401C362.847 89.9938 361.928 91.7072 361.593 93.8803H378.205C377.871 91.749 376.951 90.0565 375.447 88.8028C373.942 87.5073 372.104 86.8595 369.931 86.8595ZM375.133 75.6388L369.68 70.8747L364.226 75.6388H357.08L365.355 66.6121H374.005L382.28 75.6388H375.133ZM414.429 79.4626C418.608 79.4626 421.972 80.7163 424.521 83.2238C427.112 85.7312 428.407 89.4505 428.407 94.3818V113.689H418.628V95.8863C418.628 93.2117 418.043 91.2266 416.873 89.9311C415.703 88.5938 414.011 87.9252 411.796 87.9252C409.33 87.9252 407.366 88.6983 405.903 90.2446C404.441 91.749 403.709 94.0057 403.709 97.0146V113.689H393.93V79.9641H403.271V83.9133C404.566 82.4924 406.175 81.4059 408.097 80.6537C410.02 79.8596 412.13 79.4626 414.429 79.4626ZM453.937 114.19C450.343 114.19 447.104 113.459 444.221 111.996C441.379 110.492 439.143 108.423 437.514 105.791C435.925 103.158 435.131 100.17 435.131 96.8265C435.131 93.4833 435.925 90.4953 437.514 87.8625C439.143 85.2297 441.379 83.182 444.221 81.7193C447.104 80.2149 450.343 79.4626 453.937 79.4626C457.489 79.4626 460.582 80.2149 463.215 81.7193C465.889 83.182 467.832 85.2924 469.044 88.0506L461.459 92.1251C459.704 89.0326 457.176 87.4864 453.874 87.4864C451.325 87.4864 449.215 88.3222 447.543 89.9938C445.872 91.6654 445.036 93.943 445.036 96.8265C445.036 99.7101 445.872 101.988 447.543 103.659C449.215 105.331 451.325 106.167 453.874 106.167C457.218 106.167 459.746 104.62 461.459 101.528L469.044 105.665C467.832 108.34 465.889 110.429 463.215 111.934C460.582 113.438 457.489 114.19 453.937 114.19ZM474.675 79.9641H484.454V113.689H474.675V79.9641ZM479.564 75.2627C477.767 75.2627 476.305 74.7403 475.176 73.6956C474.048 72.6508 473.484 71.3553 473.484 69.809C473.484 68.2628 474.048 66.9673 475.176 65.9225C476.305 64.8778 477.767 64.3554 479.564 64.3554C481.361 64.3554 482.824 64.8569 483.952 65.8599C485.081 66.8628 485.645 68.1165 485.645 69.621C485.645 71.2508 485.081 72.609 483.952 73.6956C482.824 74.7403 481.361 75.2627 479.564 75.2627ZM507.132 79.4626C512.356 79.4626 516.368 80.7163 519.168 83.2238C521.968 85.6894 523.368 89.4296 523.368 94.4445V113.689H514.216V109.489C512.377 112.623 508.95 114.19 503.935 114.19C501.344 114.19 499.088 113.752 497.165 112.874C495.285 111.996 493.843 110.785 492.84 109.238C491.837 107.692 491.335 105.937 491.335 103.973C491.335 100.838 492.506 98.3728 494.846 96.5758C497.228 94.7788 500.885 93.8803 505.816 93.8803H513.589C513.589 91.749 512.941 90.1192 511.646 88.9908C510.35 87.8207 508.407 87.2356 505.816 87.2356C504.019 87.2356 502.243 87.5282 500.488 88.1132C498.774 88.6565 497.311 89.4087 496.1 90.3699L492.589 83.5372C494.428 82.2417 496.622 81.2387 499.171 80.5283C501.762 79.8178 504.416 79.4626 507.132 79.4626ZM506.38 107.608C508.052 107.608 509.535 107.232 510.831 106.48C512.126 105.686 513.046 104.537 513.589 103.032V99.5847H506.881C502.87 99.5847 500.864 100.901 500.864 103.534C500.864 104.788 501.344 105.791 502.305 106.543C503.308 107.253 504.667 107.608 506.38 107.608Z" fill="#2C2C2C"/>
</svg>
