<svg width="106" height="105" viewBox="0 0 106 105" fill="none" xmlns="http://www.w3.org/2000/svg">
<path d="M75.163 52.4995C78.2998 47.7944 80.3909 42.5665 79.8681 36.2931C79.8681 22.1778 67.844 10.6764 53.7287 10.6764C39.0906 11.1992 27.0664 22.7005 27.0664 37.3387C27.0664 43.0893 28.6348 47.7944 31.7715 51.9768C34.9082 57.7274 38.5678 63.4781 40.1361 69.7516V70.7972C40.6589 72.8883 42.7501 74.9795 45.364 74.9795H61.0477C63.1389 74.9795 65.23 73.9339 65.7528 71.8428L66.2756 69.7516C68.3668 63.4781 71.5035 57.7274 75.163 52.4995Z" stroke="#2C2C2C" stroke-width="10.483" stroke-miterlimit="10" stroke-linecap="round" stroke-linejoin="round"/>
<path d="M53.2038 25.8369C46.4076 25.8369 41.1797 31.0648 41.1797 37.8611" stroke="#2C2C2C" stroke-width="9.72632" stroke-miterlimit="10" stroke-linecap="round" stroke-linejoin="round"/>
<path d="M63.1401 91.1855H43.7969C49.5476 94.3223 56.8666 94.3223 63.1401 91.1855Z" fill="#2C2C2C" stroke="#2C2C2C" stroke-width="10.483" stroke-miterlimit="10" stroke-linecap="round" stroke-linejoin="round"/>
</svg>
