<svg width="1038" height="543" viewBox="0 0 1038 543" fill="none" xmlns="http://www.w3.org/2000/svg">
<path d="M636.5 497.84C501.5 585.44 322.1 538.04 247.4 400.24C247.4 401.94 247.4 403.64 247.4 405.34C247.4 438.14 247.3 470.84 247.5 503.64C247.5 508.64 246.1 509.44 241.5 509.44C200.5 509.24 159.6 509.24 118.6 509.44C114.3 509.44 112.9 508.64 112.9 503.94C113.1 394.04 113 284.04 113.1 174.14C113.1 169.54 112.3 168.04 107.3 168.14C73.2 168.44 39 168.24 4.9 168.34C1.1 168.34 0 167.54 0 163.54C0.2 122.34 0.2 81.0398 0 39.8398C0 35.5398 1.3 34.8398 5.3 34.8398C119 34.9398 232.7 34.9398 346.4 35.0398C351.9 35.0398 356.6 33.8398 361.6 31.4398C454.1 -13.9602 544.5 -10.1602 632.8 42.6398C633.8 43.2398 634.7 43.8398 635.6 44.4398C636 44.0398 636.4 43.8398 636.4 43.6398C636.8 34.7398 636.8 34.7398 645.6 34.7398C715.2 34.7398 784.8 34.5398 854.4 34.8398C897.4 35.0398 936.3 47.7398 969.5 75.5398C1013.4 112.44 1036.5 159.44 1037.3 217.14C1037.9 259.04 1027.1 297.34 1001.7 330.84C970.3 372.34 929.3 398.04 877.3 405.24C867.1 406.64 856.7 406.84 846.4 406.94C823.4 407.04 800.4 407.14 777.5 406.84C772.9 406.74 772.2 408.14 772.2 412.34C772.4 442.74 772.2 473.24 772.4 503.64C772.4 507.94 771.7 509.44 766.9 509.34C725.3 509.14 683.7 509.14 642 509.34C637.7 509.34 635.5 508.64 636.3 503.84C636.8 502.14 636.5 500.34 636.5 497.84Z" fill="black"/>
<path d="M486.8 476.24C373.5 476.24 281.9 384.34 281.9 270.94C282 157.54 374 65.94 487.8 66.14C601.2 66.34 692.5 158.24 692.4 272.24C692.2 385.04 600.2 476.34 486.8 476.24Z" fill="#009CE8"/>
<path d="M772.3 220.24C772.3 204.64 772.4 188.94 772.2 173.34C772.2 170.04 772.6 168.84 776.4 168.84C801.7 169.04 827 168.84 852.3 168.94C879 169.14 901 191.24 901.7 218.44C902.4 246.34 881.2 270.84 854.5 271.64C828.2 272.44 801.9 271.84 775.6 272.04C772.4 272.04 772.3 270.64 772.3 268.14C772.4 252.14 772.3 236.24 772.3 220.24Z" fill="#FAF6F0"/>
<path d="M481.7 491.34C482.8 491.74 483.1 492.94 483.2 493.74C484.1 499.24 487.7 499.84 492.5 499.84C497.4 499.84 500.1 498.44 501.2 493.54C502.1 489.64 510 488.44 512.8 491.44C515.4 494.24 517.9 497.14 520.3 500.14C521.7 501.94 523.1 502.84 525.4 501.84C527.8 500.84 526.5 499.04 526.3 497.54C526.1 495.04 525.8 492.54 525.2 490.14C524.7 488.14 525.2 487.54 527.2 487.24C529.1 486.94 530 487.34 530.2 489.34C531.6 499.34 533 509.34 534.4 519.44C534.7 521.34 534 522.14 532.1 522.34C528.6 522.64 525.2 523.34 521.7 523.64C516.9 524.04 513.2 522.14 511.2 517.64C509.2 513.04 509.8 508.54 513.8 505.54C516.6 503.44 515.9 502.24 514 500.34C511.5 497.94 509.3 495.24 506.8 492.44C502.8 502.74 499 512.84 495.1 522.84C494.6 524.04 494.7 526.04 492.6 526.04C490.6 526.04 490.5 524.14 490 522.84C485.8 512.74 481.7 502.64 477.5 492.54C478.3 489.54 480.2 490.94 481.7 491.34Z" fill="#FDFDFD"/>
<path d="M266.9 265.74C266.4 266.04 265.9 266.64 265.3 266.74C259.9 267.74 258.7 271.04 258.8 276.24C258.9 280.94 260.3 283.44 264.8 284.74C269.3 285.94 270.7 293.44 267.2 296.64C264.4 299.24 261.6 301.84 258.5 304.14C256.4 305.64 256.4 307.54 257 309.34C257.8 311.84 259.8 309.84 261.1 309.84C263.4 309.84 265.7 309.24 268 308.94C269.6 308.74 271.3 308.34 271.6 310.94C272 313.34 270.8 313.64 268.9 313.94C259 315.34 249.2 316.84 239.3 318.34C237.6 318.64 236.8 318.14 236.6 316.54C236 312.44 235.2 308.34 235 304.24C234.9 299.84 237.3 296.64 241.4 295.04C245.7 293.24 249.5 294.14 252.8 297.34C253.7 298.24 254.5 299.34 255.4 300.54C258.8 297.44 262.2 294.34 266.2 290.64C256 286.84 246.4 283.24 236.9 279.54C235.4 278.94 232.9 279.24 232.9 276.64C232.9 274.14 235.4 274.24 236.9 273.64C246.2 269.64 255.5 265.84 264.9 261.94C269 261.34 267.2 263.94 266.9 265.74Z" fill="#FDFDFD"/>
<path d="M495.9 50.2399C495.7 50.0399 495.3 49.8399 495.2 49.5399C494 42.3399 489.4 41.3399 483 41.9399C479.6 42.2399 478.2 43.2399 477.2 46.3399C475 52.9399 468 54.0399 463.5 48.7399C461.5 46.3399 459.3 44.0399 457.4 41.5399C456.1 39.8399 454.8 39.2399 452.8 39.8399C450 40.5399 451.5 42.5399 451.6 43.8399C451.7 46.3399 452.1 48.7399 452.5 51.2399C452.8 53.1399 452.4 54.2399 450.2 54.5399C447.9 54.8399 447.9 53.8399 447.6 52.1399C446.4 42.4399 445.1 32.7399 443.6 23.0399C443.2 20.4399 443.9 19.4399 446.6 19.3399C450.2 19.2399 453.9 18.5399 457.5 18.3399C462.3 18.0399 465.4 20.7399 467 24.9399C468.5 29.1399 467.9 33.5399 464.1 36.1399C460.9 38.3399 461.9 39.6399 463.9 41.6399C466.1 43.9399 468.1 46.3399 470.8 49.3399C473.6 42.2399 476.1 35.7399 478.7 29.2399C480.1 25.7399 481.4 22.1399 482.8 18.6399C483.3 17.4399 483.4 15.9399 485.3 16.0399C486.8 16.1399 487.1 17.3399 487.5 18.3399C491.6 28.2399 495.6 38.2399 499.7 48.1399C500.3 51.9399 497.8 50.6399 495.9 50.2399Z" fill="#FDFDFD"/>
<path d="M708.4 278.04C708.6 277.84 708.8 277.44 709.1 277.34C716.4 276.24 717.3 271.54 716.7 265.14C716.4 261.74 715.4 260.34 712.3 259.34C706 257.34 704.8 250.24 709.9 245.94C712.5 243.64 715.1 241.34 717.9 239.14C719.5 237.94 719.7 236.44 719.3 234.74C718.7 232.54 717 233.44 715.6 233.54C712.8 233.84 710 234.24 707.2 234.64C705.7 234.84 704.6 234.64 704.5 232.74C704.5 231.14 704.2 230.04 706.5 229.74C716.5 228.54 726.6 227.04 736.6 225.64C738.5 225.34 739.3 225.74 739.4 227.84C739.7 231.34 740.4 234.74 740.7 238.24C741.2 243.24 738.8 247.24 734.4 248.94C729.7 250.74 725.4 249.84 722.4 245.84C720.7 243.54 719.9 243.54 718 245.44C715.5 248.04 712.7 250.24 709.5 253.14C719.7 257.04 729.2 260.64 738.7 264.44C740.2 265.04 742.7 264.84 742.6 267.44C742.5 269.64 740.4 269.64 739 270.24C729.5 274.14 720 278.04 710.6 281.84C706.7 282.34 708 279.94 708.4 278.04Z" fill="#FDFDFD"/>
<path d="M354.6 449.34C364.7 449.34 372.9 456.24 374 465.64C375.1 474.54 368.7 483.34 359.6 485.44C350.6 487.54 341.1 482.14 337.9 473.04C337.4 471.54 335.6 469.74 338.8 468.74C341.4 467.94 341.7 469.54 342.4 471.34C345.2 478.24 351.8 482.14 358 480.84C364.9 479.34 369.4 473.34 369 466.34C368.6 458.74 360.2 452.54 352.7 454.14C349.9 454.74 349.2 457.24 348.3 459.14C347.3 461.24 350 461.44 351.1 462.44C352.4 463.54 353.8 464.44 355.2 465.24C356.9 466.24 357 467.14 355.9 468.74C354.9 470.14 354 470.34 352.7 469.24C351.8 468.54 350.8 467.94 349.8 467.34C340.8 461.34 340.8 461.34 346.9 452.54C348.9 449.44 349.1 449.34 354.6 449.34Z" fill="#FCFCFC"/>
<path d="M308.5 138.24C308.5 147.74 301.4 156.34 292.4 157.74C284 159.04 274.7 153.04 272.3 144.84C269.6 135.64 274.3 125.94 283.4 121.94C285 121.24 287.1 119.34 288.5 122.04C289.8 124.84 287.7 125.44 285.5 126.24C278.8 128.84 275.2 136.14 277 142.84C278.5 148.64 285.5 153.24 291.6 152.54C298.6 151.64 303.4 145.74 303.6 138.34C303.7 134.44 301 133.34 298.6 131.74C296.8 130.64 296.7 132.34 296.1 133.04C294.7 134.84 293.4 136.84 292.3 138.84C291.4 140.34 290.5 140.44 289.2 139.44C288.1 138.64 287.4 138.04 288.2 136.64C290.6 133.04 292.9 129.44 295.3 125.84C295.6 125.34 296 124.84 296.9 124.94C301.1 125.54 308.6 133.74 308.5 138.24Z" fill="#FCFCFC"/>
<path d="M666.2 405.14C666.7 394.54 674.3 386.24 683.8 385.64C692.8 385.14 701.5 392.44 703 401.74C704.3 409.94 697.9 419.84 689.6 422.14C688.4 422.44 686.6 423.64 685.9 421.24C685.2 419.14 685.9 418.14 688.2 417.34C694.8 415.04 698.5 409.54 698.1 403.44C697.8 397.84 693.5 392.64 688 391.24C678.7 388.84 669.8 397.04 671.2 406.64C671.7 409.74 674.2 410.54 676.3 411.54C678.5 412.64 678.5 409.84 679.5 408.74C680.7 407.44 681.6 405.74 682.6 404.24C683.6 402.64 684.5 403.14 685.8 403.94C687.3 404.94 687.5 405.74 686.3 407.04C685.5 407.94 685 408.94 684.3 409.94C678.1 419.24 678.2 419.04 669 412.54C665.8 410.44 666.8 407.44 666.2 405.14Z" fill="#FCFCFC"/>
<path d="M622.2 93.4398C612.3 93.3398 603.9 86.2398 602.8 76.8398C601.8 68.8398 608.1 59.4398 615.9 57.3398C625.2 54.7398 635 59.6398 638.7 68.7398C639.3 70.3398 641.4 72.4398 638.6 73.8398C635.9 75.1398 635.2 73.1398 634.4 70.8398C631.9 63.9398 624.2 60.2398 617.4 62.2398C611.4 64.0398 607.1 71.0398 608.1 77.5398C609.2 84.4398 615.5 88.8398 623 88.6398C626.5 88.5398 627.5 86.0398 628.6 83.8398C629.7 81.5398 626.9 81.2398 625.7 80.2398C624.4 79.0398 622.7 78.2398 621.2 77.1398C619.9 76.2398 620.5 75.3398 621.1 74.2398C621.8 73.0398 622.6 72.5398 623.8 73.4398C627.4 75.8398 631 78.2398 634.5 80.6398C635 80.9398 635.5 81.3398 635.4 82.2398C634.9 86.4398 626.7 93.5398 622.2 93.4398Z" fill="#FCFCFC"/>
<path d="M708.4 278.04C708.5 279.64 708 281.64 710.6 281.84C710.4 284.44 712.5 283.64 713.7 283.74C722.3 284.84 730.8 285.84 739.4 286.84C740.5 286.94 742 286.54 742.4 287.94C742.8 289.44 741.4 290.24 740.3 290.94C732.3 296.24 724.3 301.54 715.4 307.54C722.7 308.44 729.2 309.04 735.6 310.04C737 310.24 740 308.94 739.7 312.64C739.4 316.24 737.2 315.14 735.1 314.84C726 313.74 717 312.74 707.9 311.54C706.7 311.44 705 312.14 704.6 310.34C704.1 308.44 705.8 307.84 707 307.04C714.9 301.84 722.7 296.74 731.6 290.94C724.5 290.04 718.6 289.14 712.5 288.74C708.8 288.44 706.3 287.84 707.7 283.24C708.2 281.54 707 279.54 708.4 278.04Z" fill="#FCFCFC"/>
<path d="M266.9 265.74C266.7 264.14 267.6 262.14 264.9 261.84C265.2 258.84 262.8 260.04 261.6 259.94C253.4 258.84 245.1 258.04 236.9 256.94C235.6 256.74 233.6 257.84 233.1 255.74C232.6 253.64 234.8 253.14 236.1 252.34C243.7 247.14 251.4 241.94 260 236.24C252.4 235.34 245.8 234.64 239.1 233.84C237.5 233.64 235.2 234.34 235.6 231.14C235.9 228.34 237.5 228.74 239.5 228.94C249.1 230.04 258.7 231.04 268.2 232.14C269.2 232.24 270.7 231.74 270.9 233.54C271 235.04 270 235.54 269 236.24C262.4 240.64 255.8 245.14 249.2 249.54C247.9 250.44 246.5 251.34 244 252.94C250.9 253.74 256.7 254.64 262.5 254.94C266.7 255.14 269.3 256.04 267.8 260.94C267.3 262.34 268.9 264.34 266.9 265.74Z" fill="#FCFCFC"/>
<path d="M583.2 46.44C580.1 53.14 577.2 59.24 574.4 65.34C573.6 67.04 572.9 68.44 570.4 67.24C567.9 65.94 569.2 64.64 569.8 63.24C573.8 54.74 577.8 46.14 581.9 37.64C582.4 36.54 582.7 34.54 584.2 34.74C585.9 34.94 586.1 36.84 586.4 38.24C588.9 47.34 591.3 56.44 594.1 66.54C597.3 59.74 600.2 53.64 603.2 47.64C603.9 46.24 604 43.94 606.9 45.14C610.1 46.54 608.3 48.24 607.5 49.84C603.6 58.04 599.8 66.34 595.8 74.54C595.2 75.74 595.3 77.94 593.3 77.74C591.3 77.54 591.2 75.44 590.8 73.84C588.6 65.84 586.6 57.84 584.5 49.84C584.2 48.94 583.8 48.04 583.2 46.44Z" fill="#FCFCFC"/>
<path d="M495.9 50.2398C497.5 50.1398 499.5 50.6398 499.7 48.0398C502.3 48.2398 501.5 46.1398 501.6 44.9398C502.7 36.4398 503.7 27.8398 504.8 19.2398C504.9 18.1398 504.6 16.5398 505.9 16.2398C507.4 15.8398 508.1 17.2398 508.9 18.3398C514.2 26.3398 519.5 34.3398 525.4 43.2398C526.3 36.1398 526.9 30.0398 527.9 24.0398C528.2 22.2398 526.7 18.9398 530.8 19.2398C535.3 19.5398 532.8 22.5398 532.6 24.3398C531.7 33.2398 530.5 42.1398 529.4 50.9398C529.3 52.0398 530 53.8398 528 54.1398C526.4 54.3398 525.7 53.1398 525 51.9398C519.8 43.9398 514.6 35.9398 508.8 27.0398C507.9 34.0398 506.9 40.0398 506.5 46.0398C506.2 50.3398 504.8 52.0398 500.5 50.8398C499.1 50.4398 497.3 51.6398 495.9 50.2398Z" fill="#FCFCFC"/>
<path d="M282.2 166.34C275 163.04 268.9 160.24 262.8 157.34C261.6 156.74 259.2 156.94 260.5 154.04C261.6 151.64 262.7 151.94 264.7 152.84C273.4 156.94 282.1 160.84 290.9 164.84C291.9 165.34 293.4 165.44 293.4 166.74C293.4 168.24 292 168.64 290.6 169.04C281.2 171.64 271.8 174.34 261.7 177.24C268.5 180.34 274.8 183.24 281.1 186.14C282.5 186.74 284.3 187.04 283.1 189.64C281.9 192.44 280.5 191.44 278.9 190.64C270.3 186.74 261.8 182.74 253.2 178.74C252.1 178.24 250.2 178.34 250.3 176.64C250.4 174.74 252.4 174.74 253.7 174.34C262.9 171.84 272 169.24 282.2 166.34Z" fill="#FCFCFC"/>
<path d="M393.6 496.64C396.9 489.64 399.6 483.74 402.4 477.84C403.2 476.14 403.5 473.94 406.4 475.44C409.3 476.94 407.4 478.34 406.8 479.74C402.9 488.34 398.9 496.84 394.9 505.44C394.4 506.44 394.4 508.04 393 507.94C391.4 507.84 391.2 506.34 390.9 505.04C388.3 495.84 385.7 486.64 382.8 476.24C379.4 483.54 376.5 489.74 373.6 495.94C372.9 497.54 372.4 498.84 370 497.64C367.7 496.44 368.4 495.24 369.1 493.74C373.1 485.04 377.1 476.34 381.3 467.64C381.8 466.64 381.7 464.64 383.8 465.24C385.4 465.64 385.5 467.04 385.8 468.34C388.2 477.24 390.7 486.24 393.6 496.64Z" fill="#FCFCFC"/>
<path d="M713.3 366.34C706.3 363.04 700.3 360.34 694.3 357.44C692.8 356.74 690.7 356.54 691.9 353.64C693.2 350.64 694.7 352.24 696.2 352.94C704.5 356.84 712.7 360.64 720.9 364.64C722.2 365.24 724.7 365.14 724.3 367.44C724 369.14 722 369.04 720.6 369.44C711.7 371.94 702.7 374.34 692.7 377.14C699.6 380.44 705.7 383.34 711.8 386.14C713.4 386.94 715.4 387.14 714.1 389.94C712.8 392.64 711.3 391.34 709.7 390.54C701.3 386.64 692.9 382.74 684.5 378.74C683.3 378.14 681.2 378.24 681.6 376.14C682 374.34 683.9 374.34 685.2 373.94C694.1 371.44 703.1 369.04 713.3 366.34Z" fill="#FCFCFC"/>
<path d="M468.4 514.44C469.3 506.64 470.1 499.84 470.8 493.14C471 491.14 471.5 490.14 473.8 490.34C476 490.54 475.9 491.74 475.8 493.44C474.7 503.34 473.6 513.24 472.5 523.14C472.4 524.14 472.4 525.24 471.1 525.44C469.6 525.64 469.2 524.44 468.5 523.44C463.1 515.44 457.8 507.54 451.8 498.54C451 504.94 450.3 510.24 449.7 515.54C449.5 517.14 449.4 518.84 449.1 520.44C448.9 522.04 448.5 523.14 446.3 522.74C444.3 522.34 443.9 521.54 444.1 519.74C445.3 510.54 446.3 501.24 447.6 492.04C447.8 490.54 447 488.14 448.8 487.64C451.3 486.94 451.9 489.64 453 491.14C457.7 498.14 462.4 505.24 467 512.34C467.2 512.84 467.6 513.34 468.4 514.44Z" fill="#FCFCFC"/>
<path d="M354.5 90.7396C354.5 99.4396 345.6 105.84 337.5 102.44C328.8 98.8396 323.5 91.9396 322.2 82.6396C321.1 74.9396 329.4 67.9396 337.1 69.4396C345.5 71.1396 354.5 82.2396 354.5 90.7396Z" fill="#FCFCFC"/>
<path d="M651.8 461.74C651.9 469.44 644 475.74 636.4 474.04C628.3 472.14 619.7 461.54 619.5 453.24C619.3 443.64 628.8 437.44 637.5 441.54C645.2 445.04 651.7 454.24 651.8 461.74Z" fill="#FCFCFC"/>
<path d="M678.9 107.74C687.4 107.84 693.7 116.54 690.5 124.54C687.2 132.84 680.7 137.84 672.1 139.74C667.2 140.84 662.9 139.04 659.8 134.94C656.8 130.84 656.3 126.44 658.5 121.84C662.1 114.14 671.4 107.64 678.9 107.74Z" fill="#FCFCFC"/>
<path d="M307.6 402.64C315.7 402.94 321.9 411.74 318.9 419.24C315.4 428.34 308.4 433.64 298.9 435.04C291.2 436.14 284.4 428.14 285.9 420.14C287.4 411.64 298.9 402.34 307.6 402.64Z" fill="#FCFCFC"/>
<path d="M697.3 339.24C697.1 337.04 698.7 336.44 700.2 335.74C703.5 334.24 706.9 332.94 710.2 331.24C711.8 330.44 715.1 330.14 714.6 328.34C714 325.84 712.5 323.14 709.2 322.44C707.6 322.14 706 321.64 704.4 321.24C702.8 320.84 701.9 320.04 702.5 318.14C703 316.34 703.6 315.74 705.6 316.34C715.4 319.04 725.2 321.54 734.9 324.04C736.5 324.44 737.5 324.94 736.7 327.04C736 328.64 735.7 329.34 733.6 328.84C728.7 327.64 723.9 325.64 718.8 325.54C722.3 333.84 731.3 339.14 731.5 348.84C731 349.14 730.5 349.44 730 349.74C726.8 345.34 723.4 341.04 720.5 336.34C718.6 333.14 716.8 333.04 713.7 334.64C708.7 337.14 703.4 339.24 698.3 341.44C696.3 341.54 697.1 340.34 697.3 339.24Z" fill="#FCFCFC"/>
<path d="M278 201.94C278.3 205.24 276.7 207.04 273.6 208.14C270.3 209.34 267.2 210.94 264.2 212.54C262.7 213.34 259.7 213.24 260.3 215.34C260.9 217.44 262.2 220.04 264.9 220.84C266.8 221.44 268.8 221.84 270.7 222.24C272.4 222.64 273.4 223.34 272.6 225.34C272 226.94 271.5 227.64 269.4 227.14C259.6 224.54 249.8 222.14 240 219.74C238 219.24 237.8 218.24 238.3 216.54C238.8 214.64 239.7 214.44 241.5 214.94C246.1 216.24 250.8 217.24 255.9 218.54C253.1 209.44 242.6 204.64 243.5 194.54C243.9 194.34 244.4 194.04 244.8 193.84C248.2 198.54 251.7 203.04 254.9 207.84C256.5 210.24 258 210.54 260.6 209.24C265.9 206.64 271.4 204.34 276.9 201.94C277.1 201.44 277.6 201.44 278 201.94Z" fill="#FCFCFC"/>
<path d="M556.5 61.2399C554.3 61.4399 554.3 59.5399 553.7 58.3399C552.1 55.0399 550.9 51.6399 549.2 48.3399C548.4 46.7399 548.3 43.6399 546.4 44.0399C543.9 44.6399 541.1 46.1399 540.5 49.3399C540.2 50.9399 539.7 52.5399 539.3 54.1399C538.9 55.7399 538.1 56.6399 536.2 56.0399C534.4 55.5399 533.8 54.9399 534.4 52.9399C537.1 43.2399 539.7 33.4399 542.3 23.7399C542.7 22.1399 543.2 20.9399 545.3 21.8399C546.6 22.4399 547.9 22.6399 547.3 24.4399C545.7 29.1399 545.2 34.1399 543 38.6399C544.7 39.7399 545.9 38.5399 547.3 37.6399C551.5 34.6399 555.8 31.8399 559.9 28.7399C562.6 26.6399 565.2 26.2399 568.3 28.4399C563.9 31.5399 559.7 34.7399 555.2 37.5399C551.9 39.5399 551 41.3399 553 44.9399C555.7 50.0399 557.7 55.4399 560 60.7399C558.8 61.9399 557.6 61.8399 556.5 61.2399Z" fill="#FCFCFC"/>
<path d="M419.9 480.24C422 479.84 422.8 481.34 423.5 482.94C425 486.44 426.5 489.94 428.2 493.34C429 494.94 428.9 498.14 431.3 497.54C433.6 496.94 436.3 495.54 436.9 492.44C437.2 490.84 437.7 489.24 438.1 487.64C438.5 485.64 439.5 484.94 441.6 485.44C443.8 485.94 443.5 487.04 443.1 488.74C440.6 498.34 438.2 508.04 435.7 517.64C435.3 519.04 435 520.54 432.7 519.74C430.8 519.04 430.1 518.44 430.8 516.24C432.2 511.74 433.1 507.14 434.5 501.64C426.5 505.64 421.2 511.64 414 514.74C413 515.14 411.5 514.14 409.1 513.54C414.1 509.94 418.4 506.44 423.1 503.64C426.2 501.74 426.4 499.94 424.8 496.84C422.2 491.84 420.2 486.64 417.9 481.44C417.6 479.44 418.7 479.74 419.9 480.24Z" fill="#FCFCFC"/>
<path d="M380.1 78.3397C375.2 84.2397 368.2 87.1397 361.9 91.0397C359.3 92.6397 358.5 89.4397 358.8 87.3397C359.5 82.4397 360.5 77.5397 361.3 72.6397C361.6 70.6397 361.8 68.7397 362 66.7397C362.3 63.3397 361.5 60.3397 357.8 59.2397C354.3 58.2397 352 60.3397 349.7 62.8397C348.3 64.4397 348.7 69.5397 344.9 66.8397C341.6 64.4397 345.2 61.5397 346.7 59.4397C349.6 55.0397 355.5 53.1397 359.8 54.6397C364.2 56.1397 366.8 60.5397 366.7 66.1397C366.6 71.7397 365.4 77.2397 363.9 83.3397C369.3 81.1397 374.4 79.0397 377.5 73.9397C379.2 75.0397 379.8 76.6397 380.1 78.3397Z" fill="#FBFBFB"/>
<path d="M593.5 464.34C599.1 460.74 604.6 457.14 610.2 453.74C611.4 453.04 612.6 450.94 614.4 452.44C615.9 453.74 615.9 455.54 615.5 457.44C614.5 461.94 613.7 466.54 612.9 471.14C612.6 472.94 612.4 474.74 612.2 476.54C611.9 479.94 612.5 483.14 616.1 484.24C620 485.44 622.8 483.34 624.7 480.04C625.1 479.34 625.5 478.54 625.8 477.84C626.3 476.44 626.8 475.64 628.6 476.34C630.2 476.94 630.6 477.74 630.2 479.34C628.9 485.04 622.2 489.94 616.4 489.34C610.9 488.84 607.6 484.24 607.5 477.54C607.4 471.84 609.5 466.54 609.7 460.44C604.5 461.14 601.6 466.34 596.5 466.34C594.8 466.84 594.2 465.54 593.5 464.34Z" fill="#FBFBFB"/>
<path d="M326.3 115.74C328.8 112.94 331.4 110.24 333.9 107.44C335.2 105.94 336.1 105.94 337.5 107.34C338.9 108.74 338.3 109.44 337.3 110.54C333.2 114.64 329.3 119.04 325 122.94C321.8 125.84 320.9 122.54 320.6 120.44C320.1 116.54 320.1 112.54 319.9 108.54C319.8 105.94 319.7 103.24 319.4 100.64C318.9 96.7398 317.5 93.2398 312.9 93.2398C308.6 93.2398 306.8 96.7398 305.8 100.44C305.4 101.94 306.2 104.44 303 103.84C299.6 103.24 301 100.94 301.4 99.2398C302.8 92.5398 308.1 88.0398 313.7 88.2398C319.1 88.5398 323 92.7398 323.9 99.8398C324.6 104.84 324.7 109.94 325 115.04C325.6 115.24 325.9 115.54 326.3 115.74Z" fill="#FBFBFB"/>
<path d="M644.6 111.84C647.3 114.24 650 116.64 652.7 119.04C653.8 120.04 654.9 120.84 653.3 122.64C651.5 124.54 650.6 123.54 649.4 122.24C645.8 118.54 642.1 114.94 638.5 111.24C637.6 110.34 635.9 109.64 636.6 108.14C637.3 106.64 638.7 105.64 640.6 105.64C646.2 105.54 651.9 105.34 657.5 105.14C659.1 105.04 660.8 104.84 662.4 104.54C665.2 103.94 667.1 102.14 667.5 99.1396C667.9 96.3396 666.1 94.4396 664 92.9396C662.9 92.2396 661.6 91.8396 660.4 91.3396C658.8 90.7396 656 91.5396 657.1 88.0396C658.1 84.9396 660.1 86.7396 661.5 87.0396C668.2 88.4396 672.6 93.5396 672.3 99.3396C672 104.94 667.4 108.94 660.3 109.74C657.8 110.04 655.3 109.94 652.8 110.04C650.3 110.14 647.9 110.34 645.5 110.44C645.2 110.94 644.9 111.44 644.6 111.84Z" fill="#FBFBFB"/>
<path d="M331.7 433.04C329.2 430.24 327 428.04 325 425.64C324 424.44 321 423.74 323.5 421.04C326 418.34 326.9 421.04 328 422.24C331.5 425.54 334.9 428.94 338.2 432.44C339 433.34 340.9 433.94 340.2 435.44C339.5 436.94 338.2 437.94 336.2 437.94C331.7 438.04 327.3 438.24 322.8 438.44C320.3 438.54 317.9 438.44 315.4 439.04C312.2 439.74 309.7 441.24 309.4 444.74C309.2 448.34 311.3 450.54 314.6 451.74C315.7 452.14 316.8 452.54 317.9 452.54C319.9 452.54 319.8 453.74 319.8 455.24C319.8 457.14 318.7 457.24 317.2 457.24C311.1 457.04 305 451.64 304.5 445.94C304 440.14 307.9 435.54 315 434.44C320.4 433.44 325.9 433.44 331.7 433.04Z" fill="#FBFBFB"/>
<path d="M295 377.24C298.5 382.84 302 388.34 305.4 393.94C306.1 395.14 308.3 396.24 306.8 398.14C305.6 399.64 303.7 399.74 301.8 399.44C297.4 398.54 293 397.74 288.6 396.94C286.5 396.54 284.3 396.14 282.2 396.04C279 395.84 276.1 396.84 275 400.14C273.9 403.34 275.4 405.94 278 407.94C279 408.74 280.3 409.34 281.5 409.74C283 410.34 283.5 410.94 282.9 412.64C282.3 414.34 281.7 414.54 280 414.14C273.9 412.54 269.1 405.84 270 399.94C270.8 394.24 276.5 390.64 283.7 391.44C286.3 391.74 288.9 392.24 291.5 392.74C293.9 393.14 296.4 393.54 299.3 393.94C297.9 388.84 293.2 385.84 292.9 380.84C292.2 378.64 293.4 377.84 295 377.24Z" fill="#FBFBFB"/>
<path d="M295 377.24C294.3 378.34 293.5 379.54 292.8 380.64C286.5 378.74 280.2 376.64 273.8 374.94C269.9 373.84 265.7 373.14 263.1 377.44C261.2 380.64 263.2 384.54 268 387.54C269.5 388.44 270.9 388.94 269.6 391.14C268.2 393.44 266.8 392.04 265.4 391.34C260.6 388.64 257.6 384.74 257.8 378.94C258 374.64 260.4 371.84 264.2 370.24C267.4 368.94 270.7 369.24 274 370.04C278.5 371.14 282.9 372.44 288.4 374.04C286.5 370.04 284.9 366.94 283.5 363.74C282.9 362.34 281.4 361.04 283.9 359.74C286.1 358.54 286.8 359.84 287.5 361.44C290 366.74 292.5 371.94 295 377.24Z" fill="#FBFBFB"/>
<path d="M686.5 163.84C691.6 165.34 696.6 166.94 701.7 168.44C703.4 168.94 705.2 169.44 707 169.54C709.6 169.74 712 168.94 713.3 166.34C714.5 163.84 713.9 161.44 712.4 159.34C711.2 157.64 709.6 156.44 707.8 155.74C706.1 155.04 706.3 154.04 707.1 152.64C707.8 151.34 708.4 151.14 709.8 151.64C715.3 153.44 719.7 160.74 718.5 166.34C717.2 172.14 712 175.34 705 174.04C699.5 173.04 694.2 171.34 688.1 169.74C690.1 173.84 691.6 177.44 693.4 180.84C694.2 182.44 693.7 183.14 692.3 183.84C690.9 184.54 690 184.64 689.2 182.84C686.6 176.44 682.5 170.64 680.6 163.94C680.9 162.94 681.7 162.54 682.7 162.64C683.9 163.14 685.2 163.44 686.5 163.84Z" fill="#FBFBFB"/>
<path d="M682.5 163.04C681.9 163.34 681.3 163.64 680.6 163.94C677.4 159.14 674.2 154.34 671.2 149.44C670.5 148.24 668.7 147.14 669.9 145.54C671.1 144.04 673 143.74 674.9 144.14C680.6 145.34 686.3 146.34 692 147.54C696.3 148.44 700.4 148.14 701.8 143.34C703.2 138.94 700 136.34 696.5 134.44C695.1 133.64 692.7 133.84 694.1 130.84C695.5 127.84 697.3 129.84 698.6 130.34C704.6 132.84 708.2 139.54 706.7 144.74C704.9 150.64 699.6 153.44 692.3 152.24C687.4 151.44 682.6 150.64 676.9 149.64C679.5 153.84 681.7 157.34 683.8 160.84C683.8 161.84 684.3 163.14 682.5 163.04Z" fill="#FBFBFB"/>
<path d="M380.1 78.34C378 77.64 377.7 75.84 377.7 73.94C379.1 68.64 380.6 63.44 382 58.14C382.5 56.34 382.9 54.54 383 52.84C383.2 50.24 382.4 47.74 379.8 46.54C377.2 45.34 374.6 45.84 372.4 47.74C371 48.94 369.8 50.34 369.1 52.04C368.4 53.94 367.3 53.44 366 52.94C364.7 52.44 364.5 51.44 364.9 50.14C366.5 44.74 373.8 40.34 379.5 41.24C384.7 42.14 388.3 47.24 387.5 53.74C386.9 58.44 385.3 63.04 384.2 67.74C383.9 68.84 383.2 69.84 384.1 71.24C387.5 69.54 390.9 67.94 394.2 66.14C395.5 65.44 396.5 65.14 397.3 66.84C398.1 68.54 398 69.44 396.1 70.34C390.8 72.94 385.5 75.64 380.1 78.34Z" fill="#FBFBFB"/>
<path d="M649.1 426.14C645.8 429.44 643.1 432.14 640.5 434.94C639.2 436.34 638.4 436.54 637 435.14C635.6 433.74 636.2 432.94 637.2 431.94C641.1 428.04 644.9 424.14 648.9 420.34C649.7 419.54 650.3 417.64 652 418.84C653.2 419.74 654.2 420.64 654.2 422.44C654.2 427.24 654.3 432.04 654.5 436.84C654.6 438.54 654.7 440.14 654.9 441.74C655.4 445.64 656.6 449.24 661.2 449.24C665.8 449.24 667.6 445.74 668.5 441.74C668.7 440.94 668.6 440.04 668.9 439.34C669.5 438.14 670.6 438.74 671.5 438.84C673 439.04 673.2 439.94 673.2 441.34C673.1 447.24 667.5 453.74 661.9 454.14C655.9 454.64 651.3 450.74 650.4 443.64C649.8 438.24 649.6 432.64 649.1 426.14Z" fill="#FBFBFB"/>
<path d="M593.5 464.34C595.1 464.14 595.5 465.74 596.6 466.34C595.7 473.14 592.9 479.34 591.2 485.94C590.2 489.94 589.7 493.94 593.9 495.94C598.3 498.04 601.5 495.34 603.8 491.64C604.7 490.14 605.2 488.14 607.7 489.74C610.4 491.44 608.3 492.94 607.5 494.24C604.3 500.04 597.7 502.84 592.4 500.84C587.1 498.84 584.7 493.24 586.3 486.24C587.4 481.34 588.9 476.44 590.4 470.84C586.5 472.74 583.3 474.14 580 475.74C578.4 476.54 577.2 477.34 576.1 475.04C575 472.84 576.4 472.44 577.7 471.84C583 469.24 588.3 466.84 593.5 464.34Z" fill="#FCFCFC"/>
<path d="M419.9 480.24C419 480.34 418.2 480.44 417.8 481.34C415.4 481.84 415.7 484.14 415.2 485.64C412.4 493.24 409.8 500.94 407.1 508.54C406.5 510.14 406.8 512.14 403.8 511.34C400.3 510.34 402 508.34 402.6 506.74C405.5 498.24 408.8 489.94 411.4 481.44C412.6 477.54 414.1 476.54 417.5 478.94C418 479.54 419 479.84 419.9 480.24Z" fill="#F9F9F9"/>
<path d="M278 201.94C277.6 201.94 277.1 201.84 276.7 201.84C278.4 199.64 276.2 199.94 275.2 199.64C266.6 196.64 258 193.74 249.5 190.64C248.2 190.14 245.5 190.64 246.6 187.34C247.6 184.24 249.2 185.24 251.1 185.94C259.4 188.84 267.7 191.64 275.9 194.54C281.5 196.44 281.5 196.44 278 201.94Z" fill="#F8F8F8"/>
<path d="M556.5 61.2398C557.6 61.1398 558.8 61.1398 559.9 61.0398C564.5 52.4398 566.7 42.8398 570.4 33.9398C570.9 32.8398 570.7 30.8398 572.4 31.0398C574 31.2398 576.7 31.2398 575.5 34.5398C572 43.9398 568.6 53.4398 565.3 62.9398C564.4 65.5398 563 65.5398 561.3 64.1398C559.7 62.9398 558.2 61.9398 556.5 61.2398Z" fill="#F9F9F9"/>
<path d="M697.3 339.24C697.4 340.14 697.5 341.04 698.3 341.54C696.7 343.64 698.7 343.44 699.8 343.84C708.4 346.94 716.9 349.94 725.5 353.04C727.2 353.64 729.6 353.74 728.3 356.84C727.1 359.74 725.5 358.24 723.9 357.64C715.5 354.64 707.1 351.54 698.6 348.84C695 347.64 693.6 346.34 695.8 342.74C696.6 341.84 696.8 340.44 697.3 339.24Z" fill="#FAFAFA"/>
<path d="M415.3 53.1398C411.7 53.2398 408.6 50.1398 408.8 46.5398C409.1 42.7398 411.3 40.3398 415.1 40.3398C418.9 40.3398 421.2 42.5398 421.6 46.4398C422 49.9398 418.9 53.1398 415.3 53.1398Z" fill="#009AE1"/>
<path d="M559 502.24C555.2 501.94 552.8 500.14 552.4 496.24C552 492.64 554.9 489.44 558.6 489.34C562.2 489.24 565.6 492.34 565.3 495.84C564.9 499.54 562.8 501.74 559 502.24Z" fill="#009AE1"/>
<path d="M262.9 336.64C266.6 336.74 269.4 339.84 269.1 343.54C268.7 347.44 266.4 349.54 262.5 349.44C258.6 349.34 256.5 346.84 256.3 343.14C256 339.54 259.3 336.54 262.9 336.64Z" fill="#009AE1"/>
<path d="M719.7 200.84C719.4 204.04 717.8 206.54 713.7 206.84C709.9 207.14 706.8 204.44 706.7 200.74C706.6 197.34 709.8 194.04 713.3 194.04C716.6 194.04 719.6 197.04 719.7 200.84Z" fill="#009AE1"/>
<path d="M682.5 163.04C683.9 162.94 683.8 161.84 683.8 160.94C684.7 161.94 685.6 162.94 686.5 163.94C685.2 163.24 683.5 164.74 682.5 163.04Z" fill="#555555"/>
<path d="M481.7 491.34C480.3 491.54 478.6 490.84 477.6 492.44C478.2 489.34 480.1 490.74 481.7 491.34Z" fill="#FCFCFC"/>
<path d="M511.3 244.54C502.1 269.14 484.4 279.44 459.8 278.44C434.8 277.44 418.9 264.24 410.6 240.74C410.6 251.54 410.4 262.44 410.7 273.24C410.8 277.34 409.7 278.74 405.5 278.54C398.4 278.24 391.2 278.24 384 278.54C380.1 278.74 379.3 277.34 379.4 273.74C379.5 238.64 379.4 203.54 379.6 168.44C379.6 163.64 378.1 162.44 373.7 162.84C369.6 163.14 365.4 162.84 361.2 162.94C359.2 162.94 358.5 162.24 359.1 160.24C362 149.54 364.9 138.84 367.7 128.14C368.2 126.04 369.3 126.04 370.9 126.04C383.1 126.04 395.2 126.14 407.4 125.94C410.6 125.94 410.8 127.44 410.8 129.84C410.7 140.34 410.8 150.74 411.1 161.54C418.6 137.84 433.6 123.24 459.2 122.14C484.3 121.04 502.2 131.94 511.9 156.64C514.3 151.04 516.3 146.44 519.3 142.34C531.8 125.44 549 120.14 569 122.54C592.4 125.34 606.4 139.64 612.1 161.64C618.9 187.94 618.9 214.64 611.6 240.84C605.4 262.94 590.1 275.74 570.8 277.84C539.4 281.04 521.9 268.94 511.3 244.54Z" fill="#FEFEFE"/>
<path d="M431.6 340.84C419.7 363.84 390 361.94 378.9 349.14C369 337.84 368 324.64 371.8 310.74C375.1 299.04 383 291.94 394.9 289.24C409.9 285.84 423.1 291.84 432 305.64C432 301.84 432.3 298.04 431.9 294.24C431.4 289.24 434.6 290.04 437.6 289.94C440.6 289.84 443.5 289.64 442.7 294.14C442.5 295.44 442.7 296.74 442.7 299.34C450.2 288.94 460.3 287.44 470.9 289.14C482.2 290.94 489.3 298.14 493.5 309.54C499 297.24 507.3 289.74 520.3 288.64C533.2 287.54 542.7 293.04 549.6 304.04C549.6 300.84 549.9 297.54 549.5 294.34C549 290.14 551.1 289.74 554.5 289.84C557.5 289.94 560.3 289.54 559.6 294.04C559.3 295.84 559.6 297.64 559.6 299.44C561.5 300.04 561.6 298.34 562.2 297.54C569.9 288.24 584.2 285.44 594.8 291.14C601.1 294.54 604.2 300.14 604.4 307.04C604.7 322.64 604.6 338.34 604.7 353.94C604.7 356.44 603.8 356.84 601.5 356.94C594.2 357.04 594.2 357.14 594.2 349.94C594.2 338.14 594.2 326.34 594.2 314.54C594.2 305.14 591.2 300.14 584.7 298.54C575.6 296.34 566.4 300.14 562.6 307.84C561 311.14 560.3 314.64 560.3 318.44C560.4 329.94 560.1 341.44 560.4 352.84C560.6 357.94 557.4 356.74 554.6 356.94C551.6 357.04 548.8 357.34 549.4 352.74C549.7 350.54 549.5 348.24 549.5 344.54C541.7 356.24 531.3 359.34 519.4 358.14C507.1 356.94 498.3 350.64 493.6 337.44C489.5 348.84 482.4 355.74 471.1 357.64C460.2 359.44 450.8 357.14 442.5 347.64C442.5 356.44 442.5 364.14 442.5 371.84C442.5 373.24 443.3 373.84 444.4 374.44C449 376.84 450.3 380.84 450.2 385.64C450.1 392.84 450.2 399.94 450.2 407.14C450.2 408.84 449.8 411.14 452.6 411.24C455.7 411.24 454.6 408.74 454.7 407.14C454.8 397.64 454.7 388.14 454.8 378.74C454.8 376.54 453.6 373.64 458 373.54C462.3 373.44 461.1 376.34 461.3 378.64C461.4 379.44 461.4 380.24 461.5 382.04C466.1 374.84 472.5 373.24 479.5 373.74C482.8 373.94 484 372.74 483.6 369.54C483.4 367.94 483.7 366.24 483.5 364.54C483.2 361.84 484.1 360.74 487.1 360.64C490.3 360.54 490.4 362.14 490.5 364.64C490.6 373.64 490.7 373.84 499.6 373.54C503.6 373.44 504.7 374.64 504.5 378.54C504.2 385.54 504.4 392.54 504.4 399.44C504.4 407.54 507.1 411.14 513.2 411.34C520.7 411.64 526.1 407.04 526.4 399.54C526.7 392.44 526.6 385.24 526.4 378.14C526.3 374.84 527.1 373.14 530.7 373.64C532 373.84 533.4 373.64 534.7 373.64C539 373.64 539 373.64 539.8 378.54C544.3 373.64 549.9 372.14 556.1 372.94C562.2 373.74 566.8 376.94 569.9 382.34C576.2 373.24 586.2 370.34 596.1 374.34C599.4 375.74 601.7 377.94 602.8 381.24C603.3 382.64 604.5 384.84 602.4 385.44C600.6 385.94 598.3 386.64 596.6 384.24C592.8 378.64 587.6 377.14 581.7 379.44C579.5 380.24 577.8 381.74 577.6 384.04C577.4 386.34 579 387.94 581.1 388.94C585.4 390.94 590 391.34 594.5 392.64C598.2 393.64 601.9 394.84 604.1 398.34C607.2 403.14 605.7 410.64 600.9 413.94C591.6 420.54 576.8 418.04 570 408.34C566.8 413.74 561.9 416.64 556 417.24C550 417.94 544.5 416.34 539.3 410.74C539.3 417.44 539.2 423.14 539.4 428.74C539.5 431.44 538.9 432.54 535.9 432.54C532.9 432.54 532.2 431.34 532.4 428.74C532.6 426.14 532.3 423.44 532.5 420.74C532.6 418.04 532.6 416.14 528.8 416.14C524.8 416.14 528.5 412.14 526.2 410.54C523.1 414.64 518.8 417.14 513.2 417.24C507.9 417.34 503.1 416.14 499.8 411.34C498.4 413.14 500.7 416.54 496.7 416.24C492.2 415.94 487 417.64 484.4 412.04C483.5 410.04 483.5 407.84 483.5 405.64C483.5 398.04 483.4 390.34 483.6 382.74C483.6 380.14 482.8 379.34 480.2 379.24C467.7 378.94 461.7 384.54 461.5 397.14C461.4 402.44 461.4 407.74 461.5 413.14C461.6 415.44 460.9 416.54 458.4 416.24C456.9 416.14 455.4 416.14 453.9 416.34C446.6 417.64 446 417.44 443 411.34C437 416.84 430.1 418.34 422.2 416.34C419.5 415.64 416.6 416.14 413.8 416.24C408.9 416.44 405.2 415.04 404.4 409.14C397.1 418.14 387.9 418.34 378.1 415.84C373.9 414.74 370.6 412.04 369.5 407.64C369.2 406.34 367.2 404.14 369.5 403.54C371.3 403.04 374.1 401.74 375.7 405.34C378.6 411.54 389.8 413.64 395.2 409.34C398.5 406.74 398.3 402.54 394.6 400.24C392.1 398.64 389.1 397.94 386.2 397.34C382.8 396.64 379.4 396.04 376.2 394.54C372.3 392.74 369.6 390.04 369.4 385.54C369.2 380.74 371.3 377.14 375.6 375.04C380 372.84 384.8 372.04 389.6 373.04C393.3 373.84 396.9 374.24 400.7 373.74C403.4 373.44 404.7 372.94 404.4 370.04C404.2 368.24 404.5 366.34 404.3 364.54C404.1 362.04 404.5 360.54 407.7 360.54C410.6 360.54 411.6 361.54 411.3 364.34C411.1 365.84 411.4 367.34 411.2 368.84C410.7 372.34 411.7 374.24 415.7 373.64C417.1 373.44 419.2 372.84 419.6 375.44C419.6 375.64 419.7 375.84 419.8 375.94C421.2 376.84 431.6 371.54 431.6 369.84C431.7 360.84 431.7 351.84 431.7 342.94C432.1 342.64 431.9 342.24 431.6 340.84Z" fill="#FEFEFE"/>
<path d="M522.8 518.64C518.2 518.94 515.7 517.44 515.5 513.24C515.3 509.14 518.4 506.54 525.3 506.74C530.4 506.94 528 512.04 528.6 514.74C529.8 520.84 524 516.64 522.8 518.64Z" fill="#020202"/>
<path d="M497.1 504.64C495.7 508.44 494.4 512.04 492.7 516.94C490.7 512.14 489.3 508.64 487.6 504.64C490.8 504.64 493.8 504.64 497.1 504.64Z" fill="#040404"/>
<path d="M245.7 299.04C249.6 299.04 252.5 302.84 252 308.64C251.5 314.54 245.8 312.04 243 312.24C238.6 312.54 240.4 307.54 240 304.94C239.4 301.24 242.1 299.44 245.7 299.04Z" fill="#020202"/>
<path d="M241.6 276.34C244.9 274.94 247.4 274.24 249.7 272.94C253.9 270.54 254.7 272.44 254.3 276.24C254.2 277.54 254.3 278.84 254.3 280.84C250.2 279.44 246.3 278.04 241.6 276.34Z" fill="#050505"/>
<path d="M450 28.74C448 23.94 450.3 23.34 453.4 23.14C459.5 22.64 462.2 23.94 462.7 27.94C463.2 32.04 460.2 34.54 453.3 34.94C447.3 35.34 451.2 30.04 450 28.74Z" fill="#040404"/>
<path d="M480.6 37.1397C482.1 32.9397 483.5 29.1397 485.1 24.7397C485.9 26.5397 486.5 27.8397 487.1 29.2397C490.6 37.7397 490.6 37.7397 480.6 37.1397Z" fill="#040404"/>
<path d="M736 238.24C736.2 242.54 733.9 244.54 730.4 244.74C726.6 245.04 723.4 240.84 724.1 234.74C724.7 229.24 730.3 231.54 733.2 231.44C738.1 231.24 734.2 236.44 736 238.24Z" fill="#040404"/>
<path d="M733.9 267.24C732 268.04 730.8 268.64 729.6 269.14C720.8 272.74 720.8 272.74 721.5 262.84C725.4 264.14 729.2 265.54 733.9 267.24Z" fill="#040404"/>
<path d="M349.8 90.8396C350 96.5396 343.8 100.44 338.5 97.6396C332.5 94.5396 328.5 89.4396 327 82.8396C325.9 77.7396 331.2 73.0396 336.3 74.2396C342 75.5396 349.6 84.9396 349.8 90.8396Z" fill="#010101"/>
<path d="M646.8 461.74C646.9 467.44 641.4 471.14 636.1 468.64C630.2 465.74 626.1 460.94 624.5 454.54C623 448.44 628.1 443.64 634.1 445.34C639.8 446.94 646.7 455.94 646.8 461.74Z" fill="black"/>
<path d="M686.5 120.24C686.4 127.04 674.7 136.44 667.9 135.04C663.3 134.14 660.5 129.04 662.6 124.64C665.7 118.24 670.9 113.94 678.1 112.74C682.8 112.04 686.6 115.64 686.5 120.24Z" fill="#010101"/>
<path d="M297.9 430.24C293 430.34 289.3 425.64 290.6 420.74C292.1 414.94 300.7 407.84 306.7 407.44C311.6 407.14 315.7 411.74 314.7 416.44C313.5 422.44 304 430.14 297.9 430.24Z" fill="#010101"/>
<path d="M381.4 323.24C381.3 315.44 383.2 308.24 389.2 302.94C399.1 294.04 414.4 297.24 420.4 309.24C424.4 317.34 424.8 325.84 421.9 334.44C418.4 344.64 410.1 350.14 400.2 348.94C390.3 347.74 382.9 340.04 381.8 329.74C381.5 327.54 381.5 325.34 381.4 323.24Z" fill="#009CE8"/>
<path d="M442.6 323.04C442.3 319.74 443 316.04 444.2 312.34C447.3 302.74 455 297.24 464.3 297.84C474.1 298.44 481.5 305.14 483.6 315.54C484.9 322.14 484.5 328.74 482.6 335.24C480 343.64 473.8 348.54 465.2 349.04C456.6 349.64 449.5 345.54 445.7 338.04C443.6 334.04 442.6 329.44 442.6 323.04Z" fill="#009CE8"/>
<path d="M526.4 326.64C532.7 326.64 539 326.84 545.3 326.54C548.8 326.34 550 327.34 549.8 330.94C549.6 333.84 550.1 336.74 545.6 336.04C543.6 335.74 541.9 335.94 540.8 338.34C536.5 347.54 531.3 350.04 520.3 348.74C511.9 347.74 505.5 342.14 503.6 333.94C501.9 326.54 501.9 326.54 509.4 326.54C515.1 326.64 520.7 326.64 526.4 326.64Z" fill="#009DE8"/>
<path d="M539.3 394.34C539.2 391.74 539.7 388.14 541.7 384.94C544.9 379.64 550.9 377.44 556.8 379.44C564.1 381.94 567.8 390.94 565.5 401.04C563.9 408.24 558.7 412.04 551.4 411.54C543.9 410.94 539.4 404.94 539.3 394.34Z" fill="#009DE8"/>
<path d="M522 317.64C516.7 317.64 511.4 317.64 506.1 317.64C503.6 317.64 502.6 317.24 503.2 314.24C505.3 304.54 512.8 297.94 522.3 297.94C531.5 297.94 539.5 304.54 541.4 313.74C541.9 316.34 541.6 317.84 538.4 317.74C533 317.44 527.5 317.64 522 317.64Z" fill="#009DE8"/>
<path d="M411.7 394.04C411.7 390.34 411.9 386.74 411.6 383.04C411.4 380.04 412.7 379.34 415.4 379.44C419.1 379.54 417 381.54 416.9 383.04C416.8 384.14 415.7 386.14 417.6 386.34C419.5 386.54 421.8 387.64 423.4 385.04C426.9 379.04 432.9 376.94 439.2 379.44C442.2 380.64 443.7 382.74 443.7 385.94C443.7 389.14 441.5 390.24 438.9 390.74C434.4 391.74 429.8 392.24 425.3 393.44C417.1 395.44 414.6 398.94 414.7 407.14C414.7 408.14 416.1 410.14 413.8 410.24C412 410.24 411.6 408.54 411.7 406.94C411.7 402.74 411.7 398.34 411.7 394.04Z" fill="#019DE8"/>
<path d="M573.4 392.84C578 395.64 582.8 396.44 587.6 397.44C590.5 398.04 593.4 398.74 595.9 400.34C599.7 402.84 599.6 407.64 595.6 410.04C589.5 413.74 580.1 411.34 576.6 405.14C576.5 405.04 576.6 404.74 576.5 404.64C569.4 402.44 574.7 396.84 573.4 392.84Z" fill="#009DE8"/>
<path d="M404.8 399.74C400.3 393.94 394.6 392.84 389 391.54C385.9 390.84 382.9 390.24 380 388.74C378.1 387.74 376.7 386.24 376.8 384.14C376.9 382.04 378.5 380.54 380.4 379.74C386.1 377.04 392.4 378.74 395.8 384.24C397.4 386.84 399.6 385.94 401.5 385.64C403.7 385.24 402.5 383.24 402.3 381.94C402.1 380.94 401.6 379.84 403.1 379.84C404.4 379.74 404.6 380.94 404.6 381.94C404.6 382.64 404.6 383.24 404.6 383.94C404.8 388.84 404.8 393.74 404.8 399.74Z" fill="#019EE8"/>
<path d="M443.4 394.54C444.5 406.84 439.5 412.54 428.7 411.44C425.3 411.14 422.5 409.54 421.9 406.04C421.3 402.34 423.1 399.74 426.6 398.24C431.9 396.14 437.7 397.04 443.4 394.54Z" fill="#019DE8"/>
<path d="M490.7 394.54C490.7 390.54 490.8 386.64 490.7 382.64C490.6 379.74 492.2 379.44 494.5 379.54C496.7 379.54 498.3 379.64 498.4 382.54C498.6 391.24 497.7 400.04 499.1 408.74C499.5 411.24 497.7 410.44 496.6 410.44C493.9 410.54 490.9 410.84 490.8 406.94C490.6 402.84 490.7 398.74 490.7 394.54Z" fill="#05A0E9"/>
</svg>
