<svg width="2789" height="369" viewBox="0 0 2789 369" fill="none" xmlns="http://www.w3.org/2000/svg">
<path fill-rule="evenodd" clip-rule="evenodd" d="M2623.91 108L2557 175L2741 108L2557 41L2623.91 108Z" fill="#BBCF07" stroke="#BBCF07" stroke-width="32.5" stroke-miterlimit="10"/>
<path d="M2621 109H17" stroke="#BBCF07" stroke-width="32.5" stroke-miterlimit="10" stroke-linecap="round"/>
<path d="M2467.52 200.008L2450.4 200.008" stroke="#FAF6F0" stroke-width="13.315" stroke-miterlimit="10" stroke-linecap="round"/>
<path d="M2416.43 200.008L51.5117 200.009" stroke="#FAF6F0" stroke-width="13.315" stroke-miterlimit="10" stroke-linecap="round" stroke-dasharray="31.74 31.74"/>
<path d="M34.3835 200.009L17.2549 200.009" stroke="#FAF6F0" stroke-width="13.315" stroke-miterlimit="10" stroke-linecap="round"/>
<path d="M415 154C438.748 154 458 134.524 458 110.5C458 86.4756 438.748 67 415 67C391.252 67 372 86.4756 372 110.5C372 134.524 391.252 154 415 154Z" fill="#BBCF07" stroke="#FAF6F0" stroke-width="32.5" stroke-miterlimit="10" stroke-linecap="round"/>
<path d="M1305 154C1328.75 154 1348 134.524 1348 110.5C1348 86.4756 1328.75 67 1305 67C1281.25 67 1262 86.4756 1262 110.5C1262 134.524 1281.25 154 1305 154Z" fill="#BBCF07" stroke="#FAF6F0" stroke-width="32.5" stroke-miterlimit="10" stroke-linecap="round"/>
<path d="M2101 154C2124.75 154 2144 134.524 2144 110.5C2144 86.4756 2124.75 67 2101 67C2077.25 67 2058 86.4756 2058 110.5C2058 134.524 2077.25 154 2101 154Z" fill="#BBCF07" stroke="#FAF6F0" stroke-width="32.5" stroke-miterlimit="10" stroke-linecap="round"/>
<path d="M344.428 313.158V331H289.73V316.863L314.397 294.048C316.542 292.033 317.972 290.31 318.687 288.88C319.402 287.45 319.76 286.053 319.76 284.688C319.76 282.997 319.175 281.697 318.005 280.787C316.9 279.813 315.275 279.325 313.13 279.325C311.05 279.325 309.1 279.878 307.28 280.983C305.46 282.088 304.062 283.648 303.087 285.663L285.733 276.985C288.332 272.11 292.135 268.275 297.14 265.48C302.145 262.62 308.19 261.19 315.275 261.19C320.67 261.19 325.447 262.068 329.607 263.823C333.767 265.578 337.017 268.08 339.357 271.33C341.697 274.58 342.867 278.318 342.867 282.543C342.867 286.313 342.055 289.855 340.43 293.17C338.87 296.42 335.782 300.125 331.167 304.285L321.417 313.158H344.428ZM380.054 332.56C374.009 332.56 368.646 331.163 363.966 328.368C359.351 325.508 355.711 321.413 353.046 316.082C350.446 310.688 349.146 304.285 349.146 296.875C349.146 289.465 350.446 283.095 353.046 277.765C355.711 272.37 359.351 268.275 363.966 265.48C368.646 262.62 374.009 261.19 380.054 261.19C386.099 261.19 391.429 262.62 396.044 265.48C400.724 268.275 404.364 272.37 406.964 277.765C409.629 283.095 410.961 289.465 410.961 296.875C410.961 304.285 409.629 310.688 406.964 316.082C404.364 321.413 400.724 325.508 396.044 328.368C391.429 331.163 386.099 332.56 380.054 332.56ZM380.054 314.133C385.254 314.133 387.854 308.38 387.854 296.875C387.854 285.37 385.254 279.618 380.054 279.618C374.854 279.618 372.254 285.37 372.254 296.875C372.254 308.38 374.854 314.133 380.054 314.133ZM448.072 262.75V331H425.062V280.105H413.362V262.75H448.072ZM482.486 261.19C489.051 261.19 494.771 262.458 499.646 264.993C504.586 267.528 508.421 271.298 511.151 276.302C513.881 281.308 515.246 287.45 515.246 294.73C515.246 302.53 513.653 309.29 510.468 315.01C507.348 320.73 502.928 325.085 497.208 328.075C491.553 331.065 484.956 332.56 477.416 332.56C473.321 332.56 469.421 332.072 465.716 331.097C462.011 330.188 458.858 328.888 456.258 327.198L464.546 311.11C467.926 313.515 472.053 314.718 476.928 314.718C480.893 314.718 484.143 313.743 486.678 311.793C489.278 309.778 490.968 306.885 491.748 303.115C488.173 305.65 483.656 306.918 478.196 306.918C474.036 306.918 470.168 306.008 466.593 304.188C463.018 302.368 460.158 299.8 458.013 296.485C455.868 293.17 454.796 289.368 454.796 285.078C454.796 280.333 455.998 276.14 458.403 272.5C460.873 268.86 464.221 266.065 468.446 264.115C472.671 262.165 477.351 261.19 482.486 261.19ZM484.046 291.025C486.126 291.025 487.816 290.408 489.116 289.173C490.416 287.873 491.066 286.15 491.066 284.005C491.066 281.86 490.416 280.17 489.116 278.935C487.816 277.7 486.126 277.083 484.046 277.083C481.966 277.083 480.276 277.7 478.976 278.935C477.676 280.17 477.026 281.86 477.026 284.005C477.026 286.15 477.676 287.873 478.976 289.173C480.276 290.408 481.966 291.025 484.046 291.025Z" fill="#FAF6F0"/>
<path d="M1239.43 313.158V331H1184.73V316.863L1209.4 294.048C1211.54 292.033 1212.97 290.31 1213.69 288.88C1214.4 287.45 1214.76 286.053 1214.76 284.688C1214.76 282.997 1214.17 281.697 1213 280.787C1211.9 279.813 1210.27 279.325 1208.13 279.325C1206.05 279.325 1204.1 279.878 1202.28 280.983C1200.46 282.088 1199.06 283.648 1198.09 285.663L1180.73 276.985C1183.33 272.11 1187.13 268.275 1192.14 265.48C1197.14 262.62 1203.19 261.19 1210.27 261.19C1215.67 261.19 1220.45 262.068 1224.61 263.823C1228.77 265.578 1232.02 268.08 1234.36 271.33C1236.7 274.58 1237.87 278.318 1237.87 282.543C1237.87 286.313 1237.05 289.855 1235.43 293.17C1233.87 296.42 1230.78 300.125 1226.17 304.285L1216.42 313.158H1239.43ZM1275.05 332.56C1269.01 332.56 1263.65 331.163 1258.97 328.368C1254.35 325.508 1250.71 321.413 1248.05 316.082C1245.45 310.688 1244.15 304.285 1244.15 296.875C1244.15 289.465 1245.45 283.095 1248.05 277.765C1250.71 272.37 1254.35 268.275 1258.97 265.48C1263.65 262.62 1269.01 261.19 1275.05 261.19C1281.1 261.19 1286.43 262.62 1291.04 265.48C1295.72 268.275 1299.36 272.37 1301.96 277.765C1304.63 283.095 1305.96 289.465 1305.96 296.875C1305.96 304.285 1304.63 310.688 1301.96 316.082C1299.36 321.413 1295.72 325.508 1291.04 328.368C1286.43 331.163 1281.1 332.56 1275.05 332.56ZM1275.05 314.133C1280.25 314.133 1282.85 308.38 1282.85 296.875C1282.85 285.37 1280.25 279.618 1275.05 279.618C1269.85 279.618 1267.25 285.37 1267.25 296.875C1267.25 308.38 1269.85 314.133 1275.05 314.133ZM1365.3 313.158V331H1310.6V316.863L1335.27 294.048C1337.42 292.033 1338.85 290.31 1339.56 288.88C1340.28 287.45 1340.63 286.053 1340.63 284.688C1340.63 282.997 1340.05 281.697 1338.88 280.787C1337.77 279.813 1336.15 279.325 1334 279.325C1331.92 279.325 1329.97 279.878 1328.15 280.983C1326.33 282.088 1324.94 283.648 1323.96 285.663L1306.61 276.985C1309.21 272.11 1313.01 268.275 1318.01 265.48C1323.02 262.62 1329.06 261.19 1336.15 261.19C1341.54 261.19 1346.32 262.068 1350.48 263.823C1354.64 265.578 1357.89 268.08 1360.23 271.33C1362.57 274.58 1363.74 278.318 1363.74 282.543C1363.74 286.313 1362.93 289.855 1361.3 293.17C1359.74 296.42 1356.66 300.125 1352.04 304.285L1342.29 313.158H1365.3ZM1402.39 262.75V331H1379.38V280.105H1367.68V262.75H1402.39Z" fill="#FAF6F0"/>
<path d="M2023.43 313.158V331H1968.73V316.863L1993.4 294.048C1995.54 292.033 1996.97 290.31 1997.69 288.88C1998.4 287.45 1998.76 286.053 1998.76 284.688C1998.76 282.997 1998.17 281.697 1997 280.787C1995.9 279.813 1994.27 279.325 1992.13 279.325C1990.05 279.325 1988.1 279.878 1986.28 280.983C1984.46 282.088 1983.06 283.648 1982.09 285.663L1964.73 276.985C1967.33 272.11 1971.13 268.275 1976.14 265.48C1981.14 262.62 1987.19 261.19 1994.27 261.19C1999.67 261.19 2004.45 262.068 2008.61 263.823C2012.77 265.578 2016.02 268.08 2018.36 271.33C2020.7 274.58 2021.87 278.318 2021.87 282.543C2021.87 286.313 2021.05 289.855 2019.43 293.17C2017.87 296.42 2014.78 300.125 2010.17 304.285L2000.42 313.158H2023.43ZM2059.05 332.56C2053.01 332.56 2047.65 331.163 2042.97 328.368C2038.35 325.508 2034.71 321.413 2032.05 316.082C2029.45 310.688 2028.15 304.285 2028.15 296.875C2028.15 289.465 2029.45 283.095 2032.05 277.765C2034.71 272.37 2038.35 268.275 2042.97 265.48C2047.65 262.62 2053.01 261.19 2059.05 261.19C2065.1 261.19 2070.43 262.62 2075.04 265.48C2079.72 268.275 2083.36 272.37 2085.96 277.765C2088.63 283.095 2089.96 289.465 2089.96 296.875C2089.96 304.285 2088.63 310.688 2085.96 316.082C2083.36 321.413 2079.72 325.508 2075.04 328.368C2070.43 331.163 2065.1 332.56 2059.05 332.56ZM2059.05 314.133C2064.25 314.133 2066.85 308.38 2066.85 296.875C2066.85 285.37 2064.25 279.618 2059.05 279.618C2053.85 279.618 2051.25 285.37 2051.25 296.875C2051.25 308.38 2053.85 314.133 2059.05 314.133ZM2149.3 313.158V331H2094.6V316.863L2119.27 294.048C2121.42 292.033 2122.85 290.31 2123.56 288.88C2124.28 287.45 2124.63 286.053 2124.63 284.688C2124.63 282.997 2124.05 281.697 2122.88 280.787C2121.77 279.813 2120.15 279.325 2118 279.325C2115.92 279.325 2113.97 279.878 2112.15 280.983C2110.33 282.088 2108.94 283.648 2107.96 285.663L2090.61 276.985C2093.21 272.11 2097.01 268.275 2102.01 265.48C2107.02 262.62 2113.06 261.19 2120.15 261.19C2125.54 261.19 2130.32 262.068 2134.48 263.823C2138.64 265.578 2141.89 268.08 2144.23 271.33C2146.57 274.58 2147.74 278.318 2147.74 282.543C2147.74 286.313 2146.93 289.855 2145.3 293.17C2143.74 296.42 2140.66 300.125 2136.04 304.285L2126.29 313.158H2149.3ZM2208.62 313.158V331H2153.92V316.863L2178.59 294.048C2180.74 292.033 2182.17 290.31 2182.88 288.88C2183.6 287.45 2183.95 286.053 2183.95 284.688C2183.95 282.997 2183.37 281.697 2182.2 280.787C2181.09 279.813 2179.47 279.325 2177.32 279.325C2175.24 279.325 2173.29 279.878 2171.47 280.983C2169.65 282.088 2168.26 283.648 2167.28 285.663L2149.93 276.985C2152.53 272.11 2156.33 268.275 2161.33 265.48C2166.34 262.62 2172.38 261.19 2179.47 261.19C2184.86 261.19 2189.64 262.068 2193.8 263.823C2197.96 265.578 2201.21 268.08 2203.55 271.33C2205.89 274.58 2207.06 278.318 2207.06 282.543C2207.06 286.313 2206.25 289.855 2204.62 293.17C2203.06 296.42 2199.98 300.125 2195.36 304.285L2185.61 313.158H2208.62Z" fill="#FAF6F0"/>
</svg>
