<svg width="598" height="598" viewBox="0 0 598 598" fill="none" xmlns="http://www.w3.org/2000/svg">
<rect x="51.0088" y="156.04" width="487.766" height="250.951" fill="#2C2C2C"/>
<path d="M156.634 272.97C147.2 272.97 139.686 276.808 134.409 284.482C129.133 292.157 126.574 303.349 126.574 318.059C126.574 332.769 129.293 343.642 134.569 350.997C139.845 358.352 147.52 362.029 157.433 362.029C168.306 362.029 176.301 358.992 181.417 352.916C186.534 346.84 189.252 336.607 189.731 322.217V317.9C189.731 301.91 187.173 290.398 181.897 283.523C176.78 276.488 168.306 272.97 156.634 272.97Z" fill="white"/>
<path d="M580.185 235.717C556.201 148.576 512.711 107.484 471.139 69.1105C396.47 0.357422 313.167 0.357422 264.4 0.357422C192.609 0.357422 133.929 22.4224 83.5634 74.8666C35.756 124.593 0.260254 224.045 0.260254 298.714C0.260254 369.226 6.17622 454.608 72.0513 511.049C173.102 597.71 238.498 597.23 310.289 597.23C382.08 597.23 442.359 571.328 525.662 485.307C573.309 436.06 595.374 385.535 597.293 336.128C598.252 310.866 585.621 255.543 580.185 235.717ZM517.028 390.651H473.537V303.671C473.537 292.958 471.619 284.803 467.781 279.527C463.944 274.091 457.868 271.532 449.714 271.532C439.161 271.532 431.166 275.05 425.89 282.245C420.614 289.28 418.055 300.633 418.055 316.142V390.971H374.725V303.99C374.725 293.278 372.806 285.123 368.969 279.847C365.131 274.41 359.055 271.852 350.901 271.852C339.869 271.852 331.714 275.69 326.758 283.364C321.801 291.039 319.243 303.511 319.243 321.099V391.291H275.912V310.866L235.78 391.291H230.024H195.647L187.173 371.944H185.254C175.341 386.654 161.59 394.009 141.284 394.009C122.417 394.009 107.707 387.134 96.8344 373.543C86.1217 359.952 80.6854 341.085 80.6854 316.941C80.6854 292.478 86.1217 273.451 97.1542 259.86C108.027 246.27 123.216 239.394 142.403 239.394C162.55 239.394 175.341 246.749 185.894 261.299H187.333C185.094 250.267 183.975 240.354 183.975 231.56V184.552H229.864V333.73L275.752 241.953H310.129L309.969 242.112H310.129L314.606 261.14H317.004C321.321 254.264 327.397 248.988 335.392 245.15C343.386 241.313 352.66 239.394 363.053 239.394C386.877 239.394 402.866 246.749 411.34 261.299H415.177C419.494 254.424 425.73 248.988 434.044 245.15C442.359 241.313 451.632 239.394 462.025 239.394C479.933 239.394 493.684 243.711 502.798 252.346C512.071 260.98 516.708 274.89 516.708 294.077V390.651H517.028Z" fill="white"/>
</svg>
