<svg width="134" height="42" viewBox="0 0 134 42" fill="none" xmlns="http://www.w3.org/2000/svg">
<path d="M11.7586 19.1016C11.0586 19.1016 10.5586 19.4016 10.1586 19.9016C9.75859 20.4016 9.55859 21.2016 9.55859 22.2016C9.55859 23.2016 9.75859 24.0016 10.1586 24.5016C10.5586 25.0016 11.0586 25.3016 11.7586 25.3016C12.5586 25.3016 13.0586 25.1016 13.4586 24.7016C13.8586 24.3016 14.0586 23.6016 14.0586 22.5016V22.2016C14.0586 21.1016 13.8586 20.3016 13.5586 19.8016C13.1586 19.4016 12.5586 19.1016 11.7586 19.1016Z" fill="#2C2C2C"/>
<path d="M41.4582 16.5C39.7582 10.4 36.7582 7.5 33.8582 4.8C28.5582 -9.53674e-07 22.5582 0 19.1582 0C14.1582 0 10.1582 1.6 6.5582 5.2C3.2582 8.7 0.658203 15.7 0.658203 20.9C0.658203 25.8 1.0582 31.8 5.6582 35.7C12.7582 41.8 17.3582 41.8 22.3582 41.8C27.3582 41.8 31.5582 40.1 37.4582 34C40.7582 30.5 42.3582 27 42.4582 23.5C42.6582 21.8 41.7582 17.9 41.4582 16.5ZM36.9582 27.4H33.9582V21.3C33.9582 20.5 33.8582 20 33.5582 19.6C33.2582 19.2 32.8582 19 32.2582 19C31.5582 19 30.9582 19.3 30.5582 19.7C30.1582 20.2 29.9582 21 29.9582 22.1V27.3H26.9582V21.2C26.9582 20.4 26.8582 19.9 26.5582 19.5C26.2582 19.1 25.8582 18.9 25.2582 18.9C24.4582 18.9 23.9582 19.2 23.5582 19.7C23.1582 20.2 23.0582 21.1 23.0582 22.3V27.2H20.0582V21.6L17.2582 27.2H16.8582H14.4582L13.8582 26H13.7582C13.0582 27 12.0582 27.5 10.6582 27.5C9.3582 27.5 8.2582 27 7.5582 26.1C6.7582 25.1 6.4582 23.8 6.4582 22.1C6.4582 20.4 6.8582 19.1 7.6582 18.1C8.4582 17.1 9.4582 16.7 10.8582 16.7C12.2582 16.7 13.1582 17.2 13.9582 18.2H14.0582C13.8582 17.4 13.8582 16.7 13.8582 16.1V12.8H17.0582V23.3L20.2582 16.9H22.6582L22.9582 18.2H23.1582C23.4582 17.7 23.8582 17.3 24.4582 17.1C25.0582 16.8 25.6582 16.7 26.3582 16.7C28.0582 16.7 29.1582 17.2 29.7582 18.2H30.0582C30.3582 17.7 30.7582 17.3 31.3582 17.1C31.9582 16.8 32.5582 16.7 33.3582 16.7C34.6582 16.7 35.5582 17 36.2582 17.6C36.8582 18.2 37.2582 19.2 37.2582 20.5V27.4H36.9582Z" fill="#2C2C2C"/>
<path d="M68.1582 25.6969C67.5582 25.0969 66.5582 24.7969 65.2582 24.7969C64.5582 24.7969 63.8582 24.8969 63.2582 25.1969C62.6582 25.4969 62.2582 25.7969 61.9582 26.2969H61.6582C61.0582 25.2969 59.9582 24.7969 58.2582 24.7969C57.5582 24.7969 56.8582 24.8969 56.3582 25.1969C55.7582 25.4969 55.3582 25.7969 55.0582 26.2969H54.8582L54.6582 24.9969H52.2582L50.6582 28.1969L52.2582 28.9969V35.3969H55.2582V30.4969C55.2582 29.2969 55.4582 28.3969 55.7582 27.8969C56.1582 27.3969 56.6582 27.0969 57.4582 27.0969C58.0582 27.0969 58.4582 27.2969 58.7582 27.6969C59.0582 28.0969 59.1582 28.5969 59.1582 29.3969V35.4969H62.1582V30.2969C62.1582 29.1969 62.3582 28.3969 62.7582 27.8969C63.1582 27.3969 63.6582 27.1969 64.4582 27.1969C65.0582 27.1969 65.4582 27.3969 65.7582 27.7969C66.0582 28.1969 66.1582 28.6969 66.1582 29.4969V35.5969H69.1582V28.7969C69.1582 27.2969 68.8582 26.2969 68.1582 25.6969ZM78.5582 35.3969L78.0582 33.9969H77.9582C77.4582 34.5969 76.9582 34.9969 76.4582 35.2969C75.9582 35.4969 75.2582 35.6969 74.4582 35.6969C73.4582 35.6969 72.6582 35.3969 72.0582 34.7969C71.4582 34.1969 71.1582 33.3969 71.1582 32.2969C71.1582 31.1969 71.5582 30.3969 72.3582 29.7969C73.1582 29.2969 74.2582 28.9969 75.8582 28.8969L77.6582 28.7969V28.2969C77.6582 27.1969 77.1582 26.6969 76.0582 26.6969C75.2582 26.6969 74.2582 26.9969 73.1582 27.4969L72.2582 25.5969C73.4582 24.9969 74.7582 24.6969 76.2582 24.6969C77.6582 24.6969 78.7582 24.9969 79.4582 25.5969C80.1582 26.1969 80.5582 27.0969 80.5582 28.3969V35.3969H78.5582V35.3969ZM77.7582 30.5969H76.6582C75.8582 30.5969 75.2582 30.7969 74.7582 30.9969C74.3582 31.2969 74.1582 31.6969 74.1582 32.2969C74.1582 33.0969 74.6582 33.4969 75.5582 33.4969C76.2582 33.4969 76.7582 33.2969 77.1582 32.8969C77.5582 32.4969 77.7582 31.9969 77.7582 31.3969V30.5969ZM87.8582 35.5969C84.5582 35.5969 82.9582 33.7969 82.9582 30.1969C82.9582 28.3969 83.3582 27.0969 84.2582 26.0969C85.1582 25.1969 86.4582 24.6969 88.0582 24.6969C89.2582 24.6969 90.3582 24.8969 91.3582 25.3969L90.5582 27.5969C90.1582 27.3969 89.6582 27.2969 89.2582 27.1969C88.8582 27.0969 88.4582 26.9969 88.0582 26.9969C86.5582 26.9969 85.8582 28.0969 85.8582 30.1969C85.8582 32.1969 86.5582 33.2969 88.0582 33.2969C88.5582 33.2969 89.1582 33.1969 89.5582 33.0969C90.0582 32.9969 90.4582 32.6969 90.9582 32.3969V34.7969C90.4582 35.0969 90.0582 35.2969 89.5582 35.3969C89.1582 35.4969 88.5582 35.5969 87.8582 35.5969ZM103.258 35.3969H100.358V29.2969C100.358 27.7969 99.7582 26.9969 98.6582 26.9969C97.8582 26.9969 97.2582 27.2969 96.9582 27.7969C96.5582 28.2969 96.4582 29.1969 96.4582 30.3969V35.2969H93.5582V20.7969H96.4582V23.7969C96.4582 23.9969 96.4582 24.5969 96.3582 25.3969L96.2582 26.1969H96.4582C97.0582 25.1969 98.0582 24.6969 99.4582 24.6969C100.658 24.6969 101.658 24.9969 102.258 25.6969C102.858 26.3969 103.258 27.2969 103.258 28.4969V35.3969V35.3969ZM106.158 22.1969C106.158 21.2969 106.658 20.7969 107.758 20.7969C108.858 20.7969 109.358 21.2969 109.358 22.1969C109.358 22.5969 109.258 22.9969 108.958 23.1969C108.658 23.3969 108.358 23.5969 107.758 23.5969C106.658 23.5969 106.158 23.1969 106.158 22.1969ZM109.158 35.3969H106.258V24.8969H109.158V35.3969ZM121.858 35.3969H118.958V29.2969C118.958 28.4969 118.858 27.9969 118.558 27.5969C118.258 27.1969 117.858 26.9969 117.258 26.9969C116.458 26.9969 115.858 27.2969 115.558 27.7969C115.158 28.2969 115.058 29.1969 115.058 30.4969V35.3969H112.158V24.8969H114.358L114.758 26.1969H114.958C115.258 25.6969 115.758 25.2969 116.258 25.0969C116.858 24.7969 117.458 24.6969 118.158 24.6969C119.358 24.6969 120.258 24.9969 120.958 25.6969C121.558 26.3969 121.858 27.2969 121.858 28.5969V35.3969ZM131.558 35.3969L130.958 33.9969H130.858C130.358 34.5969 129.858 34.9969 129.358 35.2969C128.858 35.4969 128.158 35.6969 127.358 35.6969C126.358 35.6969 125.558 35.3969 124.958 34.7969C124.358 34.1969 124.058 33.3969 124.058 32.2969C124.058 31.1969 124.458 30.3969 125.258 29.7969C126.058 29.2969 127.158 28.9969 128.758 28.8969L130.558 28.7969V28.2969C130.558 27.1969 130.058 26.6969 128.958 26.6969C128.158 26.6969 127.158 26.9969 126.058 27.4969L125.158 25.5969C126.358 24.9969 127.658 24.6969 129.158 24.6969C130.558 24.6969 131.658 24.9969 132.358 25.5969C133.058 26.1969 133.458 27.0969 133.458 28.3969V35.3969H131.558V35.3969ZM130.758 30.5969H129.658C128.858 30.5969 128.258 30.7969 127.758 30.9969C127.358 31.2969 127.158 31.6969 127.158 32.2969C127.158 33.0969 127.658 33.4969 128.558 33.4969C129.258 33.4969 129.758 33.2969 130.158 32.8969C130.558 32.4969 130.758 31.9969 130.758 31.3969V30.5969ZM70.0582 19.2969L69.5582 17.8969H69.4582C68.9582 18.4969 68.4582 18.8969 67.9582 19.1969C67.4582 19.3969 66.7582 19.5969 65.9582 19.5969C64.9582 19.5969 64.1582 19.2969 63.5582 18.6969C62.9582 18.0969 62.6582 17.2969 62.6582 16.1969C62.6582 15.0969 63.0582 14.2969 63.8582 13.6969C64.6582 13.1969 65.7582 12.8969 67.3582 12.7969L69.1582 12.6969V12.1969C69.1582 11.0969 68.6582 10.5969 67.5582 10.5969C66.7582 10.5969 65.7582 10.8969 64.6582 11.3969L63.7582 9.49688C64.9582 8.89688 66.2582 8.59688 67.7582 8.59688C69.1582 8.59688 70.2582 8.89688 70.9582 9.49688C71.6582 10.0969 72.0582 10.9969 72.0582 12.2969V19.2969H70.0582ZM69.2582 14.4969H68.1582C67.3582 14.4969 66.7582 14.6969 66.2582 14.8969C65.8582 15.1969 65.6582 15.5969 65.6582 16.1969C65.6582 16.9969 66.1582 17.3969 67.0582 17.3969C67.7582 17.3969 68.2582 17.1969 68.6582 16.7969C69.0582 16.3969 69.2582 15.8969 69.2582 15.2969V14.4969ZM79.0582 17.1969C79.5582 17.1969 80.1582 17.0969 80.8582 16.8969V18.9969C80.1582 19.2969 79.2582 19.4969 78.2582 19.4969C77.1582 19.4969 76.2582 19.1969 75.7582 18.5969C75.2582 17.9969 74.9582 17.1969 74.9582 15.9969V10.9969H73.5582V9.79688L75.1582 8.79688L75.9582 6.59688H77.7582V8.79688H80.6582V10.9969H77.7582V15.9969C77.7582 16.3969 77.8582 16.6969 78.0582 16.8969C78.3582 17.0969 78.6582 17.1969 79.0582 17.1969ZM89.6582 19.2969L89.0582 17.8969H88.9582C88.4582 18.4969 87.9582 18.8969 87.4582 19.1969C86.9582 19.3969 86.2582 19.5969 85.4582 19.5969C84.4582 19.5969 83.6582 19.2969 83.0582 18.6969C82.4582 18.0969 82.1582 17.2969 82.1582 16.1969C82.1582 15.0969 82.5582 14.2969 83.3582 13.6969C84.1582 13.1969 85.2582 12.8969 86.8582 12.7969L88.6582 12.6969V12.1969C88.6582 11.0969 88.1582 10.5969 87.0582 10.5969C86.2582 10.5969 85.2582 10.8969 84.1582 11.3969L83.2582 9.49688C84.4582 8.89688 85.7582 8.59688 87.2582 8.59688C88.6582 8.59688 89.7582 8.89688 90.4582 9.49688C91.1582 10.0969 91.5582 10.9969 91.5582 12.2969V19.2969H89.6582ZM88.8582 14.4969H87.7582C86.9582 14.4969 86.3582 14.6969 85.8582 14.8969C85.4582 15.1969 85.2582 15.5969 85.2582 16.1969C85.2582 16.9969 85.7582 17.3969 86.6582 17.3969C87.3582 17.3969 87.8582 17.1969 88.2582 16.7969C88.6582 16.3969 88.8582 15.8969 88.8582 15.2969V14.4969ZM54.8582 19.4969C53.5582 19.4969 52.4582 18.9969 51.7582 18.0969C50.9582 17.0969 50.6582 15.7969 50.6582 14.0969C50.6582 12.3969 51.0582 11.0969 51.8582 10.0969C52.6582 9.09688 53.6582 8.69688 55.0582 8.69688C56.4582 8.69688 57.3582 9.19688 58.1582 10.1969H58.2582C58.0582 9.39688 58.0582 8.69688 58.0582 8.09688V4.79688H61.2582V19.2969H58.8582L58.1582 17.9969H58.0582C57.2582 18.9969 56.3582 19.4969 54.8582 19.4969ZM56.0582 17.2969C56.8582 17.2969 57.3582 17.0969 57.7582 16.6969C58.1582 16.2969 58.3582 15.5969 58.3582 14.4969V14.1969C58.3582 13.0969 58.1582 12.2969 57.8582 11.7969C57.4582 11.2969 56.8582 11.0969 56.0582 11.0969C55.3582 11.0969 54.8582 11.3969 54.4582 11.8969C54.0582 12.3969 53.8582 13.1969 53.8582 14.1969C53.8582 15.1969 54.0582 15.9969 54.4582 16.4969C54.8582 16.9969 55.3582 17.2969 56.0582 17.2969Z" fill="#2C2C2C"/>
</svg>
