<svg width="43" height="42" viewBox="0 0 43 42" fill="none" xmlns="http://www.w3.org/2000/svg">
<path d="M11.7586 19.1016C11.0586 19.1016 10.5586 19.4016 10.1586 19.9016C9.75859 20.4016 9.55859 21.2016 9.55859 22.2016C9.55859 23.2016 9.75859 24.0016 10.1586 24.5016C10.5586 25.0016 11.0586 25.3016 11.7586 25.3016C12.5586 25.3016 13.0586 25.1016 13.4586 24.7016C13.8586 24.3016 14.0586 23.6016 14.0586 22.5016V22.2016C14.0586 21.1016 13.8586 20.3016 13.5586 19.8016C13.1586 19.4016 12.5586 19.1016 11.7586 19.1016Z" fill="#2C2C2C"/>
<path d="M41.4582 16.5C39.7582 10.4 36.7582 7.5 33.8582 4.8C28.5582 -9.53674e-07 22.5582 0 19.1582 0C14.1582 0 10.1582 1.6 6.5582 5.2C3.2582 8.7 0.658203 15.7 0.658203 20.9C0.658203 25.8 1.0582 31.8 5.6582 35.7C12.7582 41.8 17.3582 41.8 22.3582 41.8C27.3582 41.8 31.5582 40.1 37.4582 34C40.7582 30.5 42.3582 27 42.4582 23.5C42.6582 21.8 41.7582 17.9 41.4582 16.5ZM36.9582 27.4H33.9582V21.3C33.9582 20.5 33.8582 20 33.5582 19.6C33.2582 19.2 32.8582 19 32.2582 19C31.5582 19 30.9582 19.3 30.5582 19.7C30.1582 20.2 29.9582 21 29.9582 22.1V27.3H26.9582V21.2C26.9582 20.4 26.8582 19.9 26.5582 19.5C26.2582 19.1 25.8582 18.9 25.2582 18.9C24.4582 18.9 23.9582 19.2 23.5582 19.7C23.1582 20.2 23.0582 21.1 23.0582 22.3V27.2H20.0582V21.6L17.2582 27.2H16.8582H14.4582L13.8582 26H13.7582C13.0582 27 12.0582 27.5 10.6582 27.5C9.3582 27.5 8.2582 27 7.5582 26.1C6.7582 25.1 6.4582 23.8 6.4582 22.1C6.4582 20.4 6.8582 19.1 7.6582 18.1C8.4582 17.1 9.4582 16.7 10.8582 16.7C12.2582 16.7 13.1582 17.2 13.9582 18.2H14.0582C13.8582 17.4 13.8582 16.7 13.8582 16.1V12.8H17.0582V23.3L20.2582 16.9H22.6582L22.9582 18.2H23.1582C23.4582 17.7 23.8582 17.3 24.4582 17.1C25.0582 16.8 25.6582 16.7 26.3582 16.7C28.0582 16.7 29.1582 17.2 29.7582 18.2H30.0582C30.3582 17.7 30.7582 17.3 31.3582 17.1C31.9582 16.8 32.5582 16.7 33.3582 16.7C34.6582 16.7 35.5582 17 36.2582 17.6C36.8582 18.2 37.2582 19.2 37.2582 20.5V27.4H36.9582Z" fill="#2C2C2C"/>
</svg>
