<svg width="93" height="45" viewBox="0 0 93 45" fill="none" xmlns="http://www.w3.org/2000/svg">
<path d="M90.0413 14.8344C88.0413 13.0344 85.1414 12.0344 81.3414 12.0344C79.1414 12.0344 77.1414 12.4344 75.3414 13.2344C73.5414 14.0344 72.2414 15.2344 71.3414 16.6344H70.5413C68.7413 13.5344 65.3413 11.9344 60.2413 11.9344C58.0413 11.9344 56.0414 12.3344 54.3414 13.1344C52.6414 13.9344 51.3413 15.1344 50.4413 16.5344H49.9413L49.0413 12.4344H41.7413L31.9413 32.0344V0.234375H22.1414V10.2344C22.1414 12.0344 22.3414 14.2344 22.8414 16.5344H22.5413C20.2413 13.4344 17.5413 11.8344 13.2413 11.8344C9.14133 11.8344 5.94136 13.2344 3.64136 16.1344C1.34136 19.0344 0.141357 23.1344 0.141357 28.3344C0.141357 33.4344 1.24132 37.4344 3.54132 40.3344C5.84132 43.2344 8.94135 44.6344 12.9413 44.6344C17.2413 44.6344 20.1414 43.0344 22.3414 39.9344H22.7413L24.5413 44.0344H31.8414H33.0413L41.6414 26.9344V44.0344H50.8414V29.1344C50.8414 25.4344 51.3413 22.7344 52.4413 21.1344C53.5413 19.5344 55.2413 18.7344 57.5413 18.7344C59.3413 18.7344 60.5413 19.3344 61.4413 20.4344C62.2413 21.5344 62.6414 23.3344 62.6414 25.5344V44.0344H71.8414V28.1344C71.8414 24.8344 72.4413 22.4344 73.5413 20.9344C74.6413 19.4344 76.3414 18.6344 78.6414 18.6344C80.4414 18.6344 81.6413 19.2344 82.4413 20.3344C83.2413 21.4344 83.6414 23.2344 83.6414 25.4344V43.9344H92.8414V23.2344C92.9414 19.6344 91.9413 16.6344 90.0413 14.8344ZM23.2413 29.8344C23.1413 32.9344 22.5413 35.1344 21.4413 36.3344C20.3413 37.6344 18.6414 38.2344 16.3414 38.2344C14.2414 38.2344 12.6413 37.4344 11.4413 35.9344C10.3413 34.3344 9.74133 32.0344 9.74133 28.9344C9.74133 25.8344 10.3413 23.4344 11.4413 21.8344C12.5413 20.2344 14.1414 19.3344 16.1414 19.3344C18.6414 19.3344 20.4413 20.0344 21.5413 21.5344C22.6413 23.0344 23.1414 25.4344 23.1414 28.8344V29.8344H23.2413Z" fill="#606060"/>
</svg>
